{"glyphs":{"0":{"ha":795,"x_min":75,"x_max":769,"o":"m 312 -11 q 136 61 197 -11 q 75 273 75 134 q 100 477 75 362 q 168 680 125 593 q 267 823 211 766 q 389 908 323 880 q 529 937 456 937 q 669 902 615 937 q 746 804 722 867 q 769 651 769 741 q 752 487 769 581 q 710 321 735 393 q 647 188 685 250 q 559 81 610 126 q 446 13 508 37 q 312 -11 384 -11 m 254 166 q 271 89 254 113 q 327 65 288 65 q 378 84 353 65 q 456 194 419 115 q 545 469 504 296 q 587 742 587 642 q 581 807 587 782 q 559 846 574 832 q 515 861 543 861 q 453 832 484 861 q 355 659 401 784 q 279 372 311 541 q 254 166 254 243 z "},"1":{"ha":795,"x_min":74,"x_max":656,"o":"m 494 212 q 481 128 481 153 q 496 88 481 102 q 544 68 511 74 q 644 62 578 62 l 631 0 l 74 0 l 87 62 q 193 71 160 65 q 243 90 226 77 q 271 125 260 103 q 294 201 282 147 l 392 644 q 399 699 399 678 q 391 728 399 719 q 369 736 383 736 q 339 731 355 736 q 300 714 323 726 q 208 664 277 702 l 174 734 l 564 937 l 656 937 q 614 756 637 865 l 494 212 z "},"2":{"ha":795,"x_min":0,"x_max":753,"o":"m 458 166 q 512 171 493 166 q 545 190 532 176 q 575 243 559 204 l 658 243 l 597 0 l 0 0 l 9 45 q 108 180 45 106 q 283 361 170 254 q 438 519 386 458 q 516 637 490 581 q 543 755 543 694 q 517 834 543 805 q 448 863 492 863 q 353 825 393 863 q 284 711 313 788 l 161 711 l 199 873 q 372 922 302 909 q 513 936 442 936 q 649 913 594 936 q 728 852 703 890 q 753 764 753 813 q 739 679 753 719 q 689 594 724 638 q 596 497 655 551 q 433 357 538 443 q 326 263 383 316 q 235 173 269 210 l 233 166 l 458 166 z "},"3":{"ha":795,"x_min":20,"x_max":759,"o":"m 171 711 l 210 873 q 376 921 300 905 q 528 937 452 937 q 648 918 596 937 q 729 860 699 899 q 759 761 759 820 q 740 666 759 708 q 686 591 720 625 q 606 533 652 558 q 507 488 560 507 l 505 479 q 627 408 583 460 q 672 286 672 356 q 649 170 672 224 q 575 72 625 116 q 456 9 526 28 q 287 -11 387 -11 q 145 4 219 -11 q 20 42 71 20 l 56 207 l 165 207 q 289 65 172 65 q 384 97 342 65 q 447 182 425 128 q 469 292 469 236 q 428 398 469 364 q 309 432 388 432 l 248 432 l 265 509 q 416 542 348 511 q 522 629 484 572 q 561 765 561 686 q 536 837 561 812 q 465 863 511 863 q 420 857 444 863 q 375 834 397 851 q 332 788 353 817 q 294 711 312 758 l 171 711 z "},"4":{"ha":795,"x_min":26,"x_max":775,"o":"m 266 45 q 320 79 298 51 q 355 168 342 107 l 377 269 l 26 269 l 42 342 l 554 930 l 714 930 l 588 354 l 606 354 q 652 358 638 354 q 677 375 665 363 q 704 418 689 388 l 775 418 l 736 269 l 568 269 l 550 183 q 541 111 541 142 q 553 63 541 77 q 597 45 566 49 l 588 0 l 256 0 l 266 45 m 174 354 l 395 354 l 451 601 q 479 715 467 667 l 472 715 l 176 366 l 174 354 z "},"5":{"ha":795,"x_min":44,"x_max":793,"o":"m 44 42 l 79 208 l 189 208 q 222 102 190 138 q 315 65 255 65 q 415 99 374 65 q 478 194 456 133 q 500 309 500 254 q 468 411 500 376 q 372 446 436 446 q 308 440 338 446 q 243 423 277 435 l 186 466 l 287 926 l 644 926 q 680 929 669 926 q 700 941 692 933 q 722 970 708 948 l 793 970 l 733 754 l 361 754 l 307 511 q 467 534 376 534 q 590 509 537 534 q 672 438 643 485 q 701 325 701 391 q 694 254 701 285 q 667 168 685 206 q 614 92 646 124 q 541 37 583 59 q 436 0 492 12 q 315 -11 379 -11 q 170 4 245 -11 q 44 42 94 18 z "},"6":{"ha":795,"x_min":92,"x_max":749,"o":"m 749 890 l 740 848 q 561 798 639 840 q 425 688 483 757 q 326 520 367 618 l 332 517 q 428 552 387 543 q 517 561 469 561 q 633 532 585 561 q 706 451 682 503 q 730 334 730 399 q 689 162 730 243 q 565 35 648 80 q 366 -11 482 -11 q 216 24 277 -11 q 123 125 155 58 q 92 284 92 191 q 115 461 92 370 q 194 637 139 551 q 332 788 249 722 q 515 891 414 853 q 724 937 616 930 l 749 890 m 535 336 q 441 469 535 469 q 387 463 412 469 q 340 441 363 456 q 311 414 323 431 q 290 375 298 398 q 273 301 280 346 q 267 216 267 256 q 291 102 267 140 q 368 65 315 65 q 454 98 417 65 q 513 197 492 132 q 535 336 535 262 z "},"7":{"ha":795,"x_min":150,"x_max":845,"o":"m 835 881 l 294 -2 l 151 -2 l 161 45 l 629 734 l 631 745 l 359 745 q 302 738 323 745 q 266 712 281 730 q 231 644 251 693 l 150 644 l 220 926 l 845 926 l 835 881 z "},"8":{"ha":795,"x_min":45,"x_max":806,"o":"m 609 465 q 691 395 664 437 q 718 292 718 353 q 672 132 718 201 q 542 26 627 62 q 345 -11 458 -11 q 185 14 252 -11 q 81 89 117 39 q 45 207 45 138 q 96 371 45 302 q 250 484 146 439 l 250 493 q 182 573 205 528 q 158 669 158 617 q 204 815 158 755 q 331 906 250 876 q 516 937 412 937 q 681 910 616 937 q 776 838 747 883 q 806 736 806 793 q 758 583 806 647 q 609 474 709 519 l 609 465 m 344 633 q 352 574 344 600 q 383 533 361 549 q 443 517 405 517 q 532 546 493 517 q 594 629 572 575 q 616 748 616 682 q 592 833 616 806 q 517 861 567 861 q 436 839 471 861 q 381 782 402 818 q 352 704 361 746 q 344 633 344 663 m 238 180 q 265 93 238 121 q 347 66 292 66 q 404 75 380 66 q 450 104 428 84 q 489 158 471 125 q 516 235 506 191 q 526 329 526 279 q 499 414 526 385 q 424 443 473 443 q 326 406 368 443 q 261 303 284 369 q 238 180 238 237 z "},"9":{"ha":795,"x_min":125,"x_max":764,"o":"m 132 35 l 140 77 q 374 178 274 97 q 530 405 473 259 l 524 408 q 429 373 469 382 q 345 364 389 364 q 227 394 277 364 q 151 474 177 423 q 125 591 125 526 q 173 768 125 688 q 303 892 220 848 q 493 936 387 936 q 641 900 580 936 q 733 799 702 865 q 764 642 764 733 q 741 468 764 561 q 666 291 718 376 q 536 141 614 205 q 361 37 458 77 q 156 -12 263 -2 l 132 35 m 320 587 q 415 456 320 456 q 460 460 439 456 q 499 474 481 465 q 528 493 516 484 q 549 516 540 502 q 565 548 559 530 q 576 593 571 565 q 584 650 581 622 q 587 711 587 679 q 563 824 587 788 q 488 860 539 860 q 402 825 439 860 q 342 727 364 791 q 320 587 320 663 z "},"\u0000":{"ha":0,"x_min":0,"x_max":0,"o":""},"\r":{"ha":306,"x_min":0,"x_max":0,"o":""}," ":{"ha":306,"x_min":0,"x_max":0,"o":""},"A":{"ha":853,"x_min":-68,"x_max":784,"o":"m 509 287 l 243 287 l 234 270 q 207 221 218 243 q 187 176 196 199 q 175 135 178 153 q 171 101 171 117 q 229 45 171 52 l 218 0 l -68 0 l -58 45 q -16 63 -34 50 q 18 98 2 76 q 64 174 35 120 l 486 930 l 681 930 l 710 205 q 715 140 711 164 q 724 99 718 116 q 737 71 729 82 q 757 53 745 59 q 784 45 769 47 l 774 0 l 423 0 l 433 45 q 480 60 463 47 q 505 96 498 73 q 511 159 511 119 q 510 220 511 189 l 509 287 m 286 366 l 507 366 l 504 529 q 503 673 503 616 q 503 762 503 716 l 495 762 l 286 366 z "},"B":{"ha":868,"x_min":4,"x_max":892,"o":"m 580 926 q 734 913 675 926 q 828 876 793 900 q 876 820 859 854 q 892 738 892 785 q 869 626 892 673 q 799 543 846 578 q 673 477 751 507 l 672 469 q 771 397 736 444 q 806 291 806 351 q 793 204 806 245 q 755 131 780 163 q 691 72 731 100 q 610 30 652 45 q 510 8 568 16 q 372 0 452 0 l 4 0 l 14 45 q 57 67 42 53 q 83 107 73 81 q 105 183 94 134 l 229 743 q 237 822 237 783 q 224 864 237 850 q 181 881 211 877 l 191 926 l 580 926 m 486 520 q 590 547 546 520 q 659 621 635 574 q 682 730 682 669 q 646 818 682 789 q 532 846 609 846 q 452 843 484 846 l 380 520 l 486 520 m 285 81 q 330 80 299 80 q 372 79 361 79 q 478 97 437 79 q 546 146 520 115 q 587 222 572 177 q 602 313 602 267 q 566 409 602 376 q 457 441 530 441 l 363 441 l 285 81 z "},"C":{"ha":766,"x_min":82,"x_max":842,"o":"m 842 903 l 798 705 l 709 705 q 697 796 707 766 q 665 842 687 827 q 606 857 644 857 q 545 844 576 857 q 481 802 513 831 q 413 717 446 769 q 355 597 381 665 q 318 473 335 543 q 293 345 300 403 q 286 241 286 286 q 297 146 286 184 q 333 89 307 109 q 406 68 359 68 q 493 86 456 68 q 555 136 529 103 q 606 225 581 168 l 695 225 l 652 25 q 521 -2 586 6 q 381 -11 456 -11 q 159 68 237 -11 q 82 296 82 147 q 90 399 82 340 q 132 572 104 490 q 214 735 165 666 q 326 849 264 804 q 459 915 387 893 q 614 937 532 937 q 732 928 676 937 q 842 903 788 920 z "},"D":{"ha":943,"x_min":4,"x_max":916,"o":"m 4 0 l 14 45 q 57 67 42 53 q 83 107 73 81 q 105 183 94 134 l 229 743 q 237 822 237 783 q 224 864 237 850 q 181 881 211 877 l 191 926 l 465 926 q 623 917 562 926 q 730 888 684 908 q 795 852 760 875 q 858 791 829 830 q 901 699 886 753 q 916 580 916 646 q 895 407 916 490 q 835 254 875 324 q 740 133 795 184 q 629 55 685 83 q 504 13 574 26 q 338 0 434 0 l 4 0 m 285 83 q 335 80 316 80 q 486 115 422 80 q 598 220 549 149 q 676 393 648 291 q 704 598 704 495 q 688 715 704 668 q 645 792 673 763 q 582 834 618 821 q 505 846 545 846 q 452 845 471 846 l 285 83 z "},"E":{"ha":780,"x_min":4,"x_max":849,"o":"m 849 926 l 801 707 l 714 707 q 702 798 711 772 q 675 835 693 823 q 623 846 656 846 l 453 846 l 381 521 l 475 521 q 521 530 503 521 q 556 559 540 538 q 587 616 572 580 l 662 616 l 597 341 l 527 341 q 522 401 527 380 q 505 432 517 422 q 460 441 492 441 l 364 441 l 284 79 l 437 79 q 483 83 467 79 q 514 96 500 87 q 546 124 528 105 q 582 173 564 144 q 619 244 600 203 l 711 244 l 649 0 l 4 0 l 14 45 q 57 67 42 53 q 83 107 73 81 q 105 183 94 134 l 229 743 q 237 822 237 783 q 224 864 237 850 q 181 881 211 877 l 191 926 l 849 926 z "},"F":{"ha":745,"x_min":4,"x_max":832,"o":"m 307 183 q 302 155 303 165 q 299 133 300 145 q 298 104 298 121 q 314 60 298 73 q 364 45 330 47 l 355 0 l 4 0 l 14 45 q 57 67 42 53 q 83 107 73 81 q 105 183 94 134 l 229 743 q 237 822 237 783 q 224 864 237 850 q 181 881 211 877 l 191 926 l 832 926 l 784 707 l 697 707 q 685 798 694 772 q 658 835 676 823 q 606 846 640 846 l 453 846 l 378 507 l 469 507 q 514 518 495 507 q 549 551 533 528 q 584 616 566 574 l 659 616 l 587 314 l 517 314 q 512 385 517 361 q 494 418 507 408 q 454 428 481 428 l 361 428 l 307 183 z "},"G":{"ha":860,"x_min":83,"x_max":868,"o":"m 547 252 q 554 293 553 277 q 555 323 555 310 q 543 365 555 351 q 498 383 530 379 l 508 428 l 839 428 l 829 383 q 790 362 803 374 q 767 325 777 349 q 745 245 757 301 l 692 11 l 599 -11 l 563 37 q 378 -11 474 -11 q 159 69 235 -11 q 83 300 83 149 q 103 468 83 374 q 159 638 123 562 q 243 771 195 714 q 350 864 292 827 q 472 919 408 901 q 610 937 536 937 q 868 898 754 937 l 827 704 l 738 704 q 725 796 738 763 q 687 843 713 829 q 618 857 661 857 q 538 840 575 857 q 456 775 494 819 q 376 643 412 724 q 308 436 336 555 q 283 240 283 332 q 312 112 283 155 q 397 68 340 68 q 454 80 431 68 q 495 112 478 92 q 522 157 511 132 q 538 209 532 182 l 547 252 z "},"H":{"ha":960,"x_min":4,"x_max":1021,"o":"m 797 183 q 791 155 793 165 q 789 133 790 145 q 788 104 788 121 q 801 62 788 75 q 844 45 814 49 l 835 0 l 494 0 l 503 45 q 547 67 532 53 q 573 107 562 81 q 595 183 584 134 l 652 442 l 364 442 l 307 183 q 302 155 303 165 q 299 133 300 145 q 298 104 298 121 q 312 62 298 75 q 355 45 325 49 l 345 0 l 4 0 l 14 45 q 57 67 42 53 q 83 107 73 81 q 105 183 94 134 l 229 743 q 237 822 237 783 q 224 864 237 850 q 181 881 211 877 l 191 926 l 532 926 l 522 881 q 478 859 494 873 q 452 818 463 844 q 431 743 441 792 l 383 528 l 671 528 l 718 743 q 727 822 727 783 q 714 864 727 850 q 671 881 701 877 l 680 926 l 1021 926 l 1012 881 q 968 859 983 873 q 942 818 953 844 q 920 743 931 792 l 797 183 z "},"I":{"ha":474,"x_min":4,"x_max":532,"o":"m 345 0 l 4 0 l 14 45 q 57 67 42 53 q 83 107 73 81 q 105 183 94 134 l 229 743 q 237 822 237 783 q 224 864 237 850 q 181 881 211 877 l 191 926 l 532 926 l 522 881 q 478 859 494 873 q 452 818 463 844 q 431 743 441 792 l 307 183 q 302 155 303 165 q 299 133 300 145 q 298 104 298 121 q 312 62 298 75 q 355 45 325 49 l 345 0 z "},"J":{"ha":463,"x_min":-146,"x_max":526,"o":"m 274 58 q 153 -183 238 -104 q -72 -262 68 -262 q -146 -252 -109 -262 l -126 -172 q -77 -178 -102 -178 q -14 -159 -37 -178 q 27 -99 10 -140 q 64 29 44 -58 l 222 743 q 231 822 231 782 q 218 864 231 850 q 175 881 205 877 l 184 926 l 526 926 l 516 881 q 472 859 488 873 q 446 818 457 844 q 425 743 435 792 l 274 58 z "},"K":{"ha":909,"x_min":4,"x_max":1021,"o":"m 380 513 l 390 513 q 439 522 416 513 q 492 555 462 531 q 591 647 522 579 q 680 742 651 707 q 719 802 709 777 q 726 836 726 821 q 715 869 726 860 q 680 881 705 878 l 690 926 l 1021 926 l 1010 880 q 971 867 988 875 q 929 838 954 859 q 853 768 903 817 l 608 533 l 751 180 q 781 113 768 138 q 806 74 794 88 q 831 54 819 60 q 860 44 844 47 l 851 0 l 512 0 l 522 45 q 548 54 541 47 q 555 79 555 62 q 549 120 555 95 q 519 203 542 146 l 458 363 q 434 412 445 397 q 410 433 422 427 q 374 439 397 439 l 363 439 l 307 183 q 302 155 303 165 q 299 133 300 145 q 298 104 298 121 q 312 62 298 75 q 355 45 325 49 l 345 0 l 4 0 l 14 45 q 57 67 42 53 q 83 107 73 81 q 105 183 94 134 l 229 743 q 237 822 237 783 q 224 864 237 850 q 181 881 211 877 l 191 926 l 532 926 l 522 881 q 478 859 494 873 q 452 818 463 844 q 431 743 441 792 l 380 513 z "},"L":{"ha":738,"x_min":4,"x_max":694,"o":"m 412 81 q 464 86 446 81 q 497 103 482 92 q 530 135 512 115 q 566 188 548 155 q 602 269 583 220 l 694 269 l 625 0 l 4 0 l 14 45 q 57 67 42 53 q 83 107 73 81 q 105 183 94 134 l 229 743 q 237 822 237 783 q 224 864 237 850 q 181 881 211 877 l 191 926 l 532 926 l 522 881 q 478 859 494 873 q 452 818 463 844 q 431 743 441 792 l 284 81 l 412 81 z "},"M":{"ha":1137,"x_min":1,"x_max":1194,"o":"m 504 926 l 557 359 l 878 926 l 1194 926 l 1184 881 q 1140 859 1156 873 q 1114 818 1125 844 q 1093 743 1103 792 l 969 183 q 964 155 965 165 q 961 133 962 145 q 960 104 960 121 q 974 62 960 75 q 1017 45 987 49 l 1007 0 l 666 0 l 675 45 q 719 67 704 53 q 745 107 734 81 q 767 183 756 134 l 829 468 q 859 591 840 514 q 903 752 878 668 l 889 752 q 821 631 857 694 l 515 102 l 406 102 l 361 510 q 348 645 352 587 q 340 759 343 703 l 330 759 q 305 616 320 696 q 278 481 290 536 l 212 183 q 207 155 208 165 q 204 133 205 145 q 203 104 203 121 q 217 62 203 75 q 260 45 230 49 l 250 0 l 1 0 l 11 45 q 55 67 39 53 q 81 107 70 81 q 102 183 92 134 l 226 743 q 235 822 235 783 q 221 864 235 850 q 178 881 208 877 l 188 926 l 504 926 z "},"N":{"ha":919,"x_min":3,"x_max":983,"o":"m 190 926 l 448 926 l 578 542 q 663 265 632 385 l 672 265 q 724 525 692 382 l 771 743 q 780 822 780 783 q 767 864 780 850 q 724 881 753 877 l 733 926 l 983 926 l 973 881 q 929 859 945 873 q 903 818 914 844 q 882 743 892 792 l 718 0 l 564 0 l 401 474 q 367 578 382 530 q 331 701 352 627 l 321 702 q 300 577 315 656 q 264 404 285 497 l 215 183 q 210 155 211 165 q 207 133 208 145 q 206 104 206 121 q 219 62 206 75 q 262 45 233 49 l 253 0 l 3 0 l 13 45 q 57 67 41 53 q 83 107 72 81 q 104 183 94 134 l 228 743 q 237 822 237 783 q 223 864 237 850 q 180 881 210 877 l 190 926 z "},"O":{"ha":938,"x_min":82,"x_max":916,"o":"m 394 -11 q 161 70 239 -11 q 82 309 82 151 q 93 431 82 362 q 130 577 104 500 q 201 723 155 654 q 308 840 246 791 q 444 912 369 888 q 602 937 519 937 q 837 856 757 937 q 916 621 916 775 q 902 476 916 556 q 857 316 888 397 q 779 174 825 236 q 673 70 733 111 q 543 8 612 28 q 394 -11 473 -11 m 286 245 q 313 110 286 152 q 401 68 340 68 q 464 83 434 68 q 535 140 501 102 q 612 259 577 186 q 671 418 648 332 q 704 581 690 488 q 712 682 712 632 q 685 815 712 773 q 595 857 658 857 q 481 805 536 857 q 380 656 425 752 q 311 442 335 561 q 286 245 286 323 z "},"P":{"ha":828,"x_min":4,"x_max":859,"o":"m 529 926 q 637 922 600 926 q 730 901 688 917 q 800 859 772 885 q 844 796 829 833 q 859 711 859 759 q 830 575 859 635 q 751 472 802 515 q 620 407 699 429 q 441 385 540 385 l 422 385 q 353 388 380 385 l 307 183 q 300 145 302 161 q 298 104 298 130 q 314 60 298 73 q 364 45 330 47 l 355 0 l 4 0 l 14 45 q 57 67 42 53 q 83 107 73 81 q 105 183 94 134 l 229 743 q 237 822 237 783 q 224 864 237 850 q 181 881 211 877 l 191 926 l 529 926 m 405 463 q 517 479 473 463 q 591 528 562 494 q 636 608 621 561 q 651 710 651 655 q 619 812 651 779 q 519 846 587 846 q 453 845 481 846 l 370 463 l 405 463 z "},"Q":{"ha":938,"x_min":82,"x_max":916,"o":"m 534 6 l 549 -34 q 577 -96 564 -75 q 607 -127 590 -117 q 649 -138 623 -138 q 700 -123 675 -138 q 756 -77 725 -109 l 808 -130 q 686 -229 741 -197 q 567 -260 631 -260 q 444 -218 494 -260 q 365 -89 393 -177 l 338 -8 q 148 85 214 5 q 82 309 82 165 q 93 431 82 362 q 130 577 104 500 q 201 723 155 654 q 308 840 246 791 q 444 912 369 888 q 602 937 519 937 q 837 856 757 937 q 916 621 916 775 q 901 472 916 555 q 855 311 886 389 q 775 171 823 234 q 666 65 728 109 q 534 6 605 22 m 286 245 q 313 110 286 152 q 401 68 340 68 q 464 83 434 68 q 535 140 501 102 q 612 259 577 186 q 671 418 648 332 q 704 581 690 488 q 712 682 712 632 q 685 815 712 773 q 595 857 658 857 q 481 805 536 857 q 380 656 425 752 q 311 442 335 561 q 286 245 286 323 z "},"R":{"ha":878,"x_min":4,"x_max":859,"o":"m 615 424 q 674 360 656 391 q 706 270 693 329 l 726 175 q 746 101 736 123 q 773 65 756 79 q 819 45 789 52 l 809 0 l 567 0 q 528 151 545 64 l 506 264 q 484 344 496 315 q 451 386 471 373 q 398 399 431 399 l 356 399 l 307 183 q 300 144 302 161 q 298 104 298 128 q 314 60 298 73 q 364 45 330 47 l 355 0 l 4 0 l 14 45 q 57 67 42 53 q 83 107 73 81 q 105 183 94 134 l 229 743 q 237 822 237 783 q 224 864 237 850 q 181 881 211 877 l 191 926 l 529 926 q 637 922 597 926 q 713 907 677 918 q 775 879 749 896 q 820 840 802 863 q 849 786 839 817 q 859 718 859 755 q 798 544 859 615 q 614 430 738 473 l 615 424 m 416 478 q 527 494 484 478 q 600 542 571 509 q 645 618 629 574 q 661 715 661 661 q 627 814 661 781 q 522 846 594 846 q 453 845 471 846 l 374 478 l 416 478 z "},"S":{"ha":696,"x_min":-5,"x_max":752,"o":"m 125 226 q 144 132 127 166 q 190 83 160 98 q 269 68 220 68 q 385 111 342 68 q 428 229 428 153 q 414 299 428 269 q 373 357 401 329 q 275 437 345 386 q 178 542 211 484 q 145 663 145 600 q 168 768 145 716 q 236 858 191 819 q 350 916 281 896 q 510 937 418 937 q 635 929 578 937 q 752 904 692 922 l 711 711 l 622 711 q 592 822 621 787 q 498 857 563 857 q 385 819 427 857 q 344 713 344 781 q 377 624 344 666 q 476 533 410 581 q 569 453 536 488 q 618 377 602 417 q 634 286 634 337 q 601 154 634 216 q 515 57 569 96 q 416 8 467 23 q 256 -11 353 -11 q 126 0 194 -11 q -5 31 58 11 l 37 226 l 125 226 z "},"T":{"ha":837,"x_min":126,"x_max":924,"o":"m 924 926 l 871 680 l 784 680 q 775 786 783 755 q 749 831 767 816 q 699 846 731 846 l 638 846 l 492 183 q 487 155 488 165 q 485 133 486 145 q 484 104 484 121 q 499 60 484 73 q 549 45 515 47 l 540 0 l 180 0 l 189 45 q 237 62 219 49 q 266 103 254 76 q 290 183 278 130 l 436 846 l 382 846 q 339 842 355 846 q 310 828 322 837 q 283 805 298 820 q 252 763 269 789 q 215 694 235 737 l 126 694 l 177 926 l 924 926 z "},"U":{"ha":908,"x_min":119,"x_max":979,"o":"m 787 323 q 734 166 767 231 q 655 63 701 101 q 548 7 609 24 q 399 -11 487 -11 q 290 4 341 -11 q 201 49 239 18 q 141 125 163 79 q 119 234 119 171 q 123 307 119 267 q 146 430 128 347 l 217 743 q 226 822 226 782 q 213 864 226 850 q 170 881 199 877 l 179 926 l 520 926 l 511 881 q 467 859 482 873 q 441 818 452 844 q 419 743 430 792 l 328 327 q 314 251 317 281 q 311 193 311 221 q 341 100 311 132 q 429 68 371 68 q 526 94 487 68 q 588 165 564 119 q 627 285 611 212 l 728 743 q 736 788 734 769 q 737 822 737 806 q 724 864 737 850 q 681 881 711 877 l 690 926 l 979 926 l 970 881 q 925 857 940 872 q 899 816 909 842 q 878 743 888 789 l 787 323 z "},"V":{"ha":828,"x_min":130,"x_max":957,"o":"m 639 629 q 692 733 677 702 q 711 786 706 765 q 715 825 715 806 q 658 881 715 873 l 668 926 l 957 926 l 947 881 q 911 867 926 877 q 881 841 895 857 q 854 803 867 825 q 825 752 841 781 l 404 -5 l 233 -5 l 204 720 q 199 786 203 762 q 191 827 196 810 q 177 855 185 844 q 157 873 170 867 q 130 881 145 879 l 140 926 l 491 926 l 481 881 q 434 866 451 879 q 411 831 418 853 q 404 766 404 810 l 404 737 q 404 705 404 722 l 410 372 q 412 218 412 279 l 420 218 l 639 629 z "},"W":{"ha":1291,"x_min":133,"x_max":1417,"o":"m 1118 661 q 1162 755 1148 719 q 1177 817 1177 792 q 1172 849 1177 837 q 1154 869 1167 861 q 1119 881 1141 878 l 1129 926 l 1417 926 l 1407 881 q 1368 865 1385 877 q 1335 832 1350 852 q 1304 786 1319 812 q 1264 713 1289 760 l 876 -5 l 713 -5 l 711 432 l 711 547 q 712 640 711 591 l 703 640 q 665 559 681 591 l 382 -5 l 219 -5 l 205 717 q 196 814 204 781 q 173 862 187 848 q 133 881 159 877 l 143 926 l 490 926 l 480 881 q 447 872 460 878 q 424 853 433 865 q 411 821 414 840 q 406 785 407 801 l 406 705 l 403 450 q 399 315 402 394 l 396 234 l 405 234 q 438 306 420 269 q 504 438 456 343 l 749 926 l 897 926 l 898 481 l 899 421 q 894 234 899 326 l 903 234 q 1017 464 935 300 l 1118 661 z "},"X":{"ha":814,"x_min":-54,"x_max":911,"o":"m 493 926 l 483 881 q 440 863 454 878 q 427 823 427 848 q 435 775 427 803 q 458 707 442 747 l 500 595 l 591 707 q 652 789 635 762 q 669 835 669 817 q 657 868 669 858 q 619 881 646 878 l 629 926 l 911 926 l 901 880 q 876 872 889 878 q 847 851 863 865 q 804 808 831 837 q 731 726 777 779 l 536 500 l 656 187 q 694 101 679 128 q 725 62 710 74 q 762 45 740 50 l 752 0 l 406 0 l 416 45 q 456 60 442 47 q 469 94 469 72 q 463 143 469 118 q 446 199 457 168 l 385 358 l 245 191 q 201 132 214 153 q 188 89 188 110 q 238 45 188 48 l 229 0 l -54 0 l -45 45 q -12 59 -28 49 q 30 94 5 69 q 115 187 55 119 l 349 452 l 245 726 q 225 774 237 745 q 202 824 213 803 q 181 857 191 846 q 161 873 171 867 q 138 881 152 878 l 148 926 l 493 926 z "},"Y":{"ha":801,"x_min":125,"x_max":926,"o":"m 462 182 q 455 145 457 163 q 453 104 453 128 q 469 60 453 73 q 519 45 485 47 l 509 0 l 149 0 l 159 45 q 206 62 189 49 q 236 103 224 76 q 260 183 248 130 l 300 367 l 212 744 q 199 791 205 770 q 185 831 193 812 q 168 860 176 850 q 150 874 159 870 q 125 881 142 879 l 136 926 l 467 926 l 457 881 q 404 819 404 875 q 418 722 404 783 l 471 474 l 627 699 q 675 781 664 753 q 687 838 687 809 q 676 867 687 857 q 638 881 665 878 l 648 926 l 926 926 l 916 881 q 891 871 903 878 q 866 851 880 865 q 825 804 851 838 q 764 722 798 771 l 501 360 l 462 182 z "},"Z":{"ha":755,"x_min":-18,"x_max":833,"o":"m 254 81 l 426 81 q 463 84 448 81 q 488 93 477 87 q 510 110 498 99 q 538 144 522 121 q 568 192 555 167 q 594 252 581 217 l 683 252 l 629 0 l -18 0 l -9 45 l 560 845 l 395 845 q 351 841 366 845 q 324 828 336 837 q 295 802 311 820 q 259 749 279 783 q 228 688 239 715 l 139 688 l 191 926 l 833 926 l 823 881 l 254 81 z "},"À":{"ha":853,"x_min":-68,"x_max":784,"o":"m 509 287 l 243 287 l 234 270 q 207 221 218 243 q 187 176 196 199 q 175 135 178 153 q 171 101 171 117 q 229 45 171 52 l 218 0 l -68 0 l -58 45 q -16 63 -34 50 q 18 98 2 76 q 64 174 35 120 l 486 930 l 681 930 l 710 205 q 715 140 711 164 q 724 99 718 116 q 737 71 729 82 q 757 53 745 59 q 784 45 769 47 l 774 0 l 423 0 l 433 45 q 480 60 463 47 q 505 96 498 73 q 511 159 511 119 q 510 220 511 189 l 509 287 m 286 366 l 507 366 l 504 529 q 503 673 503 616 q 503 762 503 716 l 495 762 l 286 366 m 595 1219 l 722 1039 l 675 996 l 437 1175 l 447 1219 l 595 1219 z "},"Á":{"ha":853,"x_min":-68,"x_max":848,"o":"m 509 287 l 243 287 l 234 270 q 207 221 218 243 q 187 176 196 199 q 175 135 178 153 q 171 101 171 117 q 229 45 171 52 l 218 0 l -68 0 l -58 45 q -16 63 -34 50 q 18 98 2 76 q 64 174 35 120 l 486 930 l 681 930 l 710 205 q 715 140 711 164 q 724 99 718 116 q 737 71 729 82 q 757 53 745 59 q 784 45 769 47 l 774 0 l 423 0 l 433 45 q 480 60 463 47 q 505 96 498 73 q 511 159 511 119 q 510 220 511 189 l 509 287 m 286 366 l 507 366 l 504 529 q 503 673 503 616 q 503 762 503 716 l 495 762 l 286 366 m 848 1219 l 838 1175 l 530 996 l 490 1048 l 673 1219 l 848 1219 z "},"Â":{"ha":853,"x_min":-68,"x_max":799,"o":"m 509 287 l 243 287 l 234 270 q 207 221 218 243 q 187 176 196 199 q 175 135 178 153 q 171 101 171 117 q 229 45 171 52 l 218 0 l -68 0 l -58 45 q -16 63 -34 50 q 18 98 2 76 q 64 174 35 120 l 486 930 l 681 930 l 710 205 q 715 140 711 164 q 724 99 718 116 q 737 71 729 82 q 757 53 745 59 q 784 45 769 47 l 774 0 l 423 0 l 433 45 q 480 60 463 47 q 505 96 498 73 q 511 159 511 119 q 510 220 511 189 l 509 287 m 286 366 l 507 366 l 504 529 q 503 673 503 616 q 503 762 503 716 l 495 762 l 286 366 m 695 1211 l 799 1033 l 750 995 l 626 1108 l 619 1108 l 435 995 l 397 1042 l 583 1211 l 695 1211 z "},"Ã":{"ha":853,"x_min":-68,"x_max":853,"o":"m 509 287 l 243 287 l 234 270 q 207 221 218 243 q 187 176 196 199 q 175 135 178 153 q 171 101 171 117 q 229 45 171 52 l 218 0 l -68 0 l -58 45 q -16 63 -34 50 q 18 98 2 76 q 64 174 35 120 l 486 930 l 681 930 l 710 205 q 715 140 711 164 q 724 99 718 116 q 737 71 729 82 q 757 53 745 59 q 784 45 769 47 l 774 0 l 423 0 l 433 45 q 480 60 463 47 q 505 96 498 73 q 511 159 511 119 q 510 220 511 189 l 509 287 m 286 366 l 507 366 l 504 529 q 503 673 503 616 q 503 762 503 716 l 495 762 l 286 366 m 798 1186 l 853 1143 q 787 1056 816 1087 q 735 1013 759 1025 q 683 1000 711 1000 q 642 1008 659 1000 q 593 1041 624 1016 l 573 1057 q 556 1067 564 1063 q 540 1074 549 1072 q 521 1076 532 1076 q 489 1069 503 1076 q 460 1047 475 1063 q 423 999 444 1031 l 368 1042 q 434 1130 409 1102 q 484 1172 460 1158 q 538 1185 508 1185 q 567 1181 554 1185 q 591 1171 579 1178 q 625 1147 604 1164 q 657 1122 647 1128 q 676 1113 667 1116 q 702 1109 686 1109 q 748 1126 727 1109 q 798 1186 770 1143 z "},"Ä":{"ha":853,"x_min":-68,"x_max":821,"o":"m 509 287 l 243 287 l 234 270 q 207 221 218 243 q 187 176 196 199 q 175 135 178 153 q 171 101 171 117 q 229 45 171 52 l 218 0 l -68 0 l -58 45 q -16 63 -34 50 q 18 98 2 76 q 64 174 35 120 l 486 930 l 681 930 l 710 205 q 715 140 711 164 q 724 99 718 116 q 737 71 729 82 q 757 53 745 59 q 784 45 769 47 l 774 0 l 423 0 l 433 45 q 480 60 463 47 q 505 96 498 73 q 511 159 511 119 q 510 220 511 189 l 509 287 m 286 366 l 507 366 l 504 529 q 503 673 503 616 q 503 762 503 716 l 495 762 l 286 366 m 569 1167 l 536 1018 l 399 1018 l 431 1167 l 569 1167 m 821 1167 l 788 1018 l 650 1018 l 683 1167 l 821 1167 z "},"Ā":{"ha":853,"x_min":-68,"x_max":812,"o":"m 509 287 l 243 287 l 234 270 q 207 221 218 243 q 187 176 196 199 q 175 135 178 153 q 171 101 171 117 q 229 45 171 52 l 218 0 l -68 0 l -58 45 q -16 63 -34 50 q 18 98 2 76 q 64 174 35 120 l 486 930 l 681 930 l 710 205 q 715 140 711 164 q 724 99 718 116 q 737 71 729 82 q 757 53 745 59 q 784 45 769 47 l 774 0 l 423 0 l 433 45 q 480 60 463 47 q 505 96 498 73 q 511 159 511 119 q 510 220 511 189 l 509 287 m 286 366 l 507 366 l 504 529 q 503 673 503 616 q 503 762 503 716 l 495 762 l 286 366 m 789 1038 l 406 1038 l 429 1142 l 812 1142 l 789 1038 z "},"Ă":{"ha":853,"x_min":-68,"x_max":846,"o":"m 509 287 l 243 287 l 234 270 q 207 221 218 243 q 187 176 196 199 q 175 135 178 153 q 171 101 171 117 q 229 45 171 52 l 218 0 l -68 0 l -58 45 q -16 63 -34 50 q 18 98 2 76 q 64 174 35 120 l 486 930 l 681 930 l 710 205 q 715 140 711 164 q 724 99 718 116 q 737 71 729 82 q 757 53 745 59 q 784 45 769 47 l 774 0 l 423 0 l 433 45 q 480 60 463 47 q 505 96 498 73 q 511 159 511 119 q 510 220 511 189 l 509 287 m 286 366 l 507 366 l 504 529 q 503 673 503 616 q 503 762 503 716 l 495 762 l 286 366 m 846 1181 q 737 1048 800 1094 q 585 1003 674 1003 q 418 1206 423 1003 l 485 1218 q 522 1138 494 1165 q 599 1112 549 1112 q 704 1135 662 1112 q 787 1214 745 1159 l 846 1181 z "},"Å":{"ha":853,"x_min":-68,"x_max":784,"o":"m 509 287 l 243 287 l 234 270 q 207 221 218 243 q 187 176 196 199 q 175 135 178 153 q 171 101 171 117 q 229 45 171 52 l 218 0 l -68 0 l -58 45 q -16 63 -34 50 q 18 98 2 76 q 64 174 35 120 l 486 930 l 681 930 l 710 205 q 715 140 711 164 q 724 99 718 116 q 737 71 729 82 q 757 53 745 59 q 784 45 769 47 l 774 0 l 423 0 l 433 45 q 480 60 463 47 q 505 96 498 73 q 511 159 511 119 q 510 220 511 189 l 509 287 m 286 366 l 507 366 l 504 529 q 503 673 503 616 q 503 762 503 716 l 495 762 l 286 366 m 584 960 q 489 987 522 960 q 456 1065 456 1015 q 470 1136 456 1100 q 507 1196 483 1171 q 564 1233 531 1220 q 637 1245 597 1245 q 739 1217 703 1245 q 774 1139 774 1188 q 750 1047 774 1090 q 683 982 726 1004 q 584 960 640 960 m 535 1072 q 549 1028 535 1044 q 593 1012 564 1012 q 649 1031 625 1012 q 684 1079 673 1050 q 695 1133 695 1108 q 680 1178 695 1162 q 637 1193 665 1193 q 586 1177 609 1193 q 549 1132 562 1160 q 535 1072 535 1103 z "},"Ǻ":{"ha":853,"x_min":-68,"x_max":855,"o":"m 855 1320 l 845 1275 l 540 1141 l 508 1193 l 680 1320 l 855 1320 m 682 884 l 710 205 q 713 160 711 179 q 718 121 715 141 q 728 88 722 102 q 741 66 734 74 q 758 52 747 58 q 784 45 769 47 l 774 0 l 423 0 l 433 45 q 480 60 463 47 q 505 96 498 73 q 511 159 511 119 q 510 220 511 189 l 509 287 l 243 287 l 234 270 q 207 221 218 243 q 187 176 196 199 q 175 135 178 153 q 171 101 171 117 q 229 45 171 52 l 218 0 l -68 0 l -58 45 q -16 63 -34 50 q 18 98 2 76 q 64 174 35 120 l 457 880 q 431 951 431 907 q 445 1022 431 987 q 482 1082 458 1058 q 539 1119 506 1107 q 612 1132 572 1132 q 713 1103 678 1132 q 749 1026 749 1075 q 731 946 749 984 q 682 884 713 907 m 510 959 q 524 915 510 931 q 568 899 538 899 q 624 918 600 899 q 659 966 648 937 q 670 1020 670 995 q 655 1064 670 1049 q 612 1080 640 1080 q 561 1063 584 1080 q 524 1018 537 1047 q 510 959 510 989 m 286 366 l 507 366 l 504 529 q 503 673 503 616 q 503 762 503 716 l 495 762 l 286 366 z "},"Ą":{"ha":853,"x_min":-68,"x_max":784,"o":"m 619 0 l 423 0 l 433 45 q 480 60 463 47 q 505 96 498 73 q 511 159 511 119 q 510 220 511 189 l 509 287 l 243 287 l 234 270 q 207 221 218 243 q 187 176 196 199 q 175 135 178 153 q 171 101 171 117 q 229 45 171 52 l 218 0 l -68 0 l -58 45 q -16 63 -34 50 q 18 98 2 76 q 64 174 35 120 l 486 930 l 681 930 l 710 205 q 715 140 711 164 q 724 99 718 116 q 737 71 729 82 q 757 53 745 59 q 784 45 769 47 l 774 0 l 706 0 q 606 -98 636 -58 q 575 -171 575 -138 q 587 -206 575 -193 q 622 -218 600 -218 q 690 -197 657 -218 l 704 -257 q 647 -284 680 -273 q 583 -296 613 -296 q 492 -268 524 -296 q 461 -186 461 -239 q 466 -155 461 -170 q 480 -122 470 -140 q 509 -84 491 -104 q 555 -44 528 -64 q 619 0 582 -23 m 286 366 l 507 366 l 504 529 q 503 673 503 616 q 503 762 503 716 l 495 762 l 286 366 z "},"Æ":{"ha":1172,"x_min":-71,"x_max":1241,"o":"m 1193 707 l 1106 707 q 1094 798 1103 772 q 1067 835 1085 823 q 1015 846 1048 846 l 823 846 l 773 521 l 867 521 q 913 530 895 521 q 948 559 932 538 q 979 616 964 580 l 1054 616 l 989 341 l 919 341 q 914 401 919 380 q 897 432 909 422 q 852 441 884 441 l 761 441 l 705 79 l 829 79 q 875 83 859 79 q 906 96 892 87 q 938 124 920 105 q 974 173 956 144 q 1011 244 992 203 l 1103 244 l 1041 0 l 429 0 l 438 45 q 475 60 461 50 q 496 82 488 69 q 511 118 505 96 q 524 183 517 140 l 540 287 l 284 287 l 224 199 q 206 170 214 183 q 194 145 199 157 q 188 124 189 134 q 186 106 186 115 q 201 64 186 79 q 243 45 216 50 l 233 0 l -71 0 l -61 45 q -23 63 -43 47 q 22 106 -3 78 q 75 174 46 134 l 609 926 l 1241 926 l 1193 707 m 552 366 l 580 549 q 610 717 589 608 l 618 765 l 609 765 l 337 366 l 552 366 z "},"Ǽ":{"ha":1172,"x_min":-71,"x_max":1241,"o":"m 1193 707 l 1106 707 q 1094 798 1103 772 q 1067 835 1085 823 q 1015 846 1048 846 l 823 846 l 773 521 l 867 521 q 913 530 895 521 q 948 559 932 538 q 979 616 964 580 l 1054 616 l 989 341 l 919 341 q 914 401 919 380 q 897 432 909 422 q 852 441 884 441 l 761 441 l 705 79 l 829 79 q 875 83 859 79 q 906 96 892 87 q 938 124 920 105 q 974 173 956 144 q 1011 244 992 203 l 1103 244 l 1041 0 l 429 0 l 438 45 q 475 60 461 50 q 496 82 488 69 q 511 118 505 96 q 524 183 517 140 l 540 287 l 284 287 l 224 199 q 206 170 214 183 q 194 145 199 157 q 188 124 189 134 q 186 106 186 115 q 201 64 186 79 q 243 45 216 50 l 233 0 l -71 0 l -61 45 q -23 63 -43 47 q 22 106 -3 78 q 75 174 46 134 l 609 926 l 1241 926 l 1193 707 m 552 366 l 580 549 q 610 717 589 608 l 618 765 l 609 765 l 337 366 l 552 366 m 1141 1219 l 1131 1175 l 823 996 l 783 1048 l 965 1219 l 1141 1219 z "},"Ć":{"ha":766,"x_min":82,"x_max":842,"o":"m 842 903 l 798 705 l 709 705 q 697 796 707 766 q 665 842 687 827 q 606 857 644 857 q 545 844 576 857 q 481 802 513 831 q 413 717 446 769 q 355 597 381 665 q 318 473 335 543 q 293 345 300 403 q 286 241 286 286 q 297 146 286 184 q 333 89 307 109 q 406 68 359 68 q 493 86 456 68 q 555 136 529 103 q 606 225 581 168 l 695 225 l 652 25 q 521 -2 586 6 q 381 -11 456 -11 q 159 68 237 -11 q 82 296 82 147 q 90 399 82 340 q 132 572 104 490 q 214 735 165 666 q 326 849 264 804 q 459 915 387 893 q 614 937 532 937 q 732 928 676 937 q 842 903 788 920 m 822 1219 l 812 1175 l 504 996 l 464 1048 l 646 1219 l 822 1219 z "},"Ĉ":{"ha":766,"x_min":82,"x_max":842,"o":"m 842 903 l 798 705 l 709 705 q 697 796 707 766 q 665 842 687 827 q 606 857 644 857 q 545 844 576 857 q 481 802 513 831 q 413 717 446 769 q 355 597 381 665 q 318 473 335 543 q 293 345 300 403 q 286 241 286 286 q 297 146 286 184 q 333 89 307 109 q 406 68 359 68 q 493 86 456 68 q 555 136 529 103 q 606 225 581 168 l 695 225 l 652 25 q 521 -2 586 6 q 381 -11 456 -11 q 159 68 237 -11 q 82 296 82 147 q 90 399 82 340 q 132 572 104 490 q 214 735 165 666 q 326 849 264 804 q 459 915 387 893 q 614 937 532 937 q 732 928 676 937 q 842 903 788 920 m 677 1211 l 781 1033 l 732 995 l 608 1108 l 602 1108 l 418 995 l 379 1042 l 566 1211 l 677 1211 z "},"Č":{"ha":766,"x_min":82,"x_max":842,"o":"m 842 903 l 798 705 l 709 705 q 697 796 707 766 q 665 842 687 827 q 606 857 644 857 q 545 844 576 857 q 481 802 513 831 q 413 717 446 769 q 355 597 381 665 q 318 473 335 543 q 293 345 300 403 q 286 241 286 286 q 297 146 286 184 q 333 89 307 109 q 406 68 359 68 q 493 86 456 68 q 555 136 529 103 q 606 225 581 168 l 695 225 l 652 25 q 521 -2 586 6 q 381 -11 456 -11 q 159 68 237 -11 q 82 296 82 147 q 90 399 82 340 q 132 572 104 490 q 214 735 165 666 q 326 849 264 804 q 459 915 387 893 q 614 937 532 937 q 732 928 676 937 q 842 903 788 920 m 513 1000 l 409 1177 l 458 1215 l 582 1102 l 589 1102 l 772 1215 l 811 1168 l 625 1000 l 513 1000 z "},"Ċ":{"ha":766,"x_min":82,"x_max":842,"o":"m 842 903 l 798 705 l 709 705 q 697 796 707 766 q 665 842 687 827 q 606 857 644 857 q 545 844 576 857 q 481 802 513 831 q 413 717 446 769 q 355 597 381 665 q 318 473 335 543 q 293 345 300 403 q 286 241 286 286 q 297 146 286 184 q 333 89 307 109 q 406 68 359 68 q 493 86 456 68 q 555 136 529 103 q 606 225 581 168 l 695 225 l 652 25 q 521 -2 586 6 q 381 -11 456 -11 q 159 68 237 -11 q 82 296 82 147 q 90 399 82 340 q 132 572 104 490 q 214 735 165 666 q 326 849 264 804 q 459 915 387 893 q 614 937 532 937 q 732 928 676 937 q 842 903 788 920 m 697 1176 l 662 1010 l 486 1010 l 524 1176 l 697 1176 z "},"Ç":{"ha":766,"x_min":82,"x_max":842,"o":"m 399 -45 q 403 -92 403 -64 q 335 -234 403 -183 q 136 -292 267 -284 l 136 -227 q 229 -189 195 -220 q 265 -98 263 -157 l 272 -69 l 370 -10 q 156 72 229 -7 q 82 296 82 151 q 90 399 82 340 q 132 572 104 490 q 214 735 165 666 q 326 849 264 804 q 459 915 387 893 q 614 937 532 937 q 732 928 676 937 q 842 903 788 920 l 798 705 l 709 705 q 697 796 707 766 q 665 842 687 827 q 606 857 644 857 q 545 844 576 857 q 481 802 513 831 q 413 717 446 769 q 355 597 381 665 q 318 473 335 543 q 293 345 300 403 q 286 241 286 286 q 297 146 286 184 q 333 89 307 109 q 406 68 359 68 q 493 86 456 68 q 555 136 529 103 q 606 225 581 168 l 695 225 l 652 25 q 458 -8 557 -2 l 399 -45 z "},"Ď":{"ha":943,"x_min":4,"x_max":916,"o":"m 4 0 l 14 45 q 57 67 42 53 q 83 107 73 81 q 105 183 94 134 l 229 743 q 237 822 237 783 q 224 864 237 850 q 181 881 211 877 l 191 926 l 465 926 q 623 917 562 926 q 730 888 684 908 q 795 852 760 875 q 858 791 829 830 q 901 699 886 753 q 916 580 916 646 q 895 407 916 490 q 835 254 875 324 q 740 133 795 184 q 629 55 685 83 q 504 13 574 26 q 338 0 434 0 l 4 0 m 285 83 q 335 80 316 80 q 486 115 422 80 q 598 220 549 149 q 676 393 648 291 q 704 598 704 495 q 688 715 704 668 q 645 792 673 763 q 582 834 618 821 q 505 846 545 846 q 452 845 471 846 l 285 83 m 551 1000 l 447 1177 l 496 1215 l 620 1102 l 627 1102 l 810 1215 l 849 1168 l 663 1000 l 551 1000 z "},"Đ":{"ha":948,"x_min":9,"x_max":921,"o":"m 9 0 l 19 45 q 63 67 47 53 q 89 107 78 81 q 111 183 100 134 l 168 442 l 56 442 l 74 528 l 186 528 l 234 743 q 243 822 243 783 q 230 864 243 850 q 186 881 216 877 l 196 926 l 471 926 q 629 917 568 926 q 736 888 690 908 q 800 852 766 875 q 863 791 835 830 q 906 699 891 753 q 921 580 921 646 q 893 380 921 474 q 815 214 866 287 q 695 92 768 145 q 554 24 631 45 q 344 0 469 0 l 9 0 m 388 528 l 555 528 l 536 442 l 369 442 l 290 83 q 340 80 321 80 q 491 115 428 80 q 604 220 555 149 q 681 393 653 291 q 709 598 709 495 q 694 715 709 668 q 651 792 678 763 q 587 834 623 821 q 510 846 551 846 q 458 845 476 846 l 388 528 z "},"È":{"ha":780,"x_min":4,"x_max":849,"o":"m 849 926 l 801 707 l 714 707 q 702 798 711 772 q 675 835 693 823 q 623 846 656 846 l 453 846 l 381 521 l 475 521 q 521 530 503 521 q 556 559 540 538 q 587 616 572 580 l 662 616 l 597 341 l 527 341 q 522 401 527 380 q 505 432 517 422 q 460 441 492 441 l 364 441 l 284 79 l 437 79 q 483 83 467 79 q 514 96 500 87 q 546 124 528 105 q 582 173 564 144 q 619 244 600 203 l 711 244 l 649 0 l 4 0 l 14 45 q 57 67 42 53 q 83 107 73 81 q 105 183 94 134 l 229 743 q 237 822 237 783 q 224 864 237 850 q 181 881 211 877 l 191 926 l 849 926 m 536 1219 l 663 1039 l 616 996 l 378 1175 l 388 1219 l 536 1219 z "},"É":{"ha":780,"x_min":4,"x_max":849,"o":"m 849 926 l 801 707 l 714 707 q 702 798 711 772 q 675 835 693 823 q 623 846 656 846 l 453 846 l 381 521 l 475 521 q 521 530 503 521 q 556 559 540 538 q 587 616 572 580 l 662 616 l 597 341 l 527 341 q 522 401 527 380 q 505 432 517 422 q 460 441 492 441 l 364 441 l 284 79 l 437 79 q 483 83 467 79 q 514 96 500 87 q 546 124 528 105 q 582 173 564 144 q 619 244 600 203 l 711 244 l 649 0 l 4 0 l 14 45 q 57 67 42 53 q 83 107 73 81 q 105 183 94 134 l 229 743 q 237 822 237 783 q 224 864 237 850 q 181 881 211 877 l 191 926 l 849 926 m 796 1219 l 786 1175 l 478 996 l 438 1048 l 621 1219 l 796 1219 z "},"Ê":{"ha":780,"x_min":4,"x_max":849,"o":"m 849 926 l 801 707 l 714 707 q 702 798 711 772 q 675 835 693 823 q 623 846 656 846 l 453 846 l 381 521 l 475 521 q 521 530 503 521 q 556 559 540 538 q 587 616 572 580 l 662 616 l 597 341 l 527 341 q 522 401 527 380 q 505 432 517 422 q 460 441 492 441 l 364 441 l 284 79 l 437 79 q 483 83 467 79 q 514 96 500 87 q 546 124 528 105 q 582 173 564 144 q 619 244 600 203 l 711 244 l 649 0 l 4 0 l 14 45 q 57 67 42 53 q 83 107 73 81 q 105 183 94 134 l 229 743 q 237 822 237 783 q 224 864 237 850 q 181 881 211 877 l 191 926 l 849 926 m 651 1211 l 755 1033 l 706 995 l 582 1108 l 575 1108 l 391 995 l 353 1042 l 539 1211 l 651 1211 z "},"Ě":{"ha":780,"x_min":4,"x_max":849,"o":"m 849 926 l 801 707 l 714 707 q 702 798 711 772 q 675 835 693 823 q 623 846 656 846 l 453 846 l 381 521 l 475 521 q 521 530 503 521 q 556 559 540 538 q 587 616 572 580 l 662 616 l 597 341 l 527 341 q 522 401 527 380 q 505 432 517 422 q 460 441 492 441 l 364 441 l 284 79 l 437 79 q 483 83 467 79 q 514 96 500 87 q 546 124 528 105 q 582 173 564 144 q 619 244 600 203 l 711 244 l 649 0 l 4 0 l 14 45 q 57 67 42 53 q 83 107 73 81 q 105 183 94 134 l 229 743 q 237 822 237 783 q 224 864 237 850 q 181 881 211 877 l 191 926 l 849 926 m 486 1000 l 382 1177 l 431 1215 l 555 1102 l 562 1102 l 746 1215 l 785 1168 l 598 1000 l 486 1000 z "},"Ë":{"ha":780,"x_min":4,"x_max":849,"o":"m 849 926 l 801 707 l 714 707 q 702 798 711 772 q 675 835 693 823 q 623 846 656 846 l 453 846 l 381 521 l 475 521 q 521 530 503 521 q 556 559 540 538 q 587 616 572 580 l 662 616 l 597 341 l 527 341 q 522 401 527 380 q 505 432 517 422 q 460 441 492 441 l 364 441 l 284 79 l 437 79 q 483 83 467 79 q 514 96 500 87 q 546 124 528 105 q 582 173 564 144 q 619 244 600 203 l 711 244 l 649 0 l 4 0 l 14 45 q 57 67 42 53 q 83 107 73 81 q 105 183 94 134 l 229 743 q 237 822 237 783 q 224 864 237 850 q 181 881 211 877 l 191 926 l 849 926 m 525 1167 l 492 1018 l 355 1018 l 387 1167 l 525 1167 m 777 1167 l 744 1018 l 606 1018 l 639 1167 l 777 1167 z "},"Ē":{"ha":780,"x_min":4,"x_max":849,"o":"m 849 926 l 801 707 l 714 707 q 702 798 711 772 q 675 835 693 823 q 623 846 656 846 l 453 846 l 381 521 l 475 521 q 521 530 503 521 q 556 559 540 538 q 587 616 572 580 l 662 616 l 597 341 l 527 341 q 522 401 527 380 q 505 432 517 422 q 460 441 492 441 l 364 441 l 284 79 l 437 79 q 483 83 467 79 q 514 96 500 87 q 546 124 528 105 q 582 173 564 144 q 619 244 600 203 l 711 244 l 649 0 l 4 0 l 14 45 q 57 67 42 53 q 83 107 73 81 q 105 183 94 134 l 229 743 q 237 822 237 783 q 224 864 237 850 q 181 881 211 877 l 191 926 l 849 926 m 745 1038 l 362 1038 l 385 1142 l 768 1142 l 745 1038 z "},"Ĕ":{"ha":780,"x_min":4,"x_max":849,"o":"m 849 926 l 801 707 l 714 707 q 702 798 711 772 q 675 835 693 823 q 623 846 656 846 l 453 846 l 381 521 l 475 521 q 521 530 503 521 q 556 559 540 538 q 587 616 572 580 l 662 616 l 597 341 l 527 341 q 522 401 527 380 q 505 432 517 422 q 460 441 492 441 l 364 441 l 284 79 l 437 79 q 483 83 467 79 q 514 96 500 87 q 546 124 528 105 q 582 173 564 144 q 619 244 600 203 l 711 244 l 649 0 l 4 0 l 14 45 q 57 67 42 53 q 83 107 73 81 q 105 183 94 134 l 229 743 q 237 822 237 783 q 224 864 237 850 q 181 881 211 877 l 191 926 l 849 926 m 802 1181 q 693 1048 755 1094 q 541 1003 630 1003 q 374 1206 379 1003 l 441 1218 q 477 1138 450 1165 q 555 1112 505 1112 q 660 1135 618 1112 q 743 1214 701 1159 l 802 1181 z "},"Ė":{"ha":780,"x_min":4,"x_max":849,"o":"m 849 926 l 801 707 l 714 707 q 702 798 711 772 q 675 835 693 823 q 623 846 656 846 l 453 846 l 381 521 l 475 521 q 521 530 503 521 q 556 559 540 538 q 587 616 572 580 l 662 616 l 597 341 l 527 341 q 522 401 527 380 q 505 432 517 422 q 460 441 492 441 l 364 441 l 284 79 l 437 79 q 483 83 467 79 q 514 96 500 87 q 546 124 528 105 q 582 173 564 144 q 619 244 600 203 l 711 244 l 649 0 l 4 0 l 14 45 q 57 67 42 53 q 83 107 73 81 q 105 183 94 134 l 229 743 q 237 822 237 783 q 224 864 237 850 q 181 881 211 877 l 191 926 l 849 926 m 671 1176 l 636 1010 l 460 1010 l 498 1176 l 671 1176 z "},"Ę":{"ha":780,"x_min":4,"x_max":849,"o":"m 517 0 l 4 0 l 14 45 q 57 67 42 53 q 83 107 73 81 q 105 183 94 134 l 229 743 q 237 822 237 783 q 224 864 237 850 q 181 881 211 877 l 191 926 l 849 926 l 801 707 l 714 707 q 702 798 711 772 q 675 835 693 823 q 623 846 656 846 l 453 846 l 381 521 l 475 521 q 521 530 503 521 q 556 559 540 538 q 587 616 572 580 l 662 616 l 597 341 l 527 341 q 522 401 527 380 q 505 432 517 422 q 460 441 492 441 l 364 441 l 284 79 l 437 79 q 483 83 467 79 q 514 96 500 87 q 546 124 528 105 q 582 173 564 144 q 619 244 600 203 l 711 244 l 649 0 l 604 0 q 503 -98 534 -58 q 473 -171 473 -138 q 485 -206 473 -193 q 519 -218 497 -218 q 587 -197 555 -218 l 602 -257 q 544 -284 578 -273 q 480 -296 511 -296 q 390 -268 421 -296 q 359 -186 359 -239 q 363 -155 359 -170 q 378 -122 368 -140 q 407 -84 389 -104 q 452 -44 425 -64 q 517 0 479 -23 z "},"Ĝ":{"ha":860,"x_min":83,"x_max":868,"o":"m 547 252 q 554 293 553 277 q 555 323 555 310 q 543 365 555 351 q 498 383 530 379 l 508 428 l 839 428 l 829 383 q 790 362 803 374 q 767 325 777 349 q 745 245 757 301 l 692 11 l 599 -11 l 563 37 q 378 -11 474 -11 q 159 69 235 -11 q 83 300 83 149 q 103 468 83 374 q 159 638 123 562 q 243 771 195 714 q 350 864 292 827 q 472 919 408 901 q 610 937 536 937 q 868 898 754 937 l 827 704 l 738 704 q 725 796 738 763 q 687 843 713 829 q 618 857 661 857 q 538 840 575 857 q 456 775 494 819 q 376 643 412 724 q 308 436 336 555 q 283 240 283 332 q 312 112 283 155 q 397 68 340 68 q 454 80 431 68 q 495 112 478 92 q 522 157 511 132 q 538 209 532 182 l 547 252 m 691 1211 l 795 1033 l 746 995 l 622 1108 l 615 1108 l 431 995 l 393 1042 l 579 1211 l 691 1211 z "},"Ğ":{"ha":860,"x_min":83,"x_max":868,"o":"m 547 252 q 554 293 553 277 q 555 323 555 310 q 543 365 555 351 q 498 383 530 379 l 508 428 l 839 428 l 829 383 q 790 362 803 374 q 767 325 777 349 q 745 245 757 301 l 692 11 l 599 -11 l 563 37 q 378 -11 474 -11 q 159 69 235 -11 q 83 300 83 149 q 103 468 83 374 q 159 638 123 562 q 243 771 195 714 q 350 864 292 827 q 472 919 408 901 q 610 937 536 937 q 868 898 754 937 l 827 704 l 738 704 q 725 796 738 763 q 687 843 713 829 q 618 857 661 857 q 538 840 575 857 q 456 775 494 819 q 376 643 412 724 q 308 436 336 555 q 283 240 283 332 q 312 112 283 155 q 397 68 340 68 q 454 80 431 68 q 495 112 478 92 q 522 157 511 132 q 538 209 532 182 l 547 252 m 842 1181 q 733 1048 795 1094 q 581 1003 670 1003 q 414 1206 419 1003 l 481 1218 q 517 1138 490 1165 q 595 1112 545 1112 q 700 1135 658 1112 q 783 1214 741 1159 l 842 1181 z "},"Ġ":{"ha":860,"x_min":83,"x_max":868,"o":"m 547 252 q 554 293 553 277 q 555 323 555 310 q 543 365 555 351 q 498 383 530 379 l 508 428 l 839 428 l 829 383 q 790 362 803 374 q 767 325 777 349 q 745 245 757 301 l 692 11 l 599 -11 l 563 37 q 378 -11 474 -11 q 159 69 235 -11 q 83 300 83 149 q 103 468 83 374 q 159 638 123 562 q 243 771 195 714 q 350 864 292 827 q 472 919 408 901 q 610 937 536 937 q 868 898 754 937 l 827 704 l 738 704 q 725 796 738 763 q 687 843 713 829 q 618 857 661 857 q 538 840 575 857 q 456 775 494 819 q 376 643 412 724 q 308 436 336 555 q 283 240 283 332 q 312 112 283 155 q 397 68 340 68 q 454 80 431 68 q 495 112 478 92 q 522 157 511 132 q 538 209 532 182 l 547 252 m 711 1176 l 676 1010 l 500 1010 l 538 1176 l 711 1176 z "},"Ģ":{"ha":860,"x_min":83,"x_max":868,"o":"m 547 252 q 554 293 553 277 q 555 323 555 310 q 543 365 555 351 q 498 383 530 379 l 508 428 l 839 428 l 829 383 q 790 362 803 374 q 767 325 777 349 q 745 245 757 301 l 692 11 l 599 -11 l 563 37 q 378 -11 474 -11 q 159 69 235 -11 q 83 300 83 149 q 103 468 83 374 q 159 638 123 562 q 243 771 195 714 q 350 864 292 827 q 472 919 408 901 q 610 937 536 937 q 868 898 754 937 l 827 704 l 738 704 q 725 796 738 763 q 687 843 713 829 q 618 857 661 857 q 538 840 575 857 q 456 775 494 819 q 376 643 412 724 q 308 436 336 555 q 283 240 283 332 q 312 112 283 155 q 397 68 340 68 q 454 80 431 68 q 495 112 478 92 q 522 157 511 132 q 538 209 532 182 l 547 252 m 429 -69 q 430 -90 430 -81 q 362 -233 430 -182 q 163 -292 295 -284 l 163 -227 q 238 -203 210 -221 q 280 -155 267 -185 q 298 -69 294 -125 l 429 -69 z "},"Ĥ":{"ha":960,"x_min":4,"x_max":1021,"o":"m 797 183 q 791 155 793 165 q 789 133 790 145 q 788 104 788 121 q 801 62 788 75 q 844 45 814 49 l 835 0 l 494 0 l 503 45 q 547 67 532 53 q 573 107 562 81 q 595 183 584 134 l 652 442 l 364 442 l 307 183 q 302 155 303 165 q 299 133 300 145 q 298 104 298 121 q 312 62 298 75 q 355 45 325 49 l 345 0 l 4 0 l 14 45 q 57 67 42 53 q 83 107 73 81 q 105 183 94 134 l 229 743 q 237 822 237 783 q 224 864 237 850 q 181 881 211 877 l 191 926 l 532 926 l 522 881 q 478 859 494 873 q 452 818 463 844 q 431 743 441 792 l 383 528 l 671 528 l 718 743 q 727 822 727 783 q 714 864 727 850 q 671 881 701 877 l 680 926 l 1021 926 l 1012 881 q 968 859 983 873 q 942 818 953 844 q 920 743 931 792 l 797 183 m 734 1211 l 838 1033 l 789 995 l 665 1108 l 659 1108 l 475 995 l 436 1042 l 623 1211 l 734 1211 z "},"Ħ":{"ha":966,"x_min":4,"x_max":1028,"o":"m 804 183 q 798 155 800 165 q 796 133 797 145 q 795 104 795 121 q 808 62 795 75 q 851 45 821 49 l 842 0 l 500 0 l 510 45 q 554 67 538 53 q 580 107 569 81 q 602 183 591 134 l 633 327 l 339 327 l 307 183 q 300 145 302 161 q 298 104 298 130 q 312 62 298 75 q 355 45 325 49 l 345 0 l 4 0 l 14 45 q 57 67 42 53 q 83 107 73 81 q 105 183 94 134 l 229 743 q 237 822 237 783 q 224 864 237 850 q 181 881 211 877 l 191 926 l 532 926 l 522 881 q 478 859 494 873 q 452 818 463 844 q 431 743 441 792 l 409 644 l 703 644 l 725 743 q 734 822 734 783 q 721 864 734 850 q 677 881 707 877 l 687 926 l 1028 926 l 1019 881 q 975 859 990 873 q 949 818 960 844 q 927 743 938 792 l 804 183 m 357 412 l 652 412 l 684 558 l 390 558 l 357 412 z "},"Ì":{"ha":474,"x_min":4,"x_max":532,"o":"m 345 0 l 4 0 l 14 45 q 57 67 42 53 q 83 107 73 81 q 105 183 94 134 l 229 743 q 237 822 237 783 q 224 864 237 850 q 181 881 211 877 l 191 926 l 532 926 l 522 881 q 478 859 494 873 q 452 818 463 844 q 431 743 441 792 l 307 183 q 302 155 303 165 q 299 133 300 145 q 298 104 298 121 q 312 62 298 75 q 355 45 325 49 l 345 0 m 366 1219 l 493 1039 l 446 996 l 208 1175 l 218 1219 l 366 1219 z "},"Í":{"ha":474,"x_min":4,"x_max":636,"o":"m 345 0 l 4 0 l 14 45 q 57 67 42 53 q 83 107 73 81 q 105 183 94 134 l 229 743 q 237 822 237 783 q 224 864 237 850 q 181 881 211 877 l 191 926 l 532 926 l 522 881 q 478 859 494 873 q 452 818 463 844 q 431 743 441 792 l 307 183 q 302 155 303 165 q 299 133 300 145 q 298 104 298 121 q 312 62 298 75 q 355 45 325 49 l 345 0 m 636 1219 l 626 1175 l 318 996 l 278 1048 l 460 1219 l 636 1219 z "},"Î":{"ha":474,"x_min":4,"x_max":595,"o":"m 345 0 l 4 0 l 14 45 q 57 67 42 53 q 83 107 73 81 q 105 183 94 134 l 229 743 q 237 822 237 783 q 224 864 237 850 q 181 881 211 877 l 191 926 l 532 926 l 522 881 q 478 859 494 873 q 452 818 463 844 q 431 743 441 792 l 307 183 q 302 155 303 165 q 299 133 300 145 q 298 104 298 121 q 312 62 298 75 q 355 45 325 49 l 345 0 m 492 1211 l 595 1033 l 547 995 l 422 1108 l 416 1108 l 232 995 l 193 1042 l 380 1211 l 492 1211 z "},"Ĩ":{"ha":474,"x_min":4,"x_max":649,"o":"m 345 0 l 4 0 l 14 45 q 57 67 42 53 q 83 107 73 81 q 105 183 94 134 l 229 743 q 237 822 237 783 q 224 864 237 850 q 181 881 211 877 l 191 926 l 532 926 l 522 881 q 478 859 494 873 q 452 818 463 844 q 431 743 441 792 l 307 183 q 302 155 303 165 q 299 133 300 145 q 298 104 298 121 q 312 62 298 75 q 355 45 325 49 l 345 0 m 593 1186 l 649 1143 q 583 1056 612 1087 q 531 1013 555 1025 q 479 1000 507 1000 q 437 1008 455 1000 q 389 1041 420 1016 l 369 1057 q 352 1067 360 1063 q 336 1074 345 1072 q 317 1076 328 1076 q 285 1069 298 1076 q 256 1047 271 1063 q 219 999 240 1031 l 163 1042 q 230 1130 205 1102 q 280 1172 256 1158 q 334 1185 304 1185 q 362 1181 350 1185 q 387 1171 375 1178 q 420 1147 399 1164 q 453 1122 443 1128 q 472 1113 463 1116 q 498 1109 481 1109 q 544 1126 523 1109 q 593 1186 566 1143 z "},"Ï":{"ha":474,"x_min":4,"x_max":616,"o":"m 345 0 l 4 0 l 14 45 q 57 67 42 53 q 83 107 73 81 q 105 183 94 134 l 229 743 q 237 822 237 783 q 224 864 237 850 q 181 881 211 877 l 191 926 l 532 926 l 522 881 q 478 859 494 873 q 452 818 463 844 q 431 743 441 792 l 307 183 q 302 155 303 165 q 299 133 300 145 q 298 104 298 121 q 312 62 298 75 q 355 45 325 49 l 345 0 m 365 1167 l 332 1018 l 195 1018 l 227 1167 l 365 1167 m 616 1167 l 584 1018 l 446 1018 l 479 1167 l 616 1167 z "},"Ī":{"ha":474,"x_min":4,"x_max":608,"o":"m 345 0 l 4 0 l 14 45 q 57 67 42 53 q 83 107 73 81 q 105 183 94 134 l 229 743 q 237 822 237 783 q 224 864 237 850 q 181 881 211 877 l 191 926 l 532 926 l 522 881 q 478 859 494 873 q 452 818 463 844 q 431 743 441 792 l 307 183 q 302 155 303 165 q 299 133 300 145 q 298 104 298 121 q 312 62 298 75 q 355 45 325 49 l 345 0 m 585 1038 l 202 1038 l 225 1142 l 608 1142 l 585 1038 z "},"Ĭ":{"ha":474,"x_min":4,"x_max":642,"o":"m 345 0 l 4 0 l 14 45 q 57 67 42 53 q 83 107 73 81 q 105 183 94 134 l 229 743 q 237 822 237 783 q 224 864 237 850 q 181 881 211 877 l 191 926 l 532 926 l 522 881 q 478 859 494 873 q 452 818 463 844 q 431 743 441 792 l 307 183 q 302 155 303 165 q 299 133 300 145 q 298 104 298 121 q 312 62 298 75 q 355 45 325 49 l 345 0 m 642 1181 q 533 1048 595 1094 q 380 1003 470 1003 q 214 1206 219 1003 l 281 1218 q 317 1138 290 1165 q 395 1112 345 1112 q 499 1135 458 1112 q 583 1214 541 1159 l 642 1181 z "},"İ":{"ha":474,"x_min":4,"x_max":532,"o":"m 345 0 l 4 0 l 14 45 q 57 67 42 53 q 83 107 73 81 q 105 183 94 134 l 229 743 q 237 822 237 783 q 224 864 237 850 q 181 881 211 877 l 191 926 l 532 926 l 522 881 q 478 859 494 873 q 452 818 463 844 q 431 743 441 792 l 307 183 q 302 155 303 165 q 299 133 300 145 q 298 104 298 121 q 312 62 298 75 q 355 45 325 49 l 345 0 m 511 1176 l 476 1010 l 300 1010 l 338 1176 l 511 1176 z "},"Į":{"ha":474,"x_min":4,"x_max":532,"o":"m 208 0 l 4 0 l 14 45 q 57 67 42 53 q 83 107 73 81 q 105 183 94 134 l 229 743 q 237 822 237 783 q 224 864 237 850 q 181 881 211 877 l 191 926 l 532 926 l 522 881 q 478 859 494 873 q 452 818 463 844 q 431 743 441 792 l 307 183 q 302 155 303 165 q 299 133 300 145 q 298 104 298 121 q 312 62 298 75 q 355 45 325 49 l 345 0 l 295 0 q 195 -98 225 -58 q 164 -171 164 -138 q 176 -206 164 -193 q 211 -218 189 -218 q 279 -197 246 -218 l 293 -257 q 236 -284 269 -273 q 172 -296 202 -296 q 81 -268 113 -296 q 50 -186 50 -239 q 55 -155 50 -170 q 70 -122 59 -140 q 98 -84 80 -104 q 144 -44 117 -64 q 208 0 171 -23 z "},"Ĳ":{"ha":937,"x_min":4,"x_max":1000,"o":"m 345 0 l 4 0 l 14 45 q 57 67 42 53 q 83 107 73 81 q 105 183 94 134 l 229 743 q 237 822 237 783 q 224 864 237 850 q 181 881 211 877 l 191 926 l 532 926 l 522 881 q 478 859 494 873 q 452 818 463 844 q 431 743 441 792 l 307 183 q 302 155 303 165 q 299 133 300 145 q 298 104 298 121 q 312 62 298 75 q 355 45 325 49 l 345 0 m 748 58 q 627 -183 712 -104 q 402 -262 543 -262 q 328 -252 365 -262 l 348 -172 q 397 -178 372 -178 q 460 -159 437 -178 q 501 -99 484 -140 q 538 29 518 -58 l 696 743 q 705 822 705 782 q 692 864 705 850 q 649 881 679 877 l 659 926 l 1000 926 l 990 881 q 946 859 962 873 q 920 818 931 844 q 899 743 909 792 l 748 58 z "},"Ĵ":{"ha":463,"x_min":-146,"x_max":589,"o":"m 274 58 q 153 -183 238 -104 q -72 -262 68 -262 q -146 -252 -109 -262 l -126 -172 q -77 -178 -102 -178 q -14 -159 -37 -178 q 27 -99 10 -140 q 64 29 44 -58 l 222 743 q 231 822 231 782 q 218 864 231 850 q 175 881 205 877 l 184 926 l 526 926 l 516 881 q 472 859 488 873 q 446 818 457 844 q 425 743 435 792 l 274 58 m 486 1211 l 589 1033 l 541 995 l 416 1108 l 410 1108 l 226 995 l 187 1042 l 374 1211 l 486 1211 z "},"Ķ":{"ha":909,"x_min":4,"x_max":1021,"o":"m 380 513 l 390 513 q 439 522 416 513 q 492 555 462 531 q 591 647 522 579 q 680 742 651 707 q 719 802 709 777 q 726 836 726 821 q 715 869 726 860 q 680 881 705 878 l 690 926 l 1021 926 l 1010 880 q 971 867 988 875 q 929 838 954 859 q 853 768 903 817 l 608 533 l 751 180 q 781 113 768 138 q 806 74 794 88 q 831 54 819 60 q 860 44 844 47 l 851 0 l 512 0 l 522 45 q 548 54 541 47 q 555 79 555 62 q 549 120 555 95 q 519 203 542 146 l 458 363 q 434 412 445 397 q 410 433 422 427 q 374 439 397 439 l 363 439 l 307 183 q 302 155 303 165 q 299 133 300 145 q 298 104 298 121 q 312 62 298 75 q 355 45 325 49 l 345 0 l 4 0 l 14 45 q 57 67 42 53 q 83 107 73 81 q 105 183 94 134 l 229 743 q 237 822 237 783 q 224 864 237 850 q 181 881 211 877 l 191 926 l 532 926 l 522 881 q 478 859 494 873 q 452 818 463 844 q 431 743 441 792 l 380 513 m 467 -69 q 469 -90 469 -81 q 401 -233 469 -182 q 202 -292 334 -284 l 202 -227 q 277 -203 248 -221 q 319 -155 305 -185 q 336 -69 333 -125 l 467 -69 z "},"Ĺ":{"ha":738,"x_min":4,"x_max":768,"o":"m 412 81 q 464 86 446 81 q 497 103 482 92 q 530 135 512 115 q 566 188 548 155 q 602 269 583 220 l 694 269 l 625 0 l 4 0 l 14 45 q 57 67 42 53 q 83 107 73 81 q 105 183 94 134 l 229 743 q 237 822 237 783 q 224 864 237 850 q 181 881 211 877 l 191 926 l 532 926 l 522 881 q 478 859 494 873 q 452 818 463 844 q 431 743 441 792 l 284 81 l 412 81 m 768 1219 l 758 1175 l 450 996 l 410 1048 l 593 1219 l 768 1219 z "},"Ľ":{"ha":738,"x_min":4,"x_max":772,"o":"m 412 81 q 464 86 446 81 q 497 103 482 92 q 530 135 512 115 q 566 188 548 155 q 602 269 583 220 l 694 269 l 625 0 l 4 0 l 14 45 q 57 67 42 53 q 83 107 73 81 q 105 183 94 134 l 229 743 q 237 822 237 783 q 224 864 237 850 q 181 881 211 877 l 191 926 l 532 926 l 522 881 q 478 859 494 873 q 452 818 463 844 q 431 743 441 792 l 284 81 l 412 81 m 771 970 q 772 942 772 958 l 772 932 q 762 853 772 887 q 729 790 751 819 q 674 735 707 762 q 579 667 642 709 l 543 714 q 616 815 593 756 q 640 970 640 874 l 771 970 z "},"Ļ":{"ha":738,"x_min":4,"x_max":694,"o":"m 412 81 q 464 86 446 81 q 497 103 482 92 q 530 135 512 115 q 566 188 548 155 q 602 269 583 220 l 694 269 l 625 0 l 4 0 l 14 45 q 57 67 42 53 q 83 107 73 81 q 105 183 94 134 l 229 743 q 237 822 237 783 q 224 864 237 850 q 181 881 211 877 l 191 926 l 532 926 l 522 881 q 478 859 494 873 q 452 818 463 844 q 431 743 441 792 l 284 81 l 412 81 m 374 -69 q 376 -90 376 -81 q 308 -233 376 -182 q 109 -292 241 -284 l 109 -227 q 184 -203 155 -221 q 226 -155 212 -185 q 243 -69 240 -125 l 374 -69 z "},"Ł":{"ha":742,"x_min":8,"x_max":698,"o":"m 416 81 q 468 86 450 81 q 501 103 486 92 q 534 135 516 115 q 570 188 552 155 q 606 269 587 220 l 698 269 l 629 0 l 8 0 l 18 45 q 61 67 46 53 q 87 107 77 81 q 109 183 98 134 l 154 382 l 62 326 l 26 399 l 175 481 l 233 743 q 241 822 241 783 q 228 864 241 850 q 185 881 215 877 l 195 926 l 536 926 l 526 881 q 483 859 498 873 q 456 818 467 844 q 435 743 446 792 l 399 585 l 593 699 l 631 628 l 378 489 l 288 81 l 416 81 z "},"Ŀ":{"ha":897,"x_min":4,"x_max":934,"o":"m 412 81 q 464 86 446 81 q 497 103 482 92 q 530 135 512 115 q 566 188 548 155 q 602 269 583 220 l 694 269 l 625 0 l 4 0 l 14 45 q 57 67 42 53 q 83 107 73 81 q 105 183 94 134 l 229 743 q 237 822 237 783 q 224 864 237 850 q 181 881 211 877 l 191 926 l 532 926 l 522 881 q 478 859 494 873 q 452 818 463 844 q 431 743 441 792 l 284 81 l 412 81 m 934 554 l 899 388 l 736 388 l 774 554 l 934 554 z "},"Ń":{"ha":919,"x_min":3,"x_max":983,"o":"m 190 926 l 448 926 l 578 542 q 663 265 632 385 l 672 265 q 724 525 692 382 l 771 743 q 780 822 780 783 q 767 864 780 850 q 724 881 753 877 l 733 926 l 983 926 l 973 881 q 929 859 945 873 q 903 818 914 844 q 882 743 892 792 l 718 0 l 564 0 l 401 474 q 367 578 382 530 q 331 701 352 627 l 321 702 q 300 577 315 656 q 264 404 285 497 l 215 183 q 210 155 211 165 q 207 133 208 145 q 206 104 206 121 q 219 62 206 75 q 262 45 233 49 l 253 0 l 3 0 l 13 45 q 57 67 41 53 q 83 107 72 81 q 104 183 94 134 l 228 743 q 237 822 237 783 q 223 864 237 850 q 180 881 210 877 l 190 926 m 869 1219 l 859 1175 l 551 996 l 511 1048 l 693 1219 l 869 1219 z "},"Ň":{"ha":919,"x_min":3,"x_max":983,"o":"m 190 926 l 448 926 l 578 542 q 663 265 632 385 l 672 265 q 724 525 692 382 l 771 743 q 780 822 780 783 q 767 864 780 850 q 724 881 753 877 l 733 926 l 983 926 l 973 881 q 929 859 945 873 q 903 818 914 844 q 882 743 892 792 l 718 0 l 564 0 l 401 474 q 367 578 382 530 q 331 701 352 627 l 321 702 q 300 577 315 656 q 264 404 285 497 l 215 183 q 210 155 211 165 q 207 133 208 145 q 206 104 206 121 q 219 62 206 75 q 262 45 233 49 l 253 0 l 3 0 l 13 45 q 57 67 41 53 q 83 107 72 81 q 104 183 94 134 l 228 743 q 237 822 237 783 q 223 864 237 850 q 180 881 210 877 l 190 926 m 559 1000 l 456 1177 l 505 1215 l 629 1102 l 635 1102 l 819 1215 l 858 1168 l 671 1000 l 559 1000 z "},"Ñ":{"ha":919,"x_min":3,"x_max":983,"o":"m 190 926 l 448 926 l 578 542 q 663 265 632 385 l 672 265 q 724 525 692 382 l 771 743 q 780 822 780 783 q 767 864 780 850 q 724 881 753 877 l 733 926 l 983 926 l 973 881 q 929 859 945 873 q 903 818 914 844 q 882 743 892 792 l 718 0 l 564 0 l 401 474 q 367 578 382 530 q 331 701 352 627 l 321 702 q 300 577 315 656 q 264 404 285 497 l 215 183 q 210 155 211 165 q 207 133 208 145 q 206 104 206 121 q 219 62 206 75 q 262 45 233 49 l 253 0 l 3 0 l 13 45 q 57 67 41 53 q 83 107 72 81 q 104 183 94 134 l 228 743 q 237 822 237 783 q 223 864 237 850 q 180 881 210 877 l 190 926 m 826 1186 l 882 1143 q 816 1056 844 1087 q 764 1013 787 1025 q 711 1000 740 1000 q 670 1008 688 1000 q 621 1041 652 1016 l 602 1057 q 585 1067 593 1063 q 569 1074 577 1072 q 549 1076 560 1076 q 517 1069 531 1076 q 488 1047 504 1063 q 452 999 473 1031 l 396 1042 q 463 1130 437 1102 q 512 1172 488 1158 q 567 1185 536 1185 q 595 1181 583 1185 q 620 1171 608 1178 q 653 1147 632 1164 q 685 1122 675 1128 q 705 1113 695 1116 q 730 1109 714 1109 q 777 1126 755 1109 q 826 1186 798 1143 z "},"Ņ":{"ha":919,"x_min":3,"x_max":983,"o":"m 190 926 l 448 926 l 578 542 q 663 265 632 385 l 672 265 q 724 525 692 382 l 771 743 q 780 822 780 783 q 767 864 780 850 q 724 881 753 877 l 733 926 l 983 926 l 973 881 q 929 859 945 873 q 903 818 914 844 q 882 743 892 792 l 718 0 l 564 0 l 401 474 q 367 578 382 530 q 331 701 352 627 l 321 702 q 300 577 315 656 q 264 404 285 497 l 215 183 q 210 155 211 165 q 207 133 208 145 q 206 104 206 121 q 219 62 206 75 q 262 45 233 49 l 253 0 l 3 0 l 13 45 q 57 67 41 53 q 83 107 72 81 q 104 183 94 134 l 228 743 q 237 822 237 783 q 223 864 237 850 q 180 881 210 877 l 190 926 m 454 -69 q 456 -90 456 -81 q 388 -233 456 -182 q 189 -292 321 -284 l 189 -227 q 264 -203 235 -221 q 306 -155 292 -185 q 323 -69 320 -125 l 454 -69 z "},"Ò":{"ha":938,"x_min":82,"x_max":916,"o":"m 394 -11 q 161 70 239 -11 q 82 309 82 151 q 93 431 82 362 q 130 577 104 500 q 201 723 155 654 q 308 840 246 791 q 444 912 369 888 q 602 937 519 937 q 837 856 757 937 q 916 621 916 775 q 902 476 916 556 q 857 316 888 397 q 779 174 825 236 q 673 70 733 111 q 543 8 612 28 q 394 -11 473 -11 m 286 245 q 313 110 286 152 q 401 68 340 68 q 464 83 434 68 q 535 140 501 102 q 612 259 577 186 q 671 418 648 332 q 704 581 690 488 q 712 682 712 632 q 685 815 712 773 q 595 857 658 857 q 481 805 536 857 q 380 656 425 752 q 311 442 335 561 q 286 245 286 323 m 615 1219 l 742 1039 l 695 996 l 457 1175 l 467 1219 l 615 1219 z "},"Ó":{"ha":938,"x_min":82,"x_max":916,"o":"m 394 -11 q 161 70 239 -11 q 82 309 82 151 q 93 431 82 362 q 130 577 104 500 q 201 723 155 654 q 308 840 246 791 q 444 912 369 888 q 602 937 519 937 q 837 856 757 937 q 916 621 916 775 q 902 476 916 556 q 857 316 888 397 q 779 174 825 236 q 673 70 733 111 q 543 8 612 28 q 394 -11 473 -11 m 286 245 q 313 110 286 152 q 401 68 340 68 q 464 83 434 68 q 535 140 501 102 q 612 259 577 186 q 671 418 648 332 q 704 581 690 488 q 712 682 712 632 q 685 815 712 773 q 595 857 658 857 q 481 805 536 857 q 380 656 425 752 q 311 442 335 561 q 286 245 286 323 m 868 1219 l 858 1175 l 550 996 l 510 1048 l 692 1219 l 868 1219 z "},"Ô":{"ha":938,"x_min":82,"x_max":916,"o":"m 394 -11 q 161 70 239 -11 q 82 309 82 151 q 93 431 82 362 q 130 577 104 500 q 201 723 155 654 q 308 840 246 791 q 444 912 369 888 q 602 937 519 937 q 837 856 757 937 q 916 621 916 775 q 902 476 916 556 q 857 316 888 397 q 779 174 825 236 q 673 70 733 111 q 543 8 612 28 q 394 -11 473 -11 m 286 245 q 313 110 286 152 q 401 68 340 68 q 464 83 434 68 q 535 140 501 102 q 612 259 577 186 q 671 418 648 332 q 704 581 690 488 q 712 682 712 632 q 685 815 712 773 q 595 857 658 857 q 481 805 536 857 q 380 656 425 752 q 311 442 335 561 q 286 245 286 323 m 724 1211 l 827 1033 l 779 995 l 654 1108 l 648 1108 l 464 995 l 425 1042 l 612 1211 l 724 1211 z "},"Õ":{"ha":938,"x_min":82,"x_max":916,"o":"m 394 -11 q 161 70 239 -11 q 82 309 82 151 q 93 431 82 362 q 130 577 104 500 q 201 723 155 654 q 308 840 246 791 q 444 912 369 888 q 602 937 519 937 q 837 856 757 937 q 916 621 916 775 q 902 476 916 556 q 857 316 888 397 q 779 174 825 236 q 673 70 733 111 q 543 8 612 28 q 394 -11 473 -11 m 286 245 q 313 110 286 152 q 401 68 340 68 q 464 83 434 68 q 535 140 501 102 q 612 259 577 186 q 671 418 648 332 q 704 581 690 488 q 712 682 712 632 q 685 815 712 773 q 595 857 658 857 q 481 805 536 857 q 380 656 425 752 q 311 442 335 561 q 286 245 286 323 m 825 1186 l 881 1143 q 815 1056 844 1087 q 763 1013 787 1025 q 711 1000 739 1000 q 669 1008 687 1000 q 621 1041 652 1016 l 601 1057 q 584 1067 592 1063 q 568 1074 576 1072 q 549 1076 559 1076 q 517 1069 530 1076 q 488 1047 503 1063 q 451 999 472 1031 l 395 1042 q 462 1130 437 1102 q 512 1172 488 1158 q 566 1185 536 1185 q 594 1181 582 1185 q 619 1171 607 1178 q 652 1147 631 1164 q 685 1122 675 1128 q 704 1113 694 1116 q 730 1109 713 1109 q 776 1126 755 1109 q 825 1186 798 1143 z "},"Ö":{"ha":938,"x_min":82,"x_max":916,"o":"m 394 -11 q 161 70 239 -11 q 82 309 82 151 q 93 431 82 362 q 130 577 104 500 q 201 723 155 654 q 308 840 246 791 q 444 912 369 888 q 602 937 519 937 q 837 856 757 937 q 916 621 916 775 q 902 476 916 556 q 857 316 888 397 q 779 174 825 236 q 673 70 733 111 q 543 8 612 28 q 394 -11 473 -11 m 286 245 q 313 110 286 152 q 401 68 340 68 q 464 83 434 68 q 535 140 501 102 q 612 259 577 186 q 671 418 648 332 q 704 581 690 488 q 712 682 712 632 q 685 815 712 773 q 595 857 658 857 q 481 805 536 857 q 380 656 425 752 q 311 442 335 561 q 286 245 286 323 m 597 1167 l 565 1018 l 427 1018 l 460 1167 l 597 1167 m 849 1167 l 817 1018 l 679 1018 l 711 1167 l 849 1167 z "},"Ō":{"ha":938,"x_min":82,"x_max":916,"o":"m 394 -11 q 161 70 239 -11 q 82 309 82 151 q 93 431 82 362 q 130 577 104 500 q 201 723 155 654 q 308 840 246 791 q 444 912 369 888 q 602 937 519 937 q 837 856 757 937 q 916 621 916 775 q 902 476 916 556 q 857 316 888 397 q 779 174 825 236 q 673 70 733 111 q 543 8 612 28 q 394 -11 473 -11 m 286 245 q 313 110 286 152 q 401 68 340 68 q 464 83 434 68 q 535 140 501 102 q 612 259 577 186 q 671 418 648 332 q 704 581 690 488 q 712 682 712 632 q 685 815 712 773 q 595 857 658 857 q 481 805 536 857 q 380 656 425 752 q 311 442 335 561 q 286 245 286 323 m 817 1038 l 434 1038 l 457 1142 l 840 1142 l 817 1038 z "},"Ŏ":{"ha":938,"x_min":82,"x_max":916,"o":"m 394 -11 q 161 70 239 -11 q 82 309 82 151 q 93 431 82 362 q 130 577 104 500 q 201 723 155 654 q 308 840 246 791 q 444 912 369 888 q 602 937 519 937 q 837 856 757 937 q 916 621 916 775 q 902 476 916 556 q 857 316 888 397 q 779 174 825 236 q 673 70 733 111 q 543 8 612 28 q 394 -11 473 -11 m 286 245 q 313 110 286 152 q 401 68 340 68 q 464 83 434 68 q 535 140 501 102 q 612 259 577 186 q 671 418 648 332 q 704 581 690 488 q 712 682 712 632 q 685 815 712 773 q 595 857 658 857 q 481 805 536 857 q 380 656 425 752 q 311 442 335 561 q 286 245 286 323 m 874 1181 q 765 1048 827 1094 q 612 1003 702 1003 q 446 1206 451 1003 l 513 1218 q 549 1138 522 1165 q 627 1112 577 1112 q 731 1135 690 1112 q 815 1214 773 1159 l 874 1181 z "},"Ő":{"ha":938,"x_min":82,"x_max":971,"o":"m 394 -11 q 161 70 239 -11 q 82 309 82 151 q 93 431 82 362 q 130 577 104 500 q 201 723 155 654 q 308 840 246 791 q 444 912 369 888 q 602 937 519 937 q 837 856 757 937 q 916 621 916 775 q 902 476 916 556 q 857 316 888 397 q 779 174 825 236 q 673 70 733 111 q 543 8 612 28 q 394 -11 473 -11 m 286 245 q 313 110 286 152 q 401 68 340 68 q 464 83 434 68 q 535 140 501 102 q 612 259 577 186 q 671 418 648 332 q 704 581 690 488 q 712 682 712 632 q 685 815 712 773 q 595 857 658 857 q 481 805 536 857 q 380 656 425 752 q 311 442 335 561 q 286 245 286 323 m 722 1219 l 712 1175 l 447 996 l 407 1048 l 594 1219 l 722 1219 m 971 1219 l 961 1175 l 680 996 l 640 1048 l 836 1219 l 971 1219 z "},"Ø":{"ha":938,"x_min":8,"x_max":991,"o":"m 8 -92 l 147 85 q 82 309 82 164 q 93 431 82 362 q 130 577 104 500 q 201 723 155 654 q 308 840 246 791 q 444 912 369 888 q 602 937 519 937 q 786 895 711 937 l 882 1017 l 991 1017 l 851 840 q 916 621 916 760 q 902 476 916 556 q 857 316 888 397 q 779 174 825 236 q 673 70 733 111 q 543 8 612 28 q 394 -11 473 -11 q 212 30 283 -11 l 117 -92 l 8 -92 m 283 253 l 701 787 q 661 841 688 825 q 595 857 635 857 q 479 805 536 857 q 378 658 423 753 q 308 447 332 562 q 283 253 284 332 m 715 671 l 297 138 q 335 86 310 103 q 401 68 360 68 q 518 120 462 68 q 619 266 574 172 q 688 477 663 360 q 715 671 713 595 z "},"Ǿ":{"ha":938,"x_min":8,"x_max":991,"o":"m 8 -92 l 147 85 q 82 309 82 164 q 93 431 82 362 q 130 577 104 500 q 201 723 155 654 q 308 840 246 791 q 444 912 369 888 q 602 937 519 937 q 786 895 711 937 l 882 1017 l 991 1017 l 851 840 q 916 621 916 760 q 902 476 916 556 q 857 316 888 397 q 779 174 825 236 q 673 70 733 111 q 543 8 612 28 q 394 -11 473 -11 q 212 30 283 -11 l 117 -92 l 8 -92 m 283 253 l 701 787 q 661 841 688 825 q 595 857 635 857 q 479 805 536 857 q 378 658 423 753 q 308 447 332 562 q 283 253 284 332 m 715 671 l 297 138 q 335 86 310 103 q 401 68 360 68 q 518 120 462 68 q 619 266 574 172 q 688 477 663 360 q 715 671 713 595 m 868 1219 l 858 1175 l 550 996 l 510 1048 l 692 1219 l 868 1219 z "},"Œ":{"ha":1274,"x_min":82,"x_max":1343,"o":"m 1343 926 l 1295 707 l 1208 707 q 1196 798 1204 772 q 1168 835 1187 823 q 1117 846 1150 846 l 950 846 l 878 521 l 969 521 q 1015 530 996 521 q 1049 559 1034 538 q 1081 616 1065 580 l 1156 616 l 1090 341 l 1021 341 q 1016 401 1021 380 q 998 432 1011 422 q 954 441 985 441 l 861 441 l 781 79 l 930 79 q 977 83 960 79 q 1007 96 994 87 q 1040 124 1021 105 q 1076 173 1058 144 q 1113 244 1094 203 l 1205 244 l 1143 0 l 625 0 l 644 86 l 637 86 q 523 13 583 37 q 392 -11 463 -11 q 161 71 240 -11 q 82 309 82 152 q 107 499 82 393 q 180 689 132 605 q 293 828 228 772 q 432 910 357 883 q 583 937 506 937 q 673 927 635 937 q 740 900 711 918 q 804 845 770 882 l 811 845 l 828 926 l 1343 926 m 287 243 q 312 110 287 151 q 395 68 338 68 q 505 117 450 68 q 604 257 559 165 q 676 477 649 349 q 703 686 703 605 q 690 788 703 750 q 654 841 678 825 q 593 857 631 857 q 481 808 535 857 q 384 666 428 758 q 313 455 340 573 q 287 243 287 337 z "},"Ŕ":{"ha":878,"x_min":4,"x_max":859,"o":"m 615 424 q 674 360 656 391 q 706 270 693 329 l 726 175 q 746 101 736 123 q 773 65 756 79 q 819 45 789 52 l 809 0 l 567 0 q 528 151 545 64 l 506 264 q 484 344 496 315 q 451 386 471 373 q 398 399 431 399 l 356 399 l 307 183 q 300 144 302 161 q 298 104 298 128 q 314 60 298 73 q 364 45 330 47 l 355 0 l 4 0 l 14 45 q 57 67 42 53 q 83 107 73 81 q 105 183 94 134 l 229 743 q 237 822 237 783 q 224 864 237 850 q 181 881 211 877 l 191 926 l 529 926 q 637 922 597 926 q 713 907 677 918 q 775 879 749 896 q 820 840 802 863 q 849 786 839 817 q 859 718 859 755 q 798 544 859 615 q 614 430 738 473 l 615 424 m 416 478 q 527 494 484 478 q 600 542 571 509 q 645 618 629 574 q 661 715 661 661 q 627 814 661 781 q 522 846 594 846 q 453 845 471 846 l 374 478 l 416 478 m 840 1219 l 829 1175 l 522 996 l 481 1048 l 664 1219 l 840 1219 z "},"Ř":{"ha":878,"x_min":4,"x_max":859,"o":"m 615 424 q 674 360 656 391 q 706 270 693 329 l 726 175 q 746 101 736 123 q 773 65 756 79 q 819 45 789 52 l 809 0 l 567 0 q 528 151 545 64 l 506 264 q 484 344 496 315 q 451 386 471 373 q 398 399 431 399 l 356 399 l 307 183 q 300 144 302 161 q 298 104 298 128 q 314 60 298 73 q 364 45 330 47 l 355 0 l 4 0 l 14 45 q 57 67 42 53 q 83 107 73 81 q 105 183 94 134 l 229 743 q 237 822 237 783 q 224 864 237 850 q 181 881 211 877 l 191 926 l 529 926 q 637 922 597 926 q 713 907 677 918 q 775 879 749 896 q 820 840 802 863 q 849 786 839 817 q 859 718 859 755 q 798 544 859 615 q 614 430 738 473 l 615 424 m 416 478 q 527 494 484 478 q 600 542 571 509 q 645 618 629 574 q 661 715 661 661 q 627 814 661 781 q 522 846 594 846 q 453 845 471 846 l 374 478 l 416 478 m 530 1000 l 426 1177 l 475 1215 l 599 1102 l 606 1102 l 789 1215 l 828 1168 l 642 1000 l 530 1000 z "},"Ŗ":{"ha":878,"x_min":4,"x_max":859,"o":"m 615 424 q 674 360 656 391 q 706 270 693 329 l 726 175 q 746 101 736 123 q 773 65 756 79 q 819 45 789 52 l 809 0 l 567 0 q 528 151 545 64 l 506 264 q 484 344 496 315 q 451 386 471 373 q 398 399 431 399 l 356 399 l 307 183 q 300 144 302 161 q 298 104 298 128 q 314 60 298 73 q 364 45 330 47 l 355 0 l 4 0 l 14 45 q 57 67 42 53 q 83 107 73 81 q 105 183 94 134 l 229 743 q 237 822 237 783 q 224 864 237 850 q 181 881 211 877 l 191 926 l 529 926 q 637 922 597 926 q 713 907 677 918 q 775 879 749 896 q 820 840 802 863 q 849 786 839 817 q 859 718 859 755 q 798 544 859 615 q 614 430 738 473 l 615 424 m 416 478 q 527 494 484 478 q 600 542 571 509 q 645 618 629 574 q 661 715 661 661 q 627 814 661 781 q 522 846 594 846 q 453 845 471 846 l 374 478 l 416 478 m 456 -69 q 457 -90 457 -81 q 390 -233 457 -182 q 191 -292 322 -284 l 191 -227 q 265 -203 237 -221 q 308 -155 294 -185 q 325 -69 321 -125 l 456 -69 z "},"Ś":{"ha":696,"x_min":-5,"x_max":752,"o":"m 125 226 q 144 132 127 166 q 190 83 160 98 q 269 68 220 68 q 385 111 342 68 q 428 229 428 153 q 414 299 428 269 q 373 357 401 329 q 275 437 345 386 q 178 542 211 484 q 145 663 145 600 q 168 768 145 716 q 236 858 191 819 q 350 916 281 896 q 510 937 418 937 q 635 929 578 937 q 752 904 692 922 l 711 711 l 622 711 q 592 822 621 787 q 498 857 563 857 q 385 819 427 857 q 344 713 344 781 q 377 624 344 666 q 476 533 410 581 q 569 453 536 488 q 618 377 602 417 q 634 286 634 337 q 601 154 634 216 q 515 57 569 96 q 416 8 467 23 q 256 -11 353 -11 q 126 0 194 -11 q -5 31 58 11 l 37 226 l 125 226 m 747 1219 l 736 1175 l 429 996 l 389 1048 l 571 1219 l 747 1219 z "},"Ŝ":{"ha":696,"x_min":-5,"x_max":752,"o":"m 125 226 q 144 132 127 166 q 190 83 160 98 q 269 68 220 68 q 385 111 342 68 q 428 229 428 153 q 414 299 428 269 q 373 357 401 329 q 275 437 345 386 q 178 542 211 484 q 145 663 145 600 q 168 768 145 716 q 236 858 191 819 q 350 916 281 896 q 510 937 418 937 q 635 929 578 937 q 752 904 692 922 l 711 711 l 622 711 q 592 822 621 787 q 498 857 563 857 q 385 819 427 857 q 344 713 344 781 q 377 624 344 666 q 476 533 410 581 q 569 453 536 488 q 618 377 602 417 q 634 286 634 337 q 601 154 634 216 q 515 57 569 96 q 416 8 467 23 q 256 -11 353 -11 q 126 0 194 -11 q -5 31 58 11 l 37 226 l 125 226 m 602 1211 l 706 1033 l 657 995 l 533 1108 l 526 1108 l 342 995 l 304 1042 l 490 1211 l 602 1211 z "},"Š":{"ha":696,"x_min":-5,"x_max":752,"o":"m 125 226 q 144 132 127 166 q 190 83 160 98 q 269 68 220 68 q 385 111 342 68 q 428 229 428 153 q 414 299 428 269 q 373 357 401 329 q 275 437 345 386 q 178 542 211 484 q 145 663 145 600 q 168 768 145 716 q 236 858 191 819 q 350 916 281 896 q 510 937 418 937 q 635 929 578 937 q 752 904 692 922 l 711 711 l 622 711 q 592 822 621 787 q 498 857 563 857 q 385 819 427 857 q 344 713 344 781 q 377 624 344 666 q 476 533 410 581 q 569 453 536 488 q 618 377 602 417 q 634 286 634 337 q 601 154 634 216 q 515 57 569 96 q 416 8 467 23 q 256 -11 353 -11 q 126 0 194 -11 q -5 31 58 11 l 37 226 l 125 226 m 437 1000 l 334 1177 l 382 1215 l 507 1102 l 513 1102 l 697 1215 l 736 1168 l 549 1000 l 437 1000 z "},"Ş":{"ha":696,"x_min":-5,"x_max":752,"o":"m 125 226 q 144 132 127 166 q 190 83 160 98 q 269 68 220 68 q 385 111 342 68 q 428 229 428 153 q 414 299 428 269 q 373 357 401 329 q 275 437 345 386 q 178 542 211 484 q 145 663 145 600 q 168 768 145 716 q 236 858 191 819 q 350 916 281 896 q 510 937 418 937 q 635 929 578 937 q 752 904 692 922 l 711 711 l 622 711 q 592 822 621 787 q 498 857 563 857 q 385 819 427 857 q 344 713 344 781 q 377 624 344 666 q 476 533 410 581 q 569 453 536 488 q 618 377 602 417 q 634 286 634 337 q 603 158 634 219 q 513 56 571 97 q 387 0 454 15 l 315 -45 q 318 -92 318 -64 q 250 -234 318 -183 q 52 -292 182 -284 l 52 -227 q 144 -189 110 -220 q 180 -98 178 -157 l 187 -69 l 285 -10 q 271 -11 278 -11 l 256 -11 q 126 0 194 -11 q -5 31 58 11 l 37 226 l 125 226 z "},"Ș":{"ha":696,"x_min":-5,"x_max":752,"o":"m 125 226 q 144 132 127 166 q 190 83 160 98 q 269 68 220 68 q 385 111 342 68 q 428 229 428 153 q 414 299 428 269 q 373 357 401 329 q 275 437 345 386 q 178 542 211 484 q 145 663 145 600 q 168 768 145 716 q 236 858 191 819 q 350 916 281 896 q 510 937 418 937 q 635 929 578 937 q 752 904 692 922 l 711 711 l 622 711 q 592 822 621 787 q 498 857 563 857 q 385 819 427 857 q 344 713 344 781 q 377 624 344 666 q 476 533 410 581 q 569 453 536 488 q 618 377 602 417 q 634 286 634 337 q 601 154 634 216 q 515 57 569 96 q 416 8 467 23 q 256 -11 353 -11 q 126 0 194 -11 q -5 31 58 11 l 37 226 l 125 226 m 345 -69 q 347 -90 347 -81 q 279 -233 347 -182 q 80 -292 212 -284 l 80 -227 q 155 -203 126 -221 q 197 -155 183 -185 q 214 -69 211 -125 l 345 -69 z "},"Ť":{"ha":837,"x_min":126,"x_max":924,"o":"m 924 926 l 871 680 l 784 680 q 775 786 783 755 q 749 831 767 816 q 699 846 731 846 l 638 846 l 492 183 q 487 155 488 165 q 485 133 486 145 q 484 104 484 121 q 499 60 484 73 q 549 45 515 47 l 540 0 l 180 0 l 189 45 q 237 62 219 49 q 266 103 254 76 q 290 183 278 130 l 436 846 l 382 846 q 339 842 355 846 q 310 828 322 837 q 283 805 298 820 q 252 763 269 789 q 215 694 235 737 l 126 694 l 177 926 l 924 926 m 508 1000 l 404 1177 l 453 1215 l 577 1102 l 584 1102 l 768 1215 l 806 1168 l 620 1000 l 508 1000 z "},"Ţ":{"ha":837,"x_min":126,"x_max":924,"o":"m 924 926 l 871 680 l 784 680 q 775 786 783 755 q 749 831 767 816 q 699 846 731 846 l 638 846 l 492 183 q 487 155 488 165 q 485 133 486 145 q 484 104 484 121 q 499 60 484 73 q 549 45 515 47 l 540 0 l 180 0 l 189 45 q 237 62 219 49 q 266 103 254 76 q 290 183 278 130 l 436 846 l 382 846 q 339 842 355 846 q 310 828 322 837 q 283 805 298 820 q 252 763 269 789 q 215 694 235 737 l 126 694 l 177 926 l 924 926 m 417 -69 q 418 -90 418 -81 q 351 -233 418 -182 q 152 -292 283 -284 l 152 -227 q 227 -203 198 -221 q 269 -155 255 -185 q 286 -69 283 -125 l 417 -69 z "},"Ŧ":{"ha":837,"x_min":126,"x_max":924,"o":"m 709 411 l 543 411 l 492 183 q 487 155 488 165 q 485 133 486 145 q 484 104 484 121 q 499 60 484 73 q 549 45 515 47 l 540 0 l 180 0 l 189 45 q 237 62 219 49 q 266 103 254 76 q 290 183 278 130 l 340 411 l 174 411 l 193 496 l 359 496 l 436 846 l 382 846 q 339 842 355 846 q 310 828 322 837 q 283 805 298 820 q 252 763 269 789 q 215 694 235 737 l 126 694 l 177 926 l 924 926 l 871 680 l 784 680 q 775 786 783 755 q 749 831 767 816 q 699 846 731 846 l 638 846 l 561 496 l 727 496 l 709 411 z "},"Ù":{"ha":908,"x_min":119,"x_max":979,"o":"m 787 323 q 734 166 767 231 q 655 63 701 101 q 548 7 609 24 q 399 -11 487 -11 q 290 4 341 -11 q 201 49 239 18 q 141 125 163 79 q 119 234 119 171 q 123 307 119 267 q 146 430 128 347 l 217 743 q 226 822 226 782 q 213 864 226 850 q 170 881 199 877 l 179 926 l 520 926 l 511 881 q 467 859 482 873 q 441 818 452 844 q 419 743 430 792 l 328 327 q 314 251 317 281 q 311 193 311 221 q 341 100 311 132 q 429 68 371 68 q 526 94 487 68 q 588 165 564 119 q 627 285 611 212 l 728 743 q 736 788 734 769 q 737 822 737 806 q 724 864 737 850 q 681 881 711 877 l 690 926 l 979 926 l 970 881 q 925 857 940 872 q 899 816 909 842 q 878 743 888 789 l 787 323 m 584 1219 l 711 1039 l 664 996 l 426 1175 l 436 1219 l 584 1219 z "},"Ú":{"ha":908,"x_min":119,"x_max":979,"o":"m 787 323 q 734 166 767 231 q 655 63 701 101 q 548 7 609 24 q 399 -11 487 -11 q 290 4 341 -11 q 201 49 239 18 q 141 125 163 79 q 119 234 119 171 q 123 307 119 267 q 146 430 128 347 l 217 743 q 226 822 226 782 q 213 864 226 850 q 170 881 199 877 l 179 926 l 520 926 l 511 881 q 467 859 482 873 q 441 818 452 844 q 419 743 430 792 l 328 327 q 314 251 317 281 q 311 193 311 221 q 341 100 311 132 q 429 68 371 68 q 526 94 487 68 q 588 165 564 119 q 627 285 611 212 l 728 743 q 736 788 734 769 q 737 822 737 806 q 724 864 737 850 q 681 881 711 877 l 690 926 l 979 926 l 970 881 q 925 857 940 872 q 899 816 909 842 q 878 743 888 789 l 787 323 m 884 1219 l 873 1175 l 566 996 l 526 1048 l 708 1219 l 884 1219 z "},"Û":{"ha":908,"x_min":119,"x_max":979,"o":"m 787 323 q 734 166 767 231 q 655 63 701 101 q 548 7 609 24 q 399 -11 487 -11 q 290 4 341 -11 q 201 49 239 18 q 141 125 163 79 q 119 234 119 171 q 123 307 119 267 q 146 430 128 347 l 217 743 q 226 822 226 782 q 213 864 226 850 q 170 881 199 877 l 179 926 l 520 926 l 511 881 q 467 859 482 873 q 441 818 452 844 q 419 743 430 792 l 328 327 q 314 251 317 281 q 311 193 311 221 q 341 100 311 132 q 429 68 371 68 q 526 94 487 68 q 588 165 564 119 q 627 285 611 212 l 728 743 q 736 788 734 769 q 737 822 737 806 q 724 864 737 850 q 681 881 711 877 l 690 926 l 979 926 l 970 881 q 925 857 940 872 q 899 816 909 842 q 878 743 888 789 l 787 323 m 719 1211 l 823 1033 l 774 995 l 650 1108 l 643 1108 l 459 995 l 420 1042 l 607 1211 l 719 1211 z "},"Ũ":{"ha":908,"x_min":119,"x_max":979,"o":"m 787 323 q 734 166 767 231 q 655 63 701 101 q 548 7 609 24 q 399 -11 487 -11 q 290 4 341 -11 q 201 49 239 18 q 141 125 163 79 q 119 234 119 171 q 123 307 119 267 q 146 430 128 347 l 217 743 q 226 822 226 782 q 213 864 226 850 q 170 881 199 877 l 179 926 l 520 926 l 511 881 q 467 859 482 873 q 441 818 452 844 q 419 743 430 792 l 328 327 q 314 251 317 281 q 311 193 311 221 q 341 100 311 132 q 429 68 371 68 q 526 94 487 68 q 588 165 564 119 q 627 285 611 212 l 728 743 q 736 788 734 769 q 737 822 737 806 q 724 864 737 850 q 681 881 711 877 l 690 926 l 979 926 l 970 881 q 925 857 940 872 q 899 816 909 842 q 878 743 888 789 l 787 323 m 821 1186 l 876 1143 q 810 1056 839 1087 q 758 1013 782 1025 q 706 1000 734 1000 q 665 1008 682 1000 q 616 1041 647 1016 l 596 1057 q 579 1067 587 1063 q 563 1074 572 1072 q 544 1076 555 1076 q 512 1069 526 1076 q 483 1047 498 1063 q 446 999 467 1031 l 391 1042 q 457 1130 432 1102 q 507 1172 483 1158 q 562 1185 531 1185 q 590 1181 577 1185 q 614 1171 602 1178 q 648 1147 627 1164 q 680 1122 670 1128 q 699 1113 690 1116 q 725 1109 709 1109 q 771 1126 750 1109 q 821 1186 793 1143 z "},"Ü":{"ha":908,"x_min":119,"x_max":979,"o":"m 787 323 q 734 166 767 231 q 655 63 701 101 q 548 7 609 24 q 399 -11 487 -11 q 290 4 341 -11 q 201 49 239 18 q 141 125 163 79 q 119 234 119 171 q 123 307 119 267 q 146 430 128 347 l 217 743 q 226 822 226 782 q 213 864 226 850 q 170 881 199 877 l 179 926 l 520 926 l 511 881 q 467 859 482 873 q 441 818 452 844 q 419 743 430 792 l 328 327 q 314 251 317 281 q 311 193 311 221 q 341 100 311 132 q 429 68 371 68 q 526 94 487 68 q 588 165 564 119 q 627 285 611 212 l 728 743 q 736 788 734 769 q 737 822 737 806 q 724 864 737 850 q 681 881 711 877 l 690 926 l 979 926 l 970 881 q 925 857 940 872 q 899 816 909 842 q 878 743 888 789 l 787 323 m 593 1167 l 560 1018 l 422 1018 l 455 1167 l 593 1167 m 844 1167 l 812 1018 l 674 1018 l 707 1167 l 844 1167 z "},"Ū":{"ha":908,"x_min":119,"x_max":979,"o":"m 787 323 q 734 166 767 231 q 655 63 701 101 q 548 7 609 24 q 399 -11 487 -11 q 290 4 341 -11 q 201 49 239 18 q 141 125 163 79 q 119 234 119 171 q 123 307 119 267 q 146 430 128 347 l 217 743 q 226 822 226 782 q 213 864 226 850 q 170 881 199 877 l 179 926 l 520 926 l 511 881 q 467 859 482 873 q 441 818 452 844 q 419 743 430 792 l 328 327 q 314 251 317 281 q 311 193 311 221 q 341 100 311 132 q 429 68 371 68 q 526 94 487 68 q 588 165 564 119 q 627 285 611 212 l 728 743 q 736 788 734 769 q 737 822 737 806 q 724 864 737 850 q 681 881 711 877 l 690 926 l 979 926 l 970 881 q 925 857 940 872 q 899 816 909 842 q 878 743 888 789 l 787 323 m 812 1038 l 429 1038 l 452 1142 l 836 1142 l 812 1038 z "},"Ŭ":{"ha":908,"x_min":119,"x_max":979,"o":"m 787 323 q 734 166 767 231 q 655 63 701 101 q 548 7 609 24 q 399 -11 487 -11 q 290 4 341 -11 q 201 49 239 18 q 141 125 163 79 q 119 234 119 171 q 123 307 119 267 q 146 430 128 347 l 217 743 q 226 822 226 782 q 213 864 226 850 q 170 881 199 877 l 179 926 l 520 926 l 511 881 q 467 859 482 873 q 441 818 452 844 q 419 743 430 792 l 328 327 q 314 251 317 281 q 311 193 311 221 q 341 100 311 132 q 429 68 371 68 q 526 94 487 68 q 588 165 564 119 q 627 285 611 212 l 728 743 q 736 788 734 769 q 737 822 737 806 q 724 864 737 850 q 681 881 711 877 l 690 926 l 979 926 l 970 881 q 925 857 940 872 q 899 816 909 842 q 878 743 888 789 l 787 323 m 869 1181 q 760 1048 823 1094 q 608 1003 697 1003 q 441 1206 446 1003 l 508 1218 q 545 1138 517 1165 q 622 1112 572 1112 q 727 1135 685 1112 q 810 1214 768 1159 l 869 1181 z "},"Ů":{"ha":908,"x_min":119,"x_max":979,"o":"m 787 323 q 734 166 767 231 q 655 63 701 101 q 548 7 609 24 q 399 -11 487 -11 q 290 4 341 -11 q 201 49 239 18 q 141 125 163 79 q 119 234 119 171 q 123 307 119 267 q 146 430 128 347 l 217 743 q 226 822 226 782 q 213 864 226 850 q 170 881 199 877 l 179 926 l 520 926 l 511 881 q 467 859 482 873 q 441 818 452 844 q 419 743 430 792 l 328 327 q 314 251 317 281 q 311 193 311 221 q 341 100 311 132 q 429 68 371 68 q 526 94 487 68 q 588 165 564 119 q 627 285 611 212 l 728 743 q 736 788 734 769 q 737 822 737 806 q 724 864 737 850 q 681 881 711 877 l 690 926 l 979 926 l 970 881 q 925 857 940 872 q 899 816 909 842 q 878 743 888 789 l 787 323 m 604 960 q 510 987 543 960 q 477 1065 477 1015 q 490 1136 477 1100 q 527 1196 503 1171 q 585 1233 551 1220 q 657 1245 618 1245 q 759 1217 724 1245 q 794 1139 794 1188 q 770 1047 794 1090 q 704 982 747 1004 q 604 960 661 960 m 555 1072 q 570 1028 555 1044 q 614 1012 584 1012 q 670 1031 646 1012 q 705 1079 694 1050 q 715 1133 715 1108 q 701 1178 715 1162 q 658 1193 686 1193 q 606 1177 629 1193 q 569 1132 583 1160 q 555 1072 555 1103 z "},"Ű":{"ha":908,"x_min":119,"x_max":979,"o":"m 787 323 q 734 166 767 231 q 655 63 701 101 q 548 7 609 24 q 399 -11 487 -11 q 290 4 341 -11 q 201 49 239 18 q 141 125 163 79 q 119 234 119 171 q 123 307 119 267 q 146 430 128 347 l 217 743 q 226 822 226 782 q 213 864 226 850 q 170 881 199 877 l 179 926 l 520 926 l 511 881 q 467 859 482 873 q 441 818 452 844 q 419 743 430 792 l 328 327 q 314 251 317 281 q 311 193 311 221 q 341 100 311 132 q 429 68 371 68 q 526 94 487 68 q 588 165 564 119 q 627 285 611 212 l 728 743 q 736 788 734 769 q 737 822 737 806 q 724 864 737 850 q 681 881 711 877 l 690 926 l 979 926 l 970 881 q 925 857 940 872 q 899 816 909 842 q 878 743 888 789 l 787 323 m 718 1219 l 707 1175 l 442 996 l 402 1048 l 589 1219 l 718 1219 m 966 1219 l 956 1175 l 675 996 l 635 1048 l 831 1219 l 966 1219 z "},"Ų":{"ha":908,"x_min":119,"x_max":979,"o":"m 495 -3 q 399 -11 446 -11 q 290 4 341 -11 q 201 49 239 18 q 141 125 163 79 q 119 234 119 171 q 123 307 119 267 q 146 430 128 347 l 217 743 q 226 822 226 782 q 213 864 226 850 q 170 881 199 877 l 179 926 l 520 926 l 511 881 q 467 859 482 873 q 441 818 452 844 q 419 743 430 792 l 328 327 q 314 251 317 281 q 311 193 311 221 q 341 100 311 132 q 429 68 371 68 q 526 94 487 68 q 588 165 564 119 q 627 285 611 212 l 728 743 q 736 788 734 769 q 737 822 737 806 q 724 864 737 850 q 681 881 711 877 l 690 926 l 979 926 l 970 881 q 925 857 940 872 q 899 816 909 842 q 878 743 888 789 l 787 323 q 729 158 766 226 q 635 47 692 90 q 503 -72 550 -15 q 456 -171 456 -129 q 468 -206 456 -193 q 503 -218 480 -218 q 570 -197 538 -218 l 585 -257 q 527 -284 561 -273 q 463 -296 494 -296 q 373 -268 404 -296 q 342 -186 342 -239 q 379 -97 342 -142 q 495 -3 417 -52 z "},"Ẁ":{"ha":1291,"x_min":133,"x_max":1417,"o":"m 1118 661 q 1162 755 1148 719 q 1177 817 1177 792 q 1172 849 1177 837 q 1154 869 1167 861 q 1119 881 1141 878 l 1129 926 l 1417 926 l 1407 881 q 1368 865 1385 877 q 1335 832 1350 852 q 1304 786 1319 812 q 1264 713 1289 760 l 876 -5 l 713 -5 l 711 432 l 711 547 q 712 640 711 591 l 703 640 q 665 559 681 591 l 382 -5 l 219 -5 l 205 717 q 196 814 204 781 q 173 862 187 848 q 133 881 159 877 l 143 926 l 490 926 l 480 881 q 447 872 460 878 q 424 853 433 865 q 411 821 414 840 q 406 785 407 801 l 406 705 l 403 450 q 399 315 402 394 l 396 234 l 405 234 q 438 306 420 269 q 504 438 456 343 l 749 926 l 897 926 l 898 481 l 899 421 q 894 234 899 326 l 903 234 q 1017 464 935 300 l 1118 661 m 805 1219 l 932 1039 l 885 996 l 647 1175 l 657 1219 l 805 1219 z "},"Ẃ":{"ha":1291,"x_min":133,"x_max":1417,"o":"m 1118 661 q 1162 755 1148 719 q 1177 817 1177 792 q 1172 849 1177 837 q 1154 869 1167 861 q 1119 881 1141 878 l 1129 926 l 1417 926 l 1407 881 q 1368 865 1385 877 q 1335 832 1350 852 q 1304 786 1319 812 q 1264 713 1289 760 l 876 -5 l 713 -5 l 711 432 l 711 547 q 712 640 711 591 l 703 640 q 665 559 681 591 l 382 -5 l 219 -5 l 205 717 q 196 814 204 781 q 173 862 187 848 q 133 881 159 877 l 143 926 l 490 926 l 480 881 q 447 872 460 878 q 424 853 433 865 q 411 821 414 840 q 406 785 407 801 l 406 705 l 403 450 q 399 315 402 394 l 396 234 l 405 234 q 438 306 420 269 q 504 438 456 343 l 749 926 l 897 926 l 898 481 l 899 421 q 894 234 899 326 l 903 234 q 1017 464 935 300 l 1118 661 m 1059 1219 l 1048 1175 l 741 996 l 701 1048 l 883 1219 l 1059 1219 z "},"Ŵ":{"ha":1291,"x_min":133,"x_max":1417,"o":"m 1118 661 q 1162 755 1148 719 q 1177 817 1177 792 q 1172 849 1177 837 q 1154 869 1167 861 q 1119 881 1141 878 l 1129 926 l 1417 926 l 1407 881 q 1368 865 1385 877 q 1335 832 1350 852 q 1304 786 1319 812 q 1264 713 1289 760 l 876 -5 l 713 -5 l 711 432 l 711 547 q 712 640 711 591 l 703 640 q 665 559 681 591 l 382 -5 l 219 -5 l 205 717 q 196 814 204 781 q 173 862 187 848 q 133 881 159 877 l 143 926 l 490 926 l 480 881 q 447 872 460 878 q 424 853 433 865 q 411 821 414 840 q 406 785 407 801 l 406 705 l 403 450 q 399 315 402 394 l 396 234 l 405 234 q 438 306 420 269 q 504 438 456 343 l 749 926 l 897 926 l 898 481 l 899 421 q 894 234 899 326 l 903 234 q 1017 464 935 300 l 1118 661 m 913 1211 l 1017 1033 l 968 995 l 844 1108 l 838 1108 l 654 995 l 615 1042 l 802 1211 l 913 1211 z "},"Ẅ":{"ha":1291,"x_min":133,"x_max":1417,"o":"m 1118 661 q 1162 755 1148 719 q 1177 817 1177 792 q 1172 849 1177 837 q 1154 869 1167 861 q 1119 881 1141 878 l 1129 926 l 1417 926 l 1407 881 q 1368 865 1385 877 q 1335 832 1350 852 q 1304 786 1319 812 q 1264 713 1289 760 l 876 -5 l 713 -5 l 711 432 l 711 547 q 712 640 711 591 l 703 640 q 665 559 681 591 l 382 -5 l 219 -5 l 205 717 q 196 814 204 781 q 173 862 187 848 q 133 881 159 877 l 143 926 l 490 926 l 480 881 q 447 872 460 878 q 424 853 433 865 q 411 821 414 840 q 406 785 407 801 l 406 705 l 403 450 q 399 315 402 394 l 396 234 l 405 234 q 438 306 420 269 q 504 438 456 343 l 749 926 l 897 926 l 898 481 l 899 421 q 894 234 899 326 l 903 234 q 1017 464 935 300 l 1118 661 m 787 1167 l 755 1018 l 617 1018 l 650 1167 l 787 1167 m 1039 1167 l 1006 1018 l 869 1018 l 901 1167 l 1039 1167 z "},"Ỳ":{"ha":801,"x_min":125,"x_max":926,"o":"m 462 182 q 455 145 457 163 q 453 104 453 128 q 469 60 453 73 q 519 45 485 47 l 509 0 l 149 0 l 159 45 q 206 62 189 49 q 236 103 224 76 q 260 183 248 130 l 300 367 l 212 744 q 199 791 205 770 q 185 831 193 812 q 168 860 176 850 q 150 874 159 870 q 125 881 142 879 l 136 926 l 467 926 l 457 881 q 404 819 404 875 q 418 722 404 783 l 471 474 l 627 699 q 675 781 664 753 q 687 838 687 809 q 676 867 687 857 q 638 881 665 878 l 648 926 l 926 926 l 916 881 q 891 871 903 878 q 866 851 880 865 q 825 804 851 838 q 764 722 798 771 l 501 360 l 462 182 m 507 1219 l 634 1039 l 587 996 l 349 1175 l 359 1219 l 507 1219 z "},"Ý":{"ha":801,"x_min":125,"x_max":926,"o":"m 462 182 q 455 145 457 163 q 453 104 453 128 q 469 60 453 73 q 519 45 485 47 l 509 0 l 149 0 l 159 45 q 206 62 189 49 q 236 103 224 76 q 260 183 248 130 l 300 367 l 212 744 q 199 791 205 770 q 185 831 193 812 q 168 860 176 850 q 150 874 159 870 q 125 881 142 879 l 136 926 l 467 926 l 457 881 q 404 819 404 875 q 418 722 404 783 l 471 474 l 627 699 q 675 781 664 753 q 687 838 687 809 q 676 867 687 857 q 638 881 665 878 l 648 926 l 926 926 l 916 881 q 891 871 903 878 q 866 851 880 865 q 825 804 851 838 q 764 722 798 771 l 501 360 l 462 182 m 832 1219 l 822 1175 l 514 996 l 474 1048 l 656 1219 l 832 1219 z "},"Ŷ":{"ha":801,"x_min":125,"x_max":926,"o":"m 462 182 q 455 145 457 163 q 453 104 453 128 q 469 60 453 73 q 519 45 485 47 l 509 0 l 149 0 l 159 45 q 206 62 189 49 q 236 103 224 76 q 260 183 248 130 l 300 367 l 212 744 q 199 791 205 770 q 185 831 193 812 q 168 860 176 850 q 150 874 159 870 q 125 881 142 879 l 136 926 l 467 926 l 457 881 q 404 819 404 875 q 418 722 404 783 l 471 474 l 627 699 q 675 781 664 753 q 687 838 687 809 q 676 867 687 857 q 638 881 665 878 l 648 926 l 926 926 l 916 881 q 891 871 903 878 q 866 851 880 865 q 825 804 851 838 q 764 722 798 771 l 501 360 l 462 182 m 662 1211 l 766 1033 l 717 995 l 593 1108 l 586 1108 l 402 995 l 363 1042 l 550 1211 l 662 1211 z "},"Ÿ":{"ha":801,"x_min":125,"x_max":926,"o":"m 462 182 q 455 145 457 163 q 453 104 453 128 q 469 60 453 73 q 519 45 485 47 l 509 0 l 149 0 l 159 45 q 206 62 189 49 q 236 103 224 76 q 260 183 248 130 l 300 367 l 212 744 q 199 791 205 770 q 185 831 193 812 q 168 860 176 850 q 150 874 159 870 q 125 881 142 879 l 136 926 l 467 926 l 457 881 q 404 819 404 875 q 418 722 404 783 l 471 474 l 627 699 q 675 781 664 753 q 687 838 687 809 q 676 867 687 857 q 638 881 665 878 l 648 926 l 926 926 l 916 881 q 891 871 903 878 q 866 851 880 865 q 825 804 851 838 q 764 722 798 771 l 501 360 l 462 182 m 536 1167 l 503 1018 l 366 1018 l 398 1167 l 536 1167 m 787 1167 l 755 1018 l 617 1018 l 650 1167 l 787 1167 z "},"Ź":{"ha":755,"x_min":-18,"x_max":833,"o":"m 254 81 l 426 81 q 463 84 448 81 q 488 93 477 87 q 510 110 498 99 q 538 144 522 121 q 568 192 555 167 q 594 252 581 217 l 683 252 l 629 0 l -18 0 l -9 45 l 560 845 l 395 845 q 351 841 366 845 q 324 828 336 837 q 295 802 311 820 q 259 749 279 783 q 228 688 239 715 l 139 688 l 191 926 l 833 926 l 823 881 l 254 81 m 777 1219 l 767 1175 l 459 996 l 419 1048 l 602 1219 l 777 1219 z "},"Ž":{"ha":755,"x_min":-18,"x_max":833,"o":"m 254 81 l 426 81 q 463 84 448 81 q 488 93 477 87 q 510 110 498 99 q 538 144 522 121 q 568 192 555 167 q 594 252 581 217 l 683 252 l 629 0 l -18 0 l -9 45 l 560 845 l 395 845 q 351 841 366 845 q 324 828 336 837 q 295 802 311 820 q 259 749 279 783 q 228 688 239 715 l 139 688 l 191 926 l 833 926 l 823 881 l 254 81 m 467 1000 l 363 1177 l 412 1215 l 536 1102 l 543 1102 l 727 1215 l 766 1168 l 579 1000 l 467 1000 z "},"Ż":{"ha":755,"x_min":-18,"x_max":833,"o":"m 254 81 l 426 81 q 463 84 448 81 q 488 93 477 87 q 510 110 498 99 q 538 144 522 121 q 568 192 555 167 q 594 252 581 217 l 683 252 l 629 0 l -18 0 l -9 45 l 560 845 l 395 845 q 351 841 366 845 q 324 828 336 837 q 295 802 311 820 q 259 749 279 783 q 228 688 239 715 l 139 688 l 191 926 l 833 926 l 823 881 l 254 81 m 652 1176 l 617 1010 l 441 1010 l 479 1176 l 652 1176 z "},"Ŋ":{"ha":919,"x_min":3,"x_max":983,"o":"m 721 14 q 685 -103 706 -54 q 640 -186 665 -153 q 588 -236 616 -216 q 526 -266 560 -256 q 441 -275 492 -275 q 389 -270 420 -275 q 341 -258 357 -264 l 374 -107 l 452 -107 q 463 -150 453 -137 q 493 -163 472 -163 q 557 -128 530 -163 q 605 -17 584 -93 l 610 0 l 564 0 l 401 474 q 367 578 382 530 q 331 701 352 627 l 321 702 q 300 577 315 656 q 264 404 285 497 l 215 183 q 210 155 211 165 q 207 133 208 145 q 206 104 206 121 q 219 62 206 75 q 262 45 233 49 l 253 0 l 3 0 l 13 45 q 57 67 41 53 q 83 107 72 81 q 104 183 94 134 l 228 743 q 237 822 237 783 q 223 864 237 850 q 180 881 210 877 l 190 926 l 448 926 l 578 542 q 663 265 632 385 l 672 265 q 724 525 692 382 l 771 743 q 780 822 780 783 q 767 864 780 850 q 724 881 753 877 l 733 926 l 983 926 l 973 881 q 929 859 945 873 q 903 818 914 844 q 882 743 892 792 l 721 14 z "},"Ð":{"ha":948,"x_min":9,"x_max":921,"o":"m 9 0 l 19 45 q 63 67 47 53 q 89 107 78 81 q 111 183 100 134 l 168 442 l 56 442 l 74 528 l 186 528 l 234 743 q 243 822 243 783 q 230 864 243 850 q 186 881 216 877 l 196 926 l 471 926 q 629 917 568 926 q 736 888 690 908 q 800 852 766 875 q 863 791 835 830 q 906 699 891 753 q 921 580 921 646 q 893 380 921 474 q 815 214 866 287 q 695 92 768 145 q 554 24 631 45 q 344 0 469 0 l 9 0 m 388 528 l 555 528 l 536 442 l 369 442 l 290 83 q 340 80 321 80 q 491 115 428 80 q 604 220 555 149 q 681 393 653 291 q 709 598 709 495 q 694 715 709 668 q 651 792 678 763 q 587 834 623 821 q 510 846 551 846 q 458 845 476 846 l 388 528 z "},"Þ":{"ha":835,"x_min":4,"x_max":821,"o":"m 355 0 l 4 0 l 14 45 q 57 67 42 53 q 83 107 73 81 q 105 183 94 134 l 229 743 q 237 822 237 783 q 224 864 237 850 q 181 881 211 877 l 191 926 l 532 926 l 522 881 q 480 860 495 873 q 454 823 465 846 q 434 757 444 799 l 492 757 q 600 753 563 757 q 693 732 651 748 q 763 690 734 716 q 806 627 791 664 q 821 543 821 590 q 793 407 821 467 q 713 303 765 347 q 582 238 662 260 q 404 216 503 216 l 385 216 q 315 219 343 216 l 307 183 q 300 144 302 161 q 298 104 298 128 q 314 60 298 74 q 364 45 330 47 l 355 0 m 368 294 q 480 310 436 294 q 554 359 524 326 q 598 439 583 392 q 614 541 614 486 q 582 644 614 610 q 481 677 549 677 q 416 676 444 677 l 332 294 l 368 294 z "},"a":{"ha":791,"x_min":50,"x_max":755,"o":"m 618 635 l 680 684 l 755 673 l 651 200 q 639 142 643 164 q 635 106 635 121 q 650 62 635 75 q 703 45 665 48 l 696 0 l 435 0 l 472 139 l 463 142 q 377 49 417 82 q 299 3 338 16 q 211 -11 261 -11 q 127 12 163 -11 q 71 82 92 34 q 50 205 50 131 q 66 349 50 277 q 115 485 83 422 q 197 592 148 547 q 310 660 247 637 q 446 684 372 684 q 618 635 547 684 m 516 422 q 524 470 521 444 q 527 522 527 497 q 510 590 527 567 q 454 613 493 613 q 342 550 391 613 q 264 379 294 486 q 234 187 234 272 q 249 113 234 138 q 294 89 263 89 q 385 133 338 89 q 460 235 431 176 q 511 397 488 294 l 516 422 z "},"b":{"ha":788,"x_min":35,"x_max":744,"o":"m 338 556 l 347 553 q 426 631 390 603 q 499 671 462 659 q 582 684 536 684 q 665 662 629 684 q 723 591 701 640 q 744 467 744 542 q 730 336 744 408 q 690 209 715 264 q 628 113 664 154 q 548 44 592 71 q 452 3 503 17 q 341 -11 400 -11 q 256 0 296 -11 q 172 38 215 11 l 109 -11 l 35 0 l 206 766 q 220 863 220 830 q 217 887 220 878 q 208 901 214 895 q 192 909 202 906 q 153 916 182 912 l 163 960 l 363 971 l 442 971 l 338 556 m 278 251 q 267 153 267 201 q 284 81 267 103 q 340 60 300 60 q 386 68 365 60 q 428 95 408 76 q 470 149 449 113 q 516 251 496 194 q 548 371 536 308 q 559 486 559 433 q 545 560 559 536 q 500 584 530 584 q 409 540 455 584 q 334 439 362 496 q 283 276 307 381 l 278 251 z "},"c":{"ha":628,"x_min":52,"x_max":659,"o":"m 515 180 l 570 121 q 427 19 498 50 q 271 -11 356 -11 q 151 19 201 -11 q 77 104 102 49 q 52 234 52 159 q 66 351 52 293 q 93 435 77 394 q 144 531 115 490 q 227 613 178 578 q 336 666 275 648 q 467 684 397 684 q 565 676 512 684 q 659 656 618 669 l 621 491 l 498 491 q 500 520 500 505 q 485 591 500 569 q 441 613 470 613 q 345 555 391 613 q 269 395 300 498 q 239 216 239 293 q 332 88 239 88 q 420 109 378 88 q 515 180 462 130 z "},"d":{"ha":791,"x_min":50,"x_max":822,"o":"m 585 766 q 595 815 589 783 q 600 863 600 847 q 597 887 600 878 q 588 901 594 895 q 572 909 582 906 q 532 916 562 912 l 543 960 l 745 971 l 822 971 l 651 200 q 640 144 644 167 q 635 106 635 121 q 650 62 635 75 q 703 45 665 48 l 696 0 l 435 0 l 472 139 l 463 142 q 377 49 417 82 q 299 3 338 16 q 211 -11 261 -11 q 127 12 163 -11 q 71 82 92 34 q 50 205 50 131 q 66 349 50 277 q 115 485 83 422 q 197 592 147 547 q 309 660 246 637 q 446 684 372 684 q 562 663 506 684 l 585 766 m 516 422 q 524 469 520 442 q 527 522 527 496 q 510 590 527 567 q 454 613 493 613 q 342 550 391 613 q 264 379 294 486 q 234 187 234 272 q 249 113 234 138 q 294 89 263 89 q 385 133 338 89 q 460 235 431 176 q 511 397 488 294 l 516 422 z "},"e":{"ha":692,"x_min":52,"x_max":679,"o":"m 617 141 q 470 26 549 64 q 298 -11 391 -11 q 163 17 219 -11 q 80 99 108 45 q 52 230 52 154 q 61 320 52 265 q 100 453 74 395 q 187 576 134 525 q 313 656 241 628 q 471 684 385 684 q 626 647 573 684 q 679 534 679 610 q 658 443 679 482 q 589 372 637 404 q 453 320 541 340 q 241 298 366 300 q 233 215 233 258 q 237 167 233 190 q 254 127 242 144 q 287 99 267 109 q 339 88 307 88 q 447 112 399 88 q 560 198 495 136 l 617 141 m 258 369 q 449 417 382 372 q 515 543 515 461 q 499 595 515 577 q 454 613 483 613 q 341 551 391 613 q 258 369 290 488 z "},"f":{"ha":445,"x_min":-169,"x_max":661,"o":"m 92 588 l 102 633 q 143 640 130 635 q 168 651 157 644 q 186 677 178 659 q 205 732 195 694 q 248 839 222 797 q 315 913 274 882 q 412 959 357 945 q 534 974 467 974 q 591 972 560 974 q 661 962 622 970 l 631 826 l 543 826 q 530 886 541 868 q 496 903 519 903 q 468 897 480 903 q 444 876 456 891 q 422 830 433 860 q 400 747 412 801 l 383 673 l 512 673 l 494 588 l 364 588 l 241 21 q 175 -159 218 -88 q 63 -267 132 -231 q -104 -303 -5 -303 q -169 -294 -136 -303 l -151 -220 q -106 -226 -132 -226 q -56 -217 -75 -226 q -21 -188 -37 -209 q 8 -127 -5 -168 q 38 -15 22 -87 l 174 588 l 92 588 z "},"g":{"ha":785,"x_min":-85,"x_max":755,"o":"m 103 -56 q 78 -98 85 -79 q 71 -141 71 -118 q 103 -210 71 -187 q 199 -233 135 -233 q 285 -217 247 -233 q 355 -166 323 -201 q 414 -60 387 -130 q 467 129 441 10 l 458 135 q 376 48 414 79 q 300 3 338 17 q 212 -11 261 -11 q 129 12 165 -11 q 71 82 92 34 q 50 205 50 131 q 77 389 50 298 q 154 545 104 479 q 278 647 203 610 q 448 684 352 684 q 536 673 496 684 q 618 635 576 663 l 680 684 l 755 673 l 697 408 q 671 283 683 342 l 629 74 q 593 -65 611 -11 q 557 -146 576 -113 q 515 -201 539 -177 q 466 -243 492 -226 q 404 -273 438 -261 q 318 -295 366 -288 q 202 -303 267 -303 q 42 -286 107 -303 q -54 -235 -22 -269 q -85 -150 -85 -201 q -56 -71 -85 -108 q 33 1 -26 -33 l 103 -56 m 516 422 q 527 520 527 473 q 510 590 527 567 q 454 613 493 613 q 345 552 393 613 q 265 382 296 491 q 234 187 234 274 q 249 113 234 138 q 294 89 263 89 q 353 107 323 89 q 415 165 382 126 q 471 259 448 204 q 511 397 493 314 l 516 422 z "},"h":{"ha":805,"x_min":35,"x_max":732,"o":"m 338 557 l 347 554 q 457 652 401 621 q 583 684 513 684 q 692 645 652 684 q 732 537 732 606 q 718 432 732 493 l 663 181 q 653 133 656 150 q 651 104 651 116 q 666 61 651 73 q 719 45 682 49 l 711 0 l 429 0 l 514 369 q 536 477 532 448 q 541 524 541 507 q 528 570 541 555 q 490 585 515 585 q 443 568 469 585 q 385 517 417 552 q 334 444 353 483 q 304 348 315 406 l 229 0 l 35 0 l 206 766 q 221 863 221 833 q 218 887 221 878 q 209 901 215 895 q 193 909 203 906 q 153 916 182 912 l 163 960 l 366 971 l 443 971 l 338 557 z "},"i":{"ha":420,"x_min":43,"x_max":433,"o":"m 433 943 l 397 777 l 222 777 l 259 943 l 433 943 m 276 181 q 267 131 269 147 q 264 104 264 115 q 280 62 264 75 q 332 45 295 49 l 325 0 l 43 0 l 149 473 q 161 537 157 514 q 164 575 164 559 q 152 613 164 602 q 99 628 139 624 l 109 673 l 308 680 l 385 680 l 276 181 z "},"j":{"ha":412,"x_min":-169,"x_max":433,"o":"m 433 943 l 397 777 l 222 777 l 259 943 l 433 943 m 241 21 q 174 -160 218 -89 q 62 -267 131 -231 q -104 -303 -6 -303 q -169 -294 -136 -303 l -151 -220 q -106 -226 -132 -226 q -56 -217 -75 -226 q -21 -188 -37 -209 q 8 -127 -5 -168 q 38 -15 22 -87 l 148 473 q 160 535 157 511 q 163 575 163 559 q 151 613 163 602 q 98 628 138 624 l 109 673 l 307 680 l 385 680 l 241 21 z "},"k":{"ha":747,"x_min":35,"x_max":785,"o":"m 317 400 l 330 400 q 371 407 351 400 q 416 430 390 413 q 487 483 443 448 q 529 523 515 505 q 548 556 543 541 q 554 589 554 572 q 546 615 554 604 q 515 628 537 626 l 526 673 l 768 673 l 785 629 q 671 528 743 583 l 519 414 l 607 165 q 634 98 623 120 q 663 62 646 75 q 712 45 680 50 l 702 0 l 460 0 l 370 293 q 357 322 363 314 q 343 333 351 330 q 320 336 334 336 l 303 336 l 229 0 l 35 0 l 206 766 q 221 863 221 833 q 218 887 221 878 q 209 901 215 895 q 193 909 203 906 q 153 916 182 912 l 163 960 l 366 971 l 443 971 l 317 400 z "},"l":{"ha":412,"x_min":35,"x_max":443,"o":"m 366 971 l 443 971 l 268 181 q 259 133 261 150 q 256 104 256 116 q 272 62 256 75 q 324 45 287 49 l 317 0 l 35 0 l 206 766 q 221 863 221 833 q 218 887 221 878 q 209 901 215 895 q 193 909 203 906 q 153 916 182 912 l 163 960 l 366 971 z "},"m":{"ha":1203,"x_min":43,"x_max":1130,"o":"m 737 543 q 852 650 795 616 q 982 684 910 684 q 1091 645 1052 684 q 1130 537 1130 606 q 1116 432 1130 493 l 1061 181 q 1052 133 1054 150 q 1049 104 1049 116 q 1064 61 1049 73 q 1117 45 1080 49 l 1109 0 l 827 0 l 921 408 q 932 460 928 439 q 938 495 936 480 q 939 522 939 510 q 927 569 939 553 q 889 585 914 585 q 842 567 869 585 q 785 516 816 550 q 735 444 754 482 q 705 348 716 406 l 630 0 l 435 0 l 532 425 q 542 469 539 452 q 546 496 545 485 q 547 517 547 508 q 534 569 547 553 q 496 585 522 585 q 419 543 464 585 q 350 459 375 502 q 312 348 326 416 l 237 0 l 43 0 l 149 479 q 158 525 153 495 q 164 576 164 555 q 148 615 164 604 q 98 628 132 625 l 109 673 l 295 680 l 366 680 l 328 534 l 336 531 q 423 622 383 589 q 502 669 463 655 q 589 684 541 684 q 696 646 657 684 q 737 543 735 609 z "},"n":{"ha":813,"x_min":43,"x_max":740,"o":"m 719 0 l 437 0 l 522 369 q 545 477 541 448 q 549 524 549 507 q 536 570 549 555 q 498 585 523 585 q 451 568 477 585 q 393 517 425 552 q 342 444 361 483 q 312 348 323 406 l 237 0 l 43 0 l 149 479 q 158 525 153 495 q 164 576 164 555 q 148 615 164 604 q 98 628 132 625 l 109 673 l 295 680 l 366 680 l 328 534 l 336 531 q 422 622 382 589 q 502 669 463 654 q 590 684 542 684 q 700 645 660 684 q 740 537 740 606 q 726 432 740 493 l 671 181 q 662 133 664 150 q 659 104 659 116 q 674 61 659 73 q 727 45 690 49 l 719 0 z "},"o":{"ha":750,"x_min":52,"x_max":703,"o":"m 304 -11 q 173 16 229 -11 q 84 97 116 43 q 52 231 52 152 q 56 297 52 260 q 75 391 61 343 q 114 490 90 447 q 174 575 140 539 q 247 634 208 610 q 334 669 287 657 q 450 684 389 684 q 591 653 534 684 q 676 567 648 622 q 703 439 703 512 q 673 260 703 350 q 591 109 644 170 q 467 18 538 47 q 304 -11 395 -11 m 234 186 q 255 91 234 123 q 320 60 275 60 q 368 70 345 60 q 413 106 391 81 q 452 171 435 132 q 486 267 470 210 q 511 379 502 324 q 519 481 519 434 q 499 581 519 549 q 435 613 478 613 q 336 558 378 613 q 264 387 294 503 q 234 186 234 271 z "},"p":{"ha":793,"x_min":-22,"x_max":749,"o":"m 148 473 q 164 574 164 546 q 150 613 164 602 q 98 628 136 625 l 109 673 l 292 680 l 366 680 l 328 534 l 336 531 q 421 623 382 590 q 499 670 460 656 q 588 684 538 684 q 671 661 635 684 q 728 590 707 639 q 749 467 749 542 q 733 323 749 396 q 684 188 716 251 q 602 81 652 125 q 490 13 553 36 q 353 -11 427 -11 q 237 10 293 -11 l 206 -133 q 202 -154 204 -144 q 200 -172 201 -163 q 199 -188 199 -180 q 215 -230 199 -217 q 267 -247 230 -243 l 260 -292 l -22 -292 l 148 473 m 283 251 q 273 153 273 201 q 289 81 273 103 q 345 60 306 60 q 392 68 370 60 q 434 95 413 76 q 475 149 454 113 q 522 251 502 194 q 553 371 542 308 q 565 486 565 433 q 550 560 565 536 q 505 584 536 584 q 414 540 460 584 q 340 439 368 496 q 289 276 312 381 l 283 251 z "},"q":{"ha":784,"x_min":50,"x_max":755,"o":"m 452 127 q 373 45 411 75 q 298 1 336 14 q 212 -12 260 -12 q 127 11 163 -12 q 71 82 92 33 q 50 205 50 131 q 66 349 50 277 q 115 485 83 422 q 197 592 148 547 q 310 660 247 637 q 446 684 372 684 q 618 635 547 684 l 680 684 l 755 673 l 583 -111 q 574 -161 576 -144 q 572 -189 572 -177 q 587 -231 572 -218 q 640 -248 602 -243 l 632 -292 l 351 -292 l 461 125 l 452 127 m 516 422 q 527 521 527 472 q 510 590 527 567 q 454 613 493 613 q 342 551 391 613 q 264 381 294 488 q 234 187 234 273 q 249 113 234 138 q 294 89 263 89 q 385 133 338 89 q 460 235 431 176 q 511 397 488 294 l 516 422 z "},"r":{"ha":633,"x_min":43,"x_max":680,"o":"m 640 488 l 519 488 q 509 551 519 534 q 475 569 499 569 q 453 565 465 569 q 426 549 441 560 q 389 513 410 538 q 353 464 368 488 q 330 414 339 440 q 312 348 320 388 l 237 0 l 43 0 l 149 479 q 164 576 164 546 q 148 615 164 604 q 98 628 132 625 l 109 673 l 295 680 l 372 680 l 321 523 l 329 520 q 449 642 386 601 q 585 684 512 684 q 680 671 630 684 l 640 488 z "},"s":{"ha":614,"x_min":-3,"x_max":616,"o":"m 121 190 q 141 112 125 141 q 182 71 158 82 q 239 60 207 60 q 322 86 293 60 q 351 159 351 112 q 342 208 351 188 q 311 246 332 227 q 240 294 289 264 q 141 379 172 335 q 111 477 111 422 q 185 630 111 576 q 394 684 260 684 q 506 675 446 684 q 616 652 566 667 l 581 490 l 494 490 q 462 583 488 553 q 387 613 436 613 q 314 590 342 613 q 287 526 287 566 q 297 482 287 501 q 331 444 308 463 q 399 398 354 425 q 503 310 471 355 q 534 203 534 264 q 497 85 534 134 q 396 13 460 37 q 250 -11 332 -11 q 115 -2 177 -11 q -3 22 52 7 l 35 190 l 121 190 z "},"t":{"ha":505,"x_min":75,"x_max":547,"o":"m 496 123 q 410 43 448 71 q 331 2 372 16 q 235 -11 290 -11 q 144 9 180 -11 q 92 63 108 29 q 75 138 75 96 q 80 199 75 170 q 100 294 85 228 l 170 588 l 78 588 l 87 633 q 153 647 130 635 q 194 680 177 658 q 225 739 210 701 q 258 842 240 777 l 421 842 l 382 673 l 547 673 l 528 588 l 362 588 l 287 278 q 278 238 282 258 q 271 200 274 218 q 268 171 269 182 q 267 149 267 159 q 278 103 267 117 q 312 88 290 88 q 375 110 342 88 q 444 177 407 132 l 496 123 z "},"u":{"ha":812,"x_min":79,"x_max":775,"o":"m 100 673 l 381 673 l 296 304 q 274 195 278 225 q 270 149 270 165 q 282 102 270 117 q 319 88 295 88 q 349 95 333 88 q 380 114 364 101 q 418 149 395 126 q 457 196 440 171 q 485 251 474 222 q 506 325 496 280 l 581 673 l 775 673 l 669 194 q 660 148 665 178 q 654 97 654 117 q 670 58 654 68 q 720 45 686 47 l 709 0 l 454 0 l 490 139 l 482 142 q 360 26 419 63 q 227 -11 302 -11 q 119 28 159 -11 q 79 136 79 67 q 92 241 79 180 l 148 492 q 157 540 155 523 q 159 569 159 557 q 144 611 159 599 q 92 628 130 623 l 100 673 z "},"v":{"ha":694,"x_min":54,"x_max":719,"o":"m 695 673 l 719 628 q 324 -10 633 401 l 193 -10 l 130 507 q 114 583 123 561 q 93 616 106 606 q 54 628 80 626 l 64 673 l 303 673 l 350 166 q 501 411 452 312 q 549 574 549 509 q 537 613 549 600 q 494 628 525 627 l 504 673 l 695 673 z "},"w":{"ha":1074,"x_min":58,"x_max":1095,"o":"m 1072 673 l 1095 628 q 956 361 1063 536 q 701 -10 848 186 l 586 -10 l 565 191 q 553 313 556 272 q 551 379 551 355 l 544 379 q 446 200 506 300 q 306 -10 385 100 l 182 -10 l 129 511 q 117 582 124 559 q 97 615 110 604 q 58 628 83 626 l 68 673 l 304 673 l 342 180 q 456 373 420 302 q 510 504 492 444 q 534 628 528 563 l 544 673 l 696 673 l 739 180 q 881 421 837 328 q 926 574 926 514 q 913 613 926 600 q 871 628 901 627 l 880 673 l 1072 673 z "},"x":{"ha":671,"x_min":-35,"x_max":705,"o":"m 401 435 q 480 522 462 491 q 498 585 498 553 q 490 613 498 602 q 458 628 481 625 l 469 673 l 688 673 l 705 628 q 624 546 675 596 q 523 448 573 496 q 431 363 472 401 l 525 154 q 551 103 539 124 q 572 72 562 82 q 591 55 581 61 q 618 45 601 49 l 608 0 l 385 0 l 290 255 q 193 156 215 189 q 172 90 172 122 q 180 60 172 72 q 212 45 189 47 l 201 0 l -18 0 l -35 45 q 103 182 8 91 q 260 327 199 273 l 189 487 q 155 561 168 536 q 131 597 142 585 q 110 616 120 610 q 78 628 99 623 l 88 673 l 313 673 l 401 435 z "},"y":{"ha":694,"x_min":-147,"x_max":719,"o":"m 191 0 l 130 503 q 116 577 124 553 q 95 614 109 602 q 54 628 82 625 l 64 673 l 303 673 l 350 166 q 501 411 452 313 q 549 574 549 509 q 537 613 549 600 q 494 628 525 627 l 504 673 l 695 673 l 719 628 q 632 447 690 551 q 487 215 574 342 q 302 -39 399 87 q 166 -198 221 -144 q 87 -260 125 -239 q 24 -288 58 -279 q -52 -296 -9 -296 q -99 -292 -73 -296 q -147 -281 -126 -288 l -114 -128 l -42 -128 q -31 -170 -41 -157 q 1 -184 -20 -184 q 53 -174 30 -184 q 99 -145 75 -165 q 155 -89 123 -125 q 230 0 188 -53 l 191 0 z "},"z":{"ha":656,"x_min":-10,"x_max":673,"o":"m 367 242 q 295 155 334 200 q 228 78 257 109 l 233 72 l 361 72 q 409 80 389 72 q 446 105 429 87 q 478 150 463 123 q 509 212 494 176 l 581 212 l 536 0 l 14 0 l -10 45 l 290 423 q 435 595 365 517 l 431 601 l 303 601 q 256 591 277 601 q 215 556 235 581 q 163 473 194 531 l 90 473 l 133 673 l 650 673 l 673 628 l 367 242 z "},"à":{"ha":791,"x_min":50,"x_max":755,"o":"m 618 635 l 680 684 l 755 673 l 651 200 q 639 142 643 164 q 635 106 635 121 q 650 62 635 75 q 703 45 665 48 l 696 0 l 435 0 l 472 139 l 463 142 q 377 49 417 82 q 299 3 338 16 q 211 -11 261 -11 q 127 12 163 -11 q 71 82 92 34 q 50 205 50 131 q 66 349 50 277 q 115 485 83 422 q 197 592 148 547 q 310 660 247 637 q 446 684 372 684 q 618 635 547 684 m 516 422 q 524 470 521 444 q 527 522 527 497 q 510 590 527 567 q 454 613 493 613 q 342 550 391 613 q 264 379 294 486 q 234 187 234 272 q 249 113 234 138 q 294 89 263 89 q 385 133 338 89 q 460 235 431 176 q 511 397 488 294 l 516 422 m 492 1000 l 585 770 l 527 738 l 360 956 l 370 1000 l 492 1000 z "},"á":{"ha":791,"x_min":50,"x_max":755,"o":"m 618 635 l 680 684 l 755 673 l 651 200 q 639 142 643 164 q 635 106 635 121 q 650 62 635 75 q 703 45 665 48 l 696 0 l 435 0 l 472 139 l 463 142 q 377 49 417 82 q 299 3 338 16 q 211 -11 261 -11 q 127 12 163 -11 q 71 82 92 34 q 50 205 50 131 q 66 349 50 277 q 115 485 83 422 q 197 592 148 547 q 310 660 247 637 q 446 684 372 684 q 618 635 547 684 m 516 422 q 524 470 521 444 q 527 522 527 497 q 510 590 527 567 q 454 613 493 613 q 342 550 391 613 q 264 379 294 486 q 234 187 234 272 q 249 113 234 138 q 294 89 263 89 q 385 133 338 89 q 460 235 431 176 q 511 397 488 294 l 516 422 m 731 1000 l 722 956 l 444 737 l 395 786 l 576 1000 l 731 1000 z "},"â":{"ha":791,"x_min":50,"x_max":755,"o":"m 618 635 l 680 684 l 755 673 l 651 200 q 639 142 643 164 q 635 106 635 121 q 650 62 635 75 q 703 45 665 48 l 696 0 l 435 0 l 472 139 l 463 142 q 377 49 417 82 q 299 3 338 16 q 211 -11 261 -11 q 127 12 163 -11 q 71 82 92 34 q 50 205 50 131 q 66 349 50 277 q 115 485 83 422 q 197 592 148 547 q 310 660 247 637 q 446 684 372 684 q 618 635 547 684 m 516 422 q 524 470 521 444 q 527 522 527 497 q 510 590 527 567 q 454 613 493 613 q 342 550 391 613 q 264 379 294 486 q 234 187 234 272 q 249 113 234 138 q 294 89 263 89 q 385 133 338 89 q 460 235 431 176 q 511 397 488 294 l 516 422 m 604 996 l 692 770 l 631 738 l 532 886 l 526 886 l 343 738 l 298 784 l 489 996 l 604 996 z "},"ã":{"ha":791,"x_min":50,"x_max":756,"o":"m 618 635 l 680 684 l 755 673 l 651 200 q 639 142 643 164 q 635 106 635 121 q 650 62 635 75 q 703 45 665 48 l 696 0 l 435 0 l 472 139 l 463 142 q 377 49 417 82 q 299 3 338 16 q 211 -11 261 -11 q 127 12 163 -11 q 71 82 92 34 q 50 205 50 131 q 66 349 50 277 q 115 485 83 422 q 197 592 148 547 q 310 660 247 637 q 446 684 372 684 q 618 635 547 684 m 516 422 q 524 470 521 444 q 527 522 527 497 q 510 590 527 567 q 454 613 493 613 q 342 550 391 613 q 264 379 294 486 q 234 187 234 272 q 249 113 234 138 q 294 89 263 89 q 385 133 338 89 q 460 235 431 176 q 511 397 488 294 l 516 422 m 701 952 l 756 909 q 690 822 719 853 q 638 779 662 791 q 586 766 614 766 q 545 774 562 766 q 496 807 527 782 l 476 823 q 459 833 467 829 q 443 840 452 838 q 424 842 435 842 q 392 836 406 842 q 363 813 378 829 q 326 765 347 797 l 271 808 q 337 896 312 868 q 387 938 363 924 q 441 951 411 951 q 470 947 457 951 q 494 937 482 944 q 528 913 507 930 q 560 888 550 895 q 579 879 570 882 q 605 876 589 876 q 651 892 630 876 q 701 952 673 909 z "},"ä":{"ha":791,"x_min":50,"x_max":755,"o":"m 618 635 l 680 684 l 755 673 l 651 200 q 639 142 643 164 q 635 106 635 121 q 650 62 635 75 q 703 45 665 48 l 696 0 l 435 0 l 472 139 l 463 142 q 377 49 417 82 q 299 3 338 16 q 211 -11 261 -11 q 127 12 163 -11 q 71 82 92 34 q 50 205 50 131 q 66 349 50 277 q 115 485 83 422 q 197 592 148 547 q 310 660 247 637 q 446 684 372 684 q 618 635 547 684 m 516 422 q 524 470 521 444 q 527 522 527 497 q 510 590 527 567 q 454 613 493 613 q 342 550 391 613 q 264 379 294 486 q 234 187 234 272 q 249 113 234 138 q 294 89 263 89 q 385 133 338 89 q 460 235 431 176 q 511 397 488 294 l 516 422 m 479 935 l 446 786 l 309 786 l 342 935 l 479 935 m 718 935 l 685 786 l 547 786 l 580 935 l 718 935 z "},"ā":{"ha":791,"x_min":50,"x_max":755,"o":"m 618 635 l 680 684 l 755 673 l 651 200 q 639 142 643 164 q 635 106 635 121 q 650 62 635 75 q 703 45 665 48 l 696 0 l 435 0 l 472 139 l 463 142 q 377 49 417 82 q 299 3 338 16 q 211 -11 261 -11 q 127 12 163 -11 q 71 82 92 34 q 50 205 50 131 q 66 349 50 277 q 115 485 83 422 q 197 592 148 547 q 310 660 247 637 q 446 684 372 684 q 618 635 547 684 m 516 422 q 524 470 521 444 q 527 522 527 497 q 510 590 527 567 q 454 613 493 613 q 342 550 391 613 q 264 379 294 486 q 234 187 234 272 q 249 113 234 138 q 294 89 263 89 q 385 133 338 89 q 460 235 431 176 q 511 397 488 294 l 516 422 m 684 808 l 321 808 l 344 913 l 707 913 l 684 808 z "},"ă":{"ha":791,"x_min":50,"x_max":755,"o":"m 618 635 l 680 684 l 755 673 l 651 200 q 639 142 643 164 q 635 106 635 121 q 650 62 635 75 q 703 45 665 48 l 696 0 l 435 0 l 472 139 l 463 142 q 377 49 417 82 q 299 3 338 16 q 211 -11 261 -11 q 127 12 163 -11 q 71 82 92 34 q 50 205 50 131 q 66 349 50 277 q 115 485 83 422 q 197 592 148 547 q 310 660 247 637 q 446 684 372 684 q 618 635 547 684 m 516 422 q 524 470 521 444 q 527 522 527 497 q 510 590 527 567 q 454 613 493 613 q 342 550 391 613 q 264 379 294 486 q 234 187 234 272 q 249 113 234 138 q 294 89 263 89 q 385 133 338 89 q 460 235 431 176 q 511 397 488 294 l 516 422 m 743 943 q 635 811 698 856 q 488 766 573 766 q 367 817 408 766 q 325 968 326 869 l 392 981 q 426 902 400 929 q 502 874 452 874 q 603 898 563 874 q 684 977 644 922 l 743 943 z "},"å":{"ha":791,"x_min":50,"x_max":755,"o":"m 618 635 l 680 684 l 755 673 l 651 200 q 639 142 643 164 q 635 106 635 121 q 650 62 635 75 q 703 45 665 48 l 696 0 l 435 0 l 472 139 l 463 142 q 377 49 417 82 q 299 3 338 16 q 211 -11 261 -11 q 127 12 163 -11 q 71 82 92 34 q 50 205 50 131 q 66 349 50 277 q 115 485 83 422 q 197 592 148 547 q 310 660 247 637 q 446 684 372 684 q 618 635 547 684 m 516 422 q 524 470 521 444 q 527 522 527 497 q 510 590 527 567 q 454 613 493 613 q 342 550 391 613 q 264 379 294 486 q 234 187 234 272 q 249 113 234 138 q 294 89 263 89 q 385 133 338 89 q 460 235 431 176 q 511 397 488 294 l 516 422 m 486 735 q 392 763 425 735 q 359 840 359 790 q 372 910 359 876 q 410 969 385 944 q 472 1007 436 994 q 547 1021 507 1021 q 644 993 612 1021 q 676 915 676 966 q 653 823 676 865 q 586 758 629 781 q 486 735 543 735 m 437 848 q 452 804 437 820 q 496 787 466 787 q 552 807 528 787 q 587 855 576 826 q 597 909 597 884 q 583 953 597 938 q 540 968 568 968 q 488 952 511 968 q 451 907 465 936 q 437 848 437 878 z "},"ǻ":{"ha":791,"x_min":50,"x_max":779,"o":"m 618 635 l 680 684 l 755 673 l 651 200 q 639 142 643 164 q 635 106 635 121 q 650 62 635 75 q 703 45 665 48 l 696 0 l 435 0 l 472 139 l 463 142 q 377 49 417 82 q 299 3 338 16 q 211 -11 261 -11 q 127 12 163 -11 q 71 82 92 34 q 50 205 50 131 q 66 349 50 277 q 115 485 83 422 q 197 592 148 547 q 310 660 247 637 q 446 684 372 684 q 618 635 547 684 m 516 422 q 524 470 521 444 q 527 522 527 497 q 510 590 527 567 q 454 613 493 613 q 342 550 391 613 q 264 379 294 486 q 234 187 234 272 q 249 113 234 138 q 294 89 263 89 q 385 133 338 89 q 460 235 431 176 q 511 397 488 294 l 516 422 m 779 1291 l 769 1246 l 491 1028 l 443 1077 l 624 1291 l 779 1291 m 486 735 q 392 763 425 735 q 359 840 359 790 q 372 910 359 876 q 410 969 385 944 q 472 1007 436 994 q 547 1021 507 1021 q 644 993 612 1021 q 676 915 676 966 q 653 823 676 865 q 586 758 629 781 q 486 735 543 735 m 437 848 q 452 804 437 820 q 496 787 466 787 q 552 807 528 787 q 587 855 576 826 q 597 909 597 884 q 583 953 597 938 q 540 968 568 968 q 488 952 511 968 q 451 907 465 936 q 437 848 437 878 z "},"ą":{"ha":791,"x_min":50,"x_max":755,"o":"m 549 0 l 435 0 l 472 139 l 463 142 q 377 49 417 82 q 299 3 338 16 q 211 -11 261 -11 q 127 12 163 -11 q 71 82 92 34 q 50 205 50 131 q 66 349 50 277 q 115 485 83 422 q 197 592 148 547 q 310 660 247 637 q 446 684 372 684 q 618 635 547 684 l 680 684 l 755 673 l 651 200 q 639 142 643 164 q 635 106 635 121 q 650 62 635 75 q 703 45 665 48 l 696 0 l 635 0 q 535 -98 566 -58 q 505 -171 505 -138 q 517 -206 505 -193 q 551 -218 529 -218 q 619 -197 587 -218 l 633 -257 q 576 -284 610 -273 q 512 -296 543 -296 q 422 -268 453 -296 q 391 -186 391 -239 q 395 -155 391 -170 q 410 -122 399 -140 q 439 -84 420 -104 q 484 -44 457 -64 q 549 0 511 -23 m 516 422 q 524 470 521 444 q 527 522 527 497 q 510 590 527 567 q 454 613 493 613 q 342 550 391 613 q 264 379 294 486 q 234 187 234 272 q 249 113 234 138 q 294 89 263 89 q 385 133 338 89 q 460 235 431 176 q 511 397 488 294 l 516 422 z "},"æ":{"ha":1043,"x_min":11,"x_max":1029,"o":"m 968 141 q 820 26 899 64 q 649 -11 741 -11 q 513 20 570 -11 q 425 113 456 51 l 418 113 q 297 20 357 50 q 177 -11 238 -11 q 53 26 96 -11 q 11 131 11 62 q 62 260 11 205 q 208 343 113 314 q 433 373 303 372 l 449 448 q 458 522 458 493 q 439 588 458 566 q 376 610 420 610 q 292 575 324 610 q 245 475 259 541 l 113 475 l 138 595 q 251 645 205 627 q 346 673 298 662 q 441 684 394 684 q 501 677 477 684 q 547 652 526 670 q 583 602 568 634 l 589 602 q 705 663 648 642 q 823 684 763 684 q 977 646 925 684 q 1029 536 1029 609 q 1008 441 1029 481 q 938 369 986 400 q 802 319 889 338 q 592 298 715 300 q 583 215 583 258 q 588 167 583 190 q 605 127 593 144 q 637 99 617 109 q 690 88 658 88 q 799 113 751 88 q 911 198 847 138 l 968 141 m 608 369 q 799 417 733 372 q 865 543 865 461 q 849 595 865 577 q 805 613 833 613 q 691 551 742 613 q 608 369 641 488 m 420 307 q 241 268 302 304 q 181 161 181 231 q 201 106 181 124 q 257 87 222 87 q 317 105 288 87 q 372 160 347 122 q 409 256 397 199 l 420 307 z "},"ǽ":{"ha":1043,"x_min":11,"x_max":1029,"o":"m 968 141 q 820 26 899 64 q 649 -11 741 -11 q 513 20 570 -11 q 425 113 456 51 l 418 113 q 297 20 357 50 q 177 -11 238 -11 q 53 26 96 -11 q 11 131 11 62 q 62 260 11 205 q 208 343 113 314 q 433 373 303 372 l 449 448 q 458 522 458 493 q 439 588 458 566 q 376 610 420 610 q 292 575 324 610 q 245 475 259 541 l 113 475 l 138 595 q 251 645 205 627 q 346 673 298 662 q 441 684 394 684 q 501 677 477 684 q 547 652 526 670 q 583 602 568 634 l 589 602 q 705 663 648 642 q 823 684 763 684 q 977 646 925 684 q 1029 536 1029 609 q 1008 441 1029 481 q 938 369 986 400 q 802 319 889 338 q 592 298 715 300 q 583 215 583 258 q 588 167 583 190 q 605 127 593 144 q 637 99 617 109 q 690 88 658 88 q 799 113 751 88 q 911 198 847 138 l 968 141 m 608 369 q 799 417 733 372 q 865 543 865 461 q 849 595 865 577 q 805 613 833 613 q 691 551 742 613 q 608 369 641 488 m 420 307 q 241 268 302 304 q 181 161 181 231 q 201 106 181 124 q 257 87 222 87 q 317 105 288 87 q 372 160 347 122 q 409 256 397 199 l 420 307 m 857 1000 l 847 956 l 569 737 l 521 786 l 702 1000 l 857 1000 z "},"ć":{"ha":628,"x_min":52,"x_max":669,"o":"m 515 180 l 570 121 q 427 19 498 50 q 271 -11 356 -11 q 151 19 201 -11 q 77 104 102 49 q 52 234 52 159 q 66 351 52 293 q 93 435 77 394 q 144 531 115 490 q 227 613 178 578 q 336 666 275 648 q 467 684 397 684 q 565 676 512 684 q 659 656 618 669 l 621 491 l 498 491 q 500 520 500 505 q 485 591 500 569 q 441 613 470 613 q 345 555 391 613 q 269 395 300 498 q 239 216 239 293 q 332 88 239 88 q 420 109 378 88 q 515 180 462 130 m 669 1000 l 659 956 l 381 737 l 333 786 l 514 1000 l 669 1000 z "},"ĉ":{"ha":628,"x_min":52,"x_max":659,"o":"m 515 180 l 570 121 q 427 19 498 50 q 271 -11 356 -11 q 151 19 201 -11 q 77 104 102 49 q 52 234 52 159 q 66 351 52 293 q 93 435 77 394 q 144 531 115 490 q 227 613 178 578 q 336 666 275 648 q 467 684 397 684 q 565 676 512 684 q 659 656 618 669 l 621 491 l 498 491 q 500 520 500 505 q 485 591 500 569 q 441 613 470 613 q 345 555 391 613 q 269 395 300 498 q 239 216 239 293 q 332 88 239 88 q 420 109 378 88 q 515 180 462 130 m 544 996 l 633 770 l 572 738 l 473 886 l 466 886 l 283 738 l 239 784 l 429 996 l 544 996 z "},"č":{"ha":628,"x_min":52,"x_max":674,"o":"m 515 180 l 570 121 q 427 19 498 50 q 271 -11 356 -11 q 151 19 201 -11 q 77 104 102 49 q 52 234 52 159 q 66 351 52 293 q 93 435 77 394 q 144 531 115 490 q 227 613 178 578 q 336 666 275 648 q 467 684 397 684 q 565 676 512 684 q 659 656 618 669 l 621 491 l 498 491 q 500 520 500 505 q 485 591 500 569 q 441 613 470 613 q 345 555 391 613 q 269 395 300 498 q 239 216 239 293 q 332 88 239 88 q 420 109 378 88 q 515 180 462 130 m 369 748 l 280 973 l 341 1006 l 440 858 l 447 858 l 629 1006 l 674 960 l 484 748 l 369 748 z "},"ċ":{"ha":628,"x_min":52,"x_max":659,"o":"m 515 180 l 570 121 q 427 19 498 50 q 271 -11 356 -11 q 151 19 201 -11 q 77 104 102 49 q 52 234 52 159 q 66 351 52 293 q 93 435 77 394 q 144 531 115 490 q 227 613 178 578 q 336 666 275 648 q 467 684 397 684 q 565 676 512 684 q 659 656 618 669 l 621 491 l 498 491 q 500 520 500 505 q 485 591 500 569 q 441 613 470 613 q 345 555 391 613 q 269 395 300 498 q 239 216 239 293 q 332 88 239 88 q 420 109 378 88 q 515 180 462 130 m 559 943 l 524 777 l 349 777 l 386 943 l 559 943 z "},"ç":{"ha":628,"x_min":52,"x_max":659,"o":"m 498 491 q 500 520 500 505 q 485 591 500 569 q 441 613 470 613 q 345 555 391 613 q 269 395 300 498 q 239 216 239 293 q 332 88 239 88 q 420 109 378 88 q 515 180 462 130 l 570 121 q 510 68 541 93 q 438 24 478 43 l 327 -45 q 330 -92 330 -64 q 262 -234 330 -183 q 64 -292 195 -284 l 64 -227 q 156 -189 122 -220 q 193 -98 191 -157 l 199 -69 l 302 -9 q 271 -11 287 -11 q 151 19 201 -11 q 77 104 102 49 q 52 234 52 159 q 66 351 52 293 q 93 435 77 394 q 144 531 115 490 q 227 613 178 578 q 336 666 275 648 q 467 684 397 684 q 565 676 512 684 q 659 656 618 669 l 621 491 l 498 491 z "},"ď":{"ha":975,"x_min":50,"x_max":1074,"o":"m 585 766 q 595 815 589 783 q 600 863 600 847 q 597 887 600 878 q 588 901 594 895 q 572 909 582 906 q 532 916 562 912 l 543 960 l 745 971 l 822 971 l 651 200 q 640 144 644 167 q 635 106 635 121 q 650 62 635 75 q 703 45 665 48 l 696 0 l 435 0 l 472 139 l 463 142 q 377 49 417 82 q 299 3 338 16 q 211 -11 261 -11 q 127 12 163 -11 q 71 82 92 34 q 50 205 50 131 q 66 349 50 277 q 115 485 83 422 q 197 592 147 547 q 309 660 246 637 q 446 684 372 684 q 562 663 506 684 l 585 766 m 516 422 q 524 469 520 442 q 527 522 527 496 q 510 590 527 567 q 454 613 493 613 q 342 550 391 613 q 264 379 294 486 q 234 187 234 272 q 249 113 234 138 q 294 89 263 89 q 385 133 338 89 q 460 235 431 176 q 511 397 488 294 l 516 422 m 1072 970 q 1074 942 1074 958 l 1074 932 q 1063 853 1074 887 q 1030 790 1052 819 q 975 735 1008 762 q 880 667 943 709 l 844 714 q 917 815 894 756 q 941 970 941 874 l 1072 970 z "},"đ":{"ha":791,"x_min":50,"x_max":874,"o":"m 858 760 l 775 760 l 651 200 q 640 143 644 166 q 635 106 635 121 q 650 62 635 75 q 703 45 665 48 l 696 0 l 435 0 l 472 139 l 463 142 q 377 49 417 82 q 299 3 338 16 q 211 -11 261 -11 q 127 12 163 -11 q 71 82 92 34 q 50 205 50 131 q 66 349 50 277 q 115 485 83 422 q 197 592 147 547 q 309 660 246 637 q 446 684 372 684 q 562 663 506 684 l 585 760 l 361 760 l 378 836 l 602 836 q 604 863 604 848 q 598 893 604 882 q 577 909 591 904 q 532 916 564 914 l 543 960 l 745 971 l 822 971 l 792 836 l 874 836 l 858 760 m 515 422 q 526 520 526 472 q 510 591 526 568 q 454 613 493 613 q 408 605 429 613 q 366 578 387 597 q 323 524 345 559 q 277 422 297 479 q 245 302 257 365 q 234 187 234 239 q 249 113 234 138 q 294 89 263 89 q 384 132 338 89 q 458 232 429 174 q 510 397 486 290 l 515 422 z "},"è":{"ha":692,"x_min":52,"x_max":679,"o":"m 617 141 q 470 26 549 64 q 298 -11 391 -11 q 163 17 219 -11 q 80 99 108 45 q 52 230 52 154 q 61 320 52 265 q 100 453 74 395 q 187 576 134 525 q 313 656 241 628 q 471 684 385 684 q 626 647 573 684 q 679 534 679 610 q 658 443 679 482 q 589 372 637 404 q 453 320 541 340 q 241 298 366 300 q 233 215 233 258 q 237 167 233 190 q 254 127 242 144 q 287 99 267 109 q 339 88 307 88 q 447 112 399 88 q 560 198 495 136 l 617 141 m 258 369 q 449 417 382 372 q 515 543 515 461 q 499 595 515 577 q 454 613 483 613 q 341 551 391 613 q 258 369 290 488 m 463 1000 l 555 770 l 498 738 l 331 956 l 340 1000 l 463 1000 z "},"é":{"ha":692,"x_min":52,"x_max":702,"o":"m 617 141 q 470 26 549 64 q 298 -11 391 -11 q 163 17 219 -11 q 80 99 108 45 q 52 230 52 154 q 61 320 52 265 q 100 453 74 395 q 187 576 134 525 q 313 656 241 628 q 471 684 385 684 q 626 647 573 684 q 679 534 679 610 q 658 443 679 482 q 589 372 637 404 q 453 320 541 340 q 241 298 366 300 q 233 215 233 258 q 237 167 233 190 q 254 127 242 144 q 287 99 267 109 q 339 88 307 88 q 447 112 399 88 q 560 198 495 136 l 617 141 m 258 369 q 449 417 382 372 q 515 543 515 461 q 499 595 515 577 q 454 613 483 613 q 341 551 391 613 q 258 369 290 488 m 702 1000 l 692 956 l 414 737 l 366 786 l 547 1000 l 702 1000 z "},"ê":{"ha":692,"x_min":52,"x_max":679,"o":"m 617 141 q 470 26 549 64 q 298 -11 391 -11 q 163 17 219 -11 q 80 99 108 45 q 52 230 52 154 q 61 320 52 265 q 100 453 74 395 q 187 576 134 525 q 313 656 241 628 q 471 684 385 684 q 626 647 573 684 q 679 534 679 610 q 658 443 679 482 q 589 372 637 404 q 453 320 541 340 q 241 298 366 300 q 233 215 233 258 q 237 167 233 190 q 254 127 242 144 q 287 99 267 109 q 339 88 307 88 q 447 112 399 88 q 560 198 495 136 l 617 141 m 258 369 q 449 417 382 372 q 515 543 515 461 q 499 595 515 577 q 454 613 483 613 q 341 551 391 613 q 258 369 290 488 m 568 996 l 656 770 l 595 738 l 496 886 l 490 886 l 307 738 l 262 784 l 453 996 l 568 996 z "},"ě":{"ha":692,"x_min":52,"x_max":699,"o":"m 617 141 q 470 26 549 64 q 298 -11 391 -11 q 163 17 219 -11 q 80 99 108 45 q 52 230 52 154 q 61 320 52 265 q 100 453 74 395 q 187 576 134 525 q 313 656 241 628 q 471 684 385 684 q 626 647 573 684 q 679 534 679 610 q 658 443 679 482 q 589 372 637 404 q 453 320 541 340 q 241 298 366 300 q 233 215 233 258 q 237 167 233 190 q 254 127 242 144 q 287 99 267 109 q 339 88 307 88 q 447 112 399 88 q 560 198 495 136 l 617 141 m 258 369 q 449 417 382 372 q 515 543 515 461 q 499 595 515 577 q 454 613 483 613 q 341 551 391 613 q 258 369 290 488 m 393 748 l 304 973 l 366 1006 l 465 858 l 471 858 l 654 1006 l 699 960 l 508 748 l 393 748 z "},"ë":{"ha":692,"x_min":52,"x_max":682,"o":"m 617 141 q 470 26 549 64 q 298 -11 391 -11 q 163 17 219 -11 q 80 99 108 45 q 52 230 52 154 q 61 320 52 265 q 100 453 74 395 q 187 576 134 525 q 313 656 241 628 q 471 684 385 684 q 626 647 573 684 q 679 534 679 610 q 658 443 679 482 q 589 372 637 404 q 453 320 541 340 q 241 298 366 300 q 233 215 233 258 q 237 167 233 190 q 254 127 242 144 q 287 99 267 109 q 339 88 307 88 q 447 112 399 88 q 560 198 495 136 l 617 141 m 258 369 q 449 417 382 372 q 515 543 515 461 q 499 595 515 577 q 454 613 483 613 q 341 551 391 613 q 258 369 290 488 m 444 935 l 411 786 l 274 786 l 307 935 l 444 935 m 682 935 l 650 786 l 512 786 l 545 935 l 682 935 z "},"ē":{"ha":692,"x_min":52,"x_max":679,"o":"m 617 141 q 470 26 549 64 q 298 -11 391 -11 q 163 17 219 -11 q 80 99 108 45 q 52 230 52 154 q 61 320 52 265 q 100 453 74 395 q 187 576 134 525 q 313 656 241 628 q 471 684 385 684 q 626 647 573 684 q 679 534 679 610 q 658 443 679 482 q 589 372 637 404 q 453 320 541 340 q 241 298 366 300 q 233 215 233 258 q 237 167 233 190 q 254 127 242 144 q 287 99 267 109 q 339 88 307 88 q 447 112 399 88 q 560 198 495 136 l 617 141 m 258 369 q 449 417 382 372 q 515 543 515 461 q 499 595 515 577 q 454 613 483 613 q 341 551 391 613 q 258 369 290 488 m 648 808 l 285 808 l 308 913 l 671 913 l 648 808 z "},"ĕ":{"ha":692,"x_min":52,"x_max":708,"o":"m 617 141 q 470 26 549 64 q 298 -11 391 -11 q 163 17 219 -11 q 80 99 108 45 q 52 230 52 154 q 61 320 52 265 q 100 453 74 395 q 187 576 134 525 q 313 656 241 628 q 471 684 385 684 q 626 647 573 684 q 679 534 679 610 q 658 443 679 482 q 589 372 637 404 q 453 320 541 340 q 241 298 366 300 q 233 215 233 258 q 237 167 233 190 q 254 127 242 144 q 287 99 267 109 q 339 88 307 88 q 447 112 399 88 q 560 198 495 136 l 617 141 m 258 369 q 449 417 382 372 q 515 543 515 461 q 499 595 515 577 q 454 613 483 613 q 341 551 391 613 q 258 369 290 488 m 708 943 q 600 811 663 856 q 452 766 538 766 q 332 817 373 766 q 290 968 290 869 l 357 981 q 391 902 365 929 q 467 874 416 874 q 568 898 528 874 q 649 977 608 922 l 708 943 z "},"ė":{"ha":692,"x_min":52,"x_max":679,"o":"m 617 141 q 470 26 549 64 q 298 -11 391 -11 q 163 17 219 -11 q 80 99 108 45 q 52 230 52 154 q 61 320 52 265 q 100 453 74 395 q 187 576 134 525 q 313 656 241 628 q 471 684 385 684 q 626 647 573 684 q 679 534 679 610 q 658 443 679 482 q 589 372 637 404 q 453 320 541 340 q 241 298 366 300 q 233 215 233 258 q 237 167 233 190 q 254 127 242 144 q 287 99 267 109 q 339 88 307 88 q 447 112 399 88 q 560 198 495 136 l 617 141 m 258 369 q 449 417 382 372 q 515 543 515 461 q 499 595 515 577 q 454 613 483 613 q 341 551 391 613 q 258 369 290 488 m 583 943 l 548 777 l 372 777 l 410 943 l 583 943 z "},"ę":{"ha":692,"x_min":52,"x_max":679,"o":"m 241 298 q 233 215 233 258 q 237 167 233 190 q 254 127 242 144 q 287 99 267 109 q 339 88 307 88 q 446 112 397 88 q 560 198 494 136 l 617 141 q 541 71 580 100 q 470 7 500 35 q 419 -43 439 -20 q 387 -84 399 -65 q 368 -118 374 -103 q 359 -145 361 -132 q 356 -171 356 -158 q 368 -206 356 -193 q 403 -218 380 -218 q 471 -197 438 -218 l 485 -257 q 428 -284 461 -273 q 363 -296 394 -296 q 273 -268 304 -296 q 242 -186 242 -239 q 280 -94 242 -142 q 387 -1 319 -45 q 298 -11 345 -11 q 163 17 219 -11 q 80 99 108 45 q 52 230 52 154 q 61 320 52 265 q 100 453 74 395 q 187 576 134 525 q 313 656 241 628 q 471 684 385 684 q 626 647 573 684 q 679 534 679 610 q 658 443 679 482 q 589 372 637 404 q 453 320 541 340 q 241 298 366 300 m 258 369 q 449 417 382 372 q 515 543 515 461 q 499 595 515 577 q 454 613 483 613 q 341 551 391 613 q 258 369 290 488 z "},"ĝ":{"ha":785,"x_min":-85,"x_max":755,"o":"m 103 -56 q 78 -98 85 -79 q 71 -141 71 -118 q 103 -210 71 -187 q 199 -233 135 -233 q 285 -217 247 -233 q 355 -166 323 -201 q 414 -60 387 -130 q 467 129 441 10 l 458 135 q 376 48 414 79 q 300 3 338 17 q 212 -11 261 -11 q 129 12 165 -11 q 71 82 92 34 q 50 205 50 131 q 77 389 50 298 q 154 545 104 479 q 278 647 203 610 q 448 684 352 684 q 536 673 496 684 q 618 635 576 663 l 680 684 l 755 673 l 697 408 q 671 283 683 342 l 629 74 q 593 -65 611 -11 q 557 -146 576 -113 q 515 -201 539 -177 q 466 -243 492 -226 q 404 -273 438 -261 q 318 -295 366 -288 q 202 -303 267 -303 q 42 -286 107 -303 q -54 -235 -22 -269 q -85 -150 -85 -201 q -56 -71 -85 -108 q 33 1 -26 -33 l 103 -56 m 516 422 q 527 520 527 473 q 510 590 527 567 q 454 613 493 613 q 345 552 393 613 q 265 382 296 491 q 234 187 234 274 q 249 113 234 138 q 294 89 263 89 q 353 107 323 89 q 415 165 382 126 q 471 259 448 204 q 511 397 493 314 l 516 422 m 600 996 l 689 770 l 628 738 l 529 886 l 522 886 l 340 738 l 295 784 l 486 996 l 600 996 z "},"ğ":{"ha":785,"x_min":-85,"x_max":755,"o":"m 103 -56 q 78 -98 85 -79 q 71 -141 71 -118 q 103 -210 71 -187 q 199 -233 135 -233 q 285 -217 247 -233 q 355 -166 323 -201 q 414 -60 387 -130 q 467 129 441 10 l 458 135 q 376 48 414 79 q 300 3 338 17 q 212 -11 261 -11 q 129 12 165 -11 q 71 82 92 34 q 50 205 50 131 q 77 389 50 298 q 154 545 104 479 q 278 647 203 610 q 448 684 352 684 q 536 673 496 684 q 618 635 576 663 l 680 684 l 755 673 l 697 408 q 671 283 683 342 l 629 74 q 593 -65 611 -11 q 557 -146 576 -113 q 515 -201 539 -177 q 466 -243 492 -226 q 404 -273 438 -261 q 318 -295 366 -288 q 202 -303 267 -303 q 42 -286 107 -303 q -54 -235 -22 -269 q -85 -150 -85 -201 q -56 -71 -85 -108 q 33 1 -26 -33 l 103 -56 m 516 422 q 527 520 527 473 q 510 590 527 567 q 454 613 493 613 q 345 552 393 613 q 265 382 296 491 q 234 187 234 274 q 249 113 234 138 q 294 89 263 89 q 353 107 323 89 q 415 165 382 126 q 471 259 448 204 q 511 397 493 314 l 516 422 m 741 943 q 633 811 695 856 q 485 766 570 766 q 364 817 406 766 q 322 968 323 869 l 389 981 q 423 902 397 929 q 499 874 449 874 q 601 898 560 874 q 682 977 641 922 l 741 943 z "},"ġ":{"ha":785,"x_min":-85,"x_max":755,"o":"m 103 -56 q 78 -98 85 -79 q 71 -141 71 -118 q 103 -210 71 -187 q 199 -233 135 -233 q 285 -217 247 -233 q 355 -166 323 -201 q 414 -60 387 -130 q 467 129 441 10 l 458 135 q 376 48 414 79 q 300 3 338 17 q 212 -11 261 -11 q 129 12 165 -11 q 71 82 92 34 q 50 205 50 131 q 77 389 50 298 q 154 545 104 479 q 278 647 203 610 q 448 684 352 684 q 536 673 496 684 q 618 635 576 663 l 680 684 l 755 673 l 697 408 q 671 283 683 342 l 629 74 q 593 -65 611 -11 q 557 -146 576 -113 q 515 -201 539 -177 q 466 -243 492 -226 q 404 -273 438 -261 q 318 -295 366 -288 q 202 -303 267 -303 q 42 -286 107 -303 q -54 -235 -22 -269 q -85 -150 -85 -201 q -56 -71 -85 -108 q 33 1 -26 -33 l 103 -56 m 516 422 q 527 520 527 473 q 510 590 527 567 q 454 613 493 613 q 345 552 393 613 q 265 382 296 491 q 234 187 234 274 q 249 113 234 138 q 294 89 263 89 q 353 107 323 89 q 415 165 382 126 q 471 259 448 204 q 511 397 493 314 l 516 422 m 616 943 l 581 777 l 405 777 l 442 943 l 616 943 z "},"ģ":{"ha":785,"x_min":-85,"x_max":755,"o":"m 103 -56 q 78 -98 85 -79 q 71 -141 71 -118 q 103 -210 71 -187 q 199 -233 135 -233 q 285 -217 247 -233 q 355 -166 323 -201 q 414 -60 387 -130 q 467 129 441 10 l 458 135 q 376 48 414 79 q 300 3 338 17 q 212 -11 261 -11 q 129 12 165 -11 q 71 82 92 34 q 50 205 50 131 q 77 389 50 298 q 154 545 104 479 q 278 647 203 610 q 448 684 352 684 q 536 673 496 684 q 618 635 576 663 l 680 684 l 755 673 l 697 408 q 671 283 683 342 l 629 74 q 593 -65 611 -11 q 557 -146 576 -113 q 515 -201 539 -177 q 466 -243 492 -226 q 404 -273 438 -261 q 318 -295 366 -288 q 202 -303 267 -303 q 42 -286 107 -303 q -54 -235 -22 -269 q -85 -150 -85 -201 q -56 -71 -85 -108 q 33 1 -26 -33 l 103 -56 m 516 422 q 527 520 527 473 q 510 590 527 567 q 454 613 493 613 q 345 552 393 613 q 265 382 296 491 q 234 187 234 274 q 249 113 234 138 q 294 89 263 89 q 353 107 323 89 q 415 165 382 126 q 471 259 448 204 q 511 397 493 314 l 516 422 m 416 758 q 414 795 414 777 q 432 885 414 847 q 490 960 450 924 q 612 1047 530 996 l 648 996 q 589 940 611 968 q 557 878 568 912 q 546 779 547 844 l 416 758 z "},"ĥ":{"ha":805,"x_min":35,"x_max":762,"o":"m 338 557 l 347 554 q 457 652 401 621 q 583 684 513 684 q 692 645 652 684 q 732 537 732 606 q 718 432 732 493 l 663 181 q 653 133 656 150 q 651 104 651 116 q 666 61 651 73 q 719 45 682 49 l 711 0 l 429 0 l 514 369 q 536 477 532 448 q 541 524 541 507 q 528 570 541 555 q 490 585 515 585 q 443 568 469 585 q 385 517 417 552 q 334 444 353 483 q 304 348 315 406 l 229 0 l 35 0 l 206 766 q 221 863 221 833 q 218 887 221 878 q 209 901 215 895 q 193 909 203 906 q 153 916 182 912 l 163 960 l 366 971 l 443 971 l 338 557 m 659 1219 l 762 1042 l 713 1004 l 589 1117 l 583 1117 l 399 1004 l 360 1051 l 547 1219 l 659 1219 z "},"ħ":{"ha":805,"x_min":35,"x_max":732,"o":"m 136 836 l 222 836 q 224 865 224 852 q 217 893 224 883 q 197 909 210 904 q 153 916 184 914 l 163 960 l 366 971 l 443 971 l 409 836 l 632 836 l 616 760 l 389 760 l 338 557 l 347 554 q 457 652 401 621 q 583 684 513 684 q 692 645 652 684 q 732 537 732 606 q 718 432 732 493 l 663 181 q 653 133 656 150 q 651 104 651 116 q 666 61 651 73 q 719 45 682 49 l 711 0 l 429 0 l 514 369 q 536 477 532 448 q 541 524 541 507 q 528 570 541 555 q 490 585 515 585 q 443 568 469 585 q 385 517 417 552 q 334 444 353 483 q 304 348 315 406 l 229 0 l 35 0 l 205 760 l 119 760 l 136 836 z "},"ì":{"ha":420,"x_min":43,"x_max":395,"o":"m 276 181 q 267 131 269 147 q 264 104 264 115 q 280 62 264 75 q 332 45 295 49 l 325 0 l 43 0 l 149 473 q 161 537 157 514 q 164 575 164 559 q 152 613 164 602 q 99 628 139 624 l 109 673 l 308 680 l 385 680 l 276 181 m 302 1000 l 395 770 l 337 738 l 170 956 l 180 1000 l 302 1000 z "},"í":{"ha":420,"x_min":43,"x_max":545,"o":"m 276 181 q 267 131 269 147 q 264 104 264 115 q 280 62 264 75 q 332 45 295 49 l 325 0 l 43 0 l 149 473 q 161 537 157 514 q 164 575 164 559 q 152 613 164 602 q 99 628 139 624 l 109 673 l 308 680 l 385 680 l 276 181 m 545 1000 l 536 956 l 258 737 l 210 786 l 391 1000 l 545 1000 z "},"î":{"ha":420,"x_min":43,"x_max":507,"o":"m 276 181 q 267 131 269 147 q 264 104 264 115 q 280 62 264 75 q 332 45 295 49 l 325 0 l 43 0 l 149 473 q 161 537 157 514 q 164 575 164 559 q 152 613 164 602 q 99 628 139 624 l 109 673 l 308 680 l 385 680 l 276 181 m 418 996 l 507 770 l 446 738 l 347 886 l 340 886 l 157 738 l 113 784 l 303 996 l 418 996 z "},"ĩ":{"ha":420,"x_min":43,"x_max":570,"o":"m 276 181 q 267 131 269 147 q 264 104 264 115 q 280 62 264 75 q 332 45 295 49 l 325 0 l 43 0 l 149 473 q 161 537 157 514 q 164 575 164 559 q 152 613 164 602 q 99 628 139 624 l 109 673 l 308 680 l 385 680 l 276 181 m 515 952 l 570 909 q 505 822 533 853 q 452 779 476 791 q 400 766 429 766 q 359 774 376 766 q 310 807 341 782 l 290 823 q 274 833 281 829 q 257 840 266 838 q 238 842 249 842 q 206 836 220 842 q 177 813 193 829 q 140 765 161 797 l 85 808 q 152 896 126 868 q 201 938 177 924 q 256 951 225 951 q 284 947 271 951 q 309 937 296 944 q 342 913 321 930 q 374 888 364 895 q 393 879 384 882 q 419 876 403 876 q 466 892 444 876 q 515 952 487 909 z "},"ï":{"ha":420,"x_min":43,"x_max":532,"o":"m 276 181 q 267 131 269 147 q 264 104 264 115 q 280 62 264 75 q 332 45 295 49 l 325 0 l 43 0 l 149 473 q 161 537 157 514 q 164 575 164 559 q 152 613 164 602 q 99 628 139 624 l 109 673 l 308 680 l 385 680 l 276 181 m 293 935 l 260 786 l 123 786 l 156 935 l 293 935 m 532 935 l 499 786 l 361 786 l 394 935 l 532 935 z "},"ī":{"ha":420,"x_min":43,"x_max":521,"o":"m 276 181 q 267 131 269 147 q 264 104 264 115 q 280 62 264 75 q 332 45 295 49 l 325 0 l 43 0 l 149 473 q 161 537 157 514 q 164 575 164 559 q 152 613 164 602 q 99 628 139 624 l 109 673 l 308 680 l 385 680 l 276 181 m 498 808 l 135 808 l 158 913 l 521 913 l 498 808 z "},"ĭ":{"ha":420,"x_min":43,"x_max":557,"o":"m 276 181 q 267 131 269 147 q 264 104 264 115 q 280 62 264 75 q 332 45 295 49 l 325 0 l 43 0 l 149 473 q 161 537 157 514 q 164 575 164 559 q 152 613 164 602 q 99 628 139 624 l 109 673 l 308 680 l 385 680 l 276 181 m 557 943 q 450 811 512 856 q 302 766 387 766 q 181 817 222 766 q 139 968 140 869 l 206 981 q 240 902 214 929 q 316 874 266 874 q 417 898 377 874 q 498 977 458 922 l 557 943 z "},"į":{"ha":420,"x_min":26,"x_max":433,"o":"m 433 943 l 397 777 l 222 777 l 259 943 l 433 943 m 184 0 l 43 0 l 149 473 q 161 537 157 514 q 164 575 164 559 q 152 613 164 602 q 99 628 139 624 l 109 673 l 308 680 l 385 680 l 276 181 q 267 131 269 147 q 264 104 264 115 q 280 62 264 75 q 332 45 295 49 l 325 0 l 271 0 q 170 -98 201 -58 q 140 -171 140 -138 q 152 -206 140 -193 q 186 -218 164 -218 q 254 -197 222 -218 l 269 -257 q 211 -284 245 -273 q 147 -296 178 -296 q 57 -268 88 -296 q 26 -186 26 -239 q 30 -155 26 -170 q 45 -122 35 -140 q 74 -84 56 -104 q 119 -44 92 -64 q 184 0 146 -23 z "},"ı":{"ha":420,"x_min":43,"x_max":385,"o":"m 276 181 q 267 131 269 147 q 264 104 264 115 q 280 62 264 75 q 332 45 295 49 l 325 0 l 43 0 l 149 473 q 161 537 157 514 q 164 575 164 559 q 152 613 164 602 q 99 628 139 624 l 109 673 l 308 680 l 385 680 l 276 181 z "},"ĳ":{"ha":832,"x_min":43,"x_max":852,"o":"m 433 943 l 397 777 l 222 777 l 259 943 l 433 943 m 276 181 q 267 131 269 147 q 264 104 264 115 q 280 62 264 75 q 332 45 295 49 l 325 0 l 43 0 l 149 473 q 161 537 157 514 q 164 575 164 559 q 152 613 164 602 q 99 628 139 624 l 109 673 l 308 680 l 385 680 l 276 181 m 852 943 l 817 777 l 642 777 l 679 943 l 852 943 m 661 21 q 594 -160 637 -89 q 482 -267 551 -231 q 315 -303 414 -303 q 251 -294 283 -303 l 269 -220 q 314 -226 288 -226 q 364 -217 345 -226 q 399 -188 383 -209 q 428 -127 414 -168 q 458 -15 441 -87 l 568 473 q 580 535 576 511 q 583 575 583 559 q 571 613 583 602 q 518 628 558 624 l 528 673 l 727 680 l 804 680 l 661 21 z "},"ĵ":{"ha":412,"x_min":-169,"x_max":503,"o":"m 414 996 l 503 770 l 442 738 l 343 886 l 336 886 l 154 738 l 109 784 l 300 996 l 414 996 m 243 29 q 120 -222 205 -141 q -104 -303 35 -303 q -169 -294 -136 -303 l -151 -220 q -106 -226 -132 -226 q -43 -211 -67 -226 q -3 -161 -20 -196 q 29 -56 13 -127 l 148 473 q 160 536 157 513 q 163 575 163 559 q 151 613 163 602 q 98 628 138 624 l 109 673 l 307 680 l 385 680 l 243 29 z "},"ķ":{"ha":747,"x_min":35,"x_max":785,"o":"m 317 400 l 330 400 q 371 407 351 400 q 416 430 390 413 q 487 483 443 448 q 529 523 515 505 q 548 556 543 541 q 554 589 554 572 q 546 615 554 604 q 515 628 537 626 l 526 673 l 768 673 l 785 629 q 671 528 743 583 l 519 414 l 607 165 q 634 98 623 120 q 663 62 646 75 q 712 45 680 50 l 702 0 l 460 0 l 370 293 q 357 322 363 314 q 343 333 351 330 q 320 336 334 336 l 303 336 l 229 0 l 35 0 l 206 766 q 221 863 221 833 q 218 887 221 878 q 209 901 215 895 q 193 909 203 906 q 153 916 182 912 l 163 960 l 366 971 l 443 971 l 317 400 m 382 -69 q 384 -90 384 -81 q 316 -233 384 -182 q 117 -292 249 -284 l 117 -227 q 192 -203 163 -221 q 234 -155 220 -185 q 252 -69 248 -125 l 382 -69 z "},"ĸ":{"ha":755,"x_min":43,"x_max":793,"o":"m 325 400 l 338 400 q 379 407 359 400 q 425 430 398 413 q 495 483 451 448 q 537 523 523 505 q 556 556 551 541 q 562 589 562 572 q 554 615 562 604 q 524 628 545 626 l 534 673 l 776 673 l 793 629 q 680 528 751 583 l 527 414 l 615 165 q 642 98 631 120 q 671 62 654 75 q 720 45 688 50 l 710 0 l 469 0 l 378 293 q 365 322 371 314 q 351 333 359 330 q 328 336 342 336 l 311 336 l 237 0 l 43 0 l 150 475 q 165 572 165 542 q 152 613 165 601 q 100 628 139 625 l 110 673 l 308 680 l 387 680 l 325 400 z "},"ĺ":{"ha":412,"x_min":35,"x_max":607,"o":"m 366 971 l 443 971 l 268 181 q 259 133 261 150 q 256 104 256 116 q 272 62 256 75 q 324 45 287 49 l 317 0 l 35 0 l 206 766 q 221 863 221 833 q 218 887 221 878 q 209 901 215 895 q 193 909 203 906 q 153 916 182 912 l 163 960 l 366 971 m 607 1228 l 597 1183 l 289 1004 l 249 1057 l 431 1228 l 607 1228 z "},"ľ":{"ha":595,"x_min":35,"x_max":694,"o":"m 366 971 l 443 971 l 268 181 q 259 133 261 150 q 256 104 256 116 q 272 62 256 75 q 324 45 287 49 l 317 0 l 35 0 l 206 766 q 221 863 221 833 q 218 887 221 878 q 209 901 215 895 q 193 909 203 906 q 153 916 182 912 l 163 960 l 366 971 m 693 970 q 694 942 694 958 l 694 932 q 684 853 694 887 q 651 790 673 819 q 596 735 629 762 q 501 667 564 709 l 465 714 q 538 815 515 756 q 562 970 562 874 l 693 970 z "},"ļ":{"ha":412,"x_min":-65,"x_max":443,"o":"m 366 971 l 443 971 l 268 181 q 259 133 261 150 q 256 104 256 116 q 272 62 256 75 q 324 45 287 49 l 317 0 l 35 0 l 206 766 q 221 863 221 833 q 218 887 221 878 q 209 901 215 895 q 193 909 203 906 q 153 916 182 912 l 163 960 l 366 971 m 200 -69 q 201 -90 201 -81 q 134 -233 201 -182 q -65 -292 66 -284 l -65 -227 q 9 -203 -19 -221 q 52 -155 38 -185 q 69 -69 66 -125 l 200 -69 z "},"ł":{"ha":464,"x_min":24,"x_max":529,"o":"m 368 523 l 293 181 q 283 132 286 149 q 281 104 281 115 q 297 62 281 75 q 349 45 312 49 l 342 0 l 60 0 l 156 422 l 60 365 l 24 434 l 176 517 l 231 766 q 246 863 246 833 q 243 887 246 878 q 234 901 240 895 q 218 909 228 906 q 178 916 208 912 l 189 960 l 391 971 l 468 971 l 388 617 l 492 680 l 529 611 l 368 523 z "},"ŀ":{"ha":585,"x_min":35,"x_max":618,"o":"m 366 971 l 443 971 l 268 181 q 259 133 261 150 q 256 104 256 116 q 272 62 256 75 q 324 45 287 49 l 317 0 l 35 0 l 206 766 q 221 863 221 833 q 218 887 221 878 q 209 901 215 895 q 193 909 203 906 q 153 916 182 912 l 163 960 l 366 971 m 618 554 l 583 388 l 421 388 l 458 554 l 618 554 z "},"ń":{"ha":813,"x_min":43,"x_max":742,"o":"m 719 0 l 437 0 l 522 369 q 545 477 541 448 q 549 524 549 507 q 536 570 549 555 q 498 585 523 585 q 451 568 477 585 q 393 517 425 552 q 342 444 361 483 q 312 348 323 406 l 237 0 l 43 0 l 149 479 q 158 525 153 495 q 164 576 164 555 q 148 615 164 604 q 98 628 132 625 l 109 673 l 295 680 l 366 680 l 328 534 l 336 531 q 422 622 382 589 q 502 669 463 654 q 590 684 542 684 q 700 645 660 684 q 740 537 740 606 q 726 432 740 493 l 671 181 q 662 133 664 150 q 659 104 659 116 q 674 61 659 73 q 727 45 690 49 l 719 0 m 742 1000 l 732 956 l 454 737 l 406 786 l 587 1000 l 742 1000 z "},"ň":{"ha":813,"x_min":43,"x_max":745,"o":"m 719 0 l 437 0 l 522 369 q 545 477 541 448 q 549 524 549 507 q 536 570 549 555 q 498 585 523 585 q 451 568 477 585 q 393 517 425 552 q 342 444 361 483 q 312 348 323 406 l 237 0 l 43 0 l 149 479 q 158 525 153 495 q 164 576 164 555 q 148 615 164 604 q 98 628 132 625 l 109 673 l 295 680 l 366 680 l 328 534 l 336 531 q 422 622 382 589 q 502 669 463 654 q 590 684 542 684 q 700 645 660 684 q 740 537 740 606 q 726 432 740 493 l 671 181 q 662 133 664 150 q 659 104 659 116 q 674 61 659 73 q 727 45 690 49 l 719 0 m 440 748 l 351 973 l 412 1006 l 511 858 l 518 858 l 701 1006 l 745 960 l 555 748 l 440 748 z "},"ñ":{"ha":813,"x_min":43,"x_max":767,"o":"m 719 0 l 437 0 l 522 369 q 545 477 541 448 q 549 524 549 507 q 536 570 549 555 q 498 585 523 585 q 451 568 477 585 q 393 517 425 552 q 342 444 361 483 q 312 348 323 406 l 237 0 l 43 0 l 149 479 q 158 525 153 495 q 164 576 164 555 q 148 615 164 604 q 98 628 132 625 l 109 673 l 295 680 l 366 680 l 328 534 l 336 531 q 422 622 382 589 q 502 669 463 654 q 590 684 542 684 q 700 645 660 684 q 740 537 740 606 q 726 432 740 493 l 671 181 q 662 133 664 150 q 659 104 659 116 q 674 61 659 73 q 727 45 690 49 l 719 0 m 711 952 l 767 909 q 701 822 730 853 q 649 779 673 791 q 597 766 625 766 q 555 774 573 766 q 507 807 538 782 l 487 823 q 470 833 478 829 q 454 840 463 838 q 435 842 446 842 q 403 836 416 842 q 374 813 389 829 q 337 765 358 797 l 281 808 q 348 896 323 868 q 398 938 374 924 q 452 951 422 951 q 480 947 468 951 q 505 937 493 944 q 538 913 517 930 q 571 888 561 895 q 590 879 581 882 q 616 876 600 876 q 662 892 641 876 q 711 952 684 909 z "},"ņ":{"ha":813,"x_min":43,"x_max":740,"o":"m 719 0 l 437 0 l 522 369 q 545 477 541 448 q 549 524 549 507 q 536 570 549 555 q 498 585 523 585 q 451 568 477 585 q 393 517 425 552 q 342 444 361 483 q 312 348 323 406 l 237 0 l 43 0 l 149 479 q 158 525 153 495 q 164 576 164 555 q 148 615 164 604 q 98 628 132 625 l 109 673 l 295 680 l 366 680 l 328 534 l 336 531 q 422 622 382 589 q 502 669 463 654 q 590 684 542 684 q 700 645 660 684 q 740 537 740 606 q 726 432 740 493 l 671 181 q 662 133 664 150 q 659 104 659 116 q 674 61 659 73 q 727 45 690 49 l 719 0 m 395 -69 q 396 -90 396 -81 q 329 -233 396 -182 q 130 -292 261 -284 l 130 -227 q 204 -203 176 -221 q 247 -155 233 -185 q 264 -69 260 -125 l 395 -69 z "},"ŉ":{"ha":1017,"x_min":128,"x_max":944,"o":"m 400 971 q 394 887 400 923 q 374 819 388 851 q 334 755 360 787 q 268 691 307 723 q 175 623 229 659 l 128 686 q 173 733 157 714 q 199 775 188 752 q 221 833 210 798 q 238 905 233 869 q 244 971 243 941 l 400 971 m 923 0 l 642 0 l 726 369 q 749 477 745 448 q 753 524 753 507 q 740 570 753 555 q 703 585 727 585 q 655 568 681 585 q 597 517 629 552 q 547 444 566 483 q 516 348 528 406 l 441 0 l 247 0 l 353 479 q 362 525 357 495 q 368 576 368 555 q 352 615 368 604 q 302 628 336 625 l 313 673 l 499 680 l 570 680 l 532 534 l 540 531 q 627 622 587 589 q 706 669 667 654 q 794 684 746 684 q 904 645 864 684 q 944 537 944 606 q 930 432 944 493 l 875 181 q 866 133 868 150 q 863 104 863 116 q 879 61 863 73 q 931 45 894 49 l 923 0 z "},"ò":{"ha":750,"x_min":52,"x_max":703,"o":"m 304 -11 q 173 16 229 -11 q 84 97 116 43 q 52 231 52 152 q 56 297 52 260 q 75 391 61 343 q 114 490 90 447 q 174 575 140 539 q 247 634 208 610 q 334 669 287 657 q 450 684 389 684 q 591 653 534 684 q 676 567 648 622 q 703 439 703 512 q 673 260 703 350 q 591 109 644 170 q 467 18 538 47 q 304 -11 395 -11 m 234 186 q 255 91 234 123 q 320 60 275 60 q 368 70 345 60 q 413 106 391 81 q 452 171 435 132 q 486 267 470 210 q 511 379 502 324 q 519 481 519 434 q 499 581 519 549 q 435 613 478 613 q 336 558 378 613 q 264 387 294 503 q 234 186 234 271 m 472 1000 l 564 770 l 507 738 l 340 956 l 349 1000 l 472 1000 z "},"ó":{"ha":750,"x_min":52,"x_max":710,"o":"m 304 -11 q 173 16 229 -11 q 84 97 116 43 q 52 231 52 152 q 56 297 52 260 q 75 391 61 343 q 114 490 90 447 q 174 575 140 539 q 247 634 208 610 q 334 669 287 657 q 450 684 389 684 q 591 653 534 684 q 676 567 648 622 q 703 439 703 512 q 673 260 703 350 q 591 109 644 170 q 467 18 538 47 q 304 -11 395 -11 m 234 186 q 255 91 234 123 q 320 60 275 60 q 368 70 345 60 q 413 106 391 81 q 452 171 435 132 q 486 267 470 210 q 511 379 502 324 q 519 481 519 434 q 499 581 519 549 q 435 613 478 613 q 336 558 378 613 q 264 387 294 503 q 234 186 234 271 m 710 1000 l 701 956 l 422 737 l 374 786 l 555 1000 l 710 1000 z "},"ô":{"ha":750,"x_min":52,"x_max":703,"o":"m 304 -11 q 173 16 229 -11 q 84 97 116 43 q 52 231 52 152 q 56 297 52 260 q 75 391 61 343 q 114 490 90 447 q 174 575 140 539 q 247 634 208 610 q 334 669 287 657 q 450 684 389 684 q 591 653 534 684 q 676 567 648 622 q 703 439 703 512 q 673 260 703 350 q 591 109 644 170 q 467 18 538 47 q 304 -11 395 -11 m 234 186 q 255 91 234 123 q 320 60 275 60 q 368 70 345 60 q 413 106 391 81 q 452 171 435 132 q 486 267 470 210 q 511 379 502 324 q 519 481 519 434 q 499 581 519 549 q 435 613 478 613 q 336 558 378 613 q 264 387 294 503 q 234 186 234 271 m 583 996 l 672 770 l 611 738 l 512 886 l 505 886 l 323 738 l 278 784 l 469 996 l 583 996 z "},"õ":{"ha":750,"x_min":52,"x_max":736,"o":"m 304 -11 q 173 16 229 -11 q 84 97 116 43 q 52 231 52 152 q 56 297 52 260 q 75 391 61 343 q 114 490 90 447 q 174 575 140 539 q 247 634 208 610 q 334 669 287 657 q 450 684 389 684 q 591 653 534 684 q 676 567 648 622 q 703 439 703 512 q 673 260 703 350 q 591 109 644 170 q 467 18 538 47 q 304 -11 395 -11 m 234 186 q 255 91 234 123 q 320 60 275 60 q 368 70 345 60 q 413 106 391 81 q 452 171 435 132 q 486 267 470 210 q 511 379 502 324 q 519 481 519 434 q 499 581 519 549 q 435 613 478 613 q 336 558 378 613 q 264 387 294 503 q 234 186 234 271 m 680 952 l 736 909 q 670 822 699 853 q 618 779 642 791 q 566 766 594 766 q 524 774 542 766 q 475 807 507 782 l 456 823 q 439 833 447 829 q 423 840 431 838 q 404 842 414 842 q 372 836 385 842 q 342 813 358 829 q 306 765 327 797 l 250 808 q 317 896 292 868 q 367 938 342 924 q 421 951 391 951 q 449 947 437 951 q 474 937 462 944 q 507 913 486 930 q 539 888 530 895 q 559 879 549 882 q 585 876 568 876 q 631 892 610 876 q 680 952 652 909 z "},"ö":{"ha":750,"x_min":52,"x_max":703,"o":"m 304 -11 q 173 16 229 -11 q 84 97 116 43 q 52 231 52 152 q 56 297 52 260 q 75 391 61 343 q 114 490 90 447 q 174 575 140 539 q 247 634 208 610 q 334 669 287 657 q 450 684 389 684 q 591 653 534 684 q 676 567 648 622 q 703 439 703 512 q 673 260 703 350 q 591 109 644 170 q 467 18 538 47 q 304 -11 395 -11 m 234 186 q 255 91 234 123 q 320 60 275 60 q 368 70 345 60 q 413 106 391 81 q 452 171 435 132 q 486 267 470 210 q 511 379 502 324 q 519 481 519 434 q 499 581 519 549 q 435 613 478 613 q 336 558 378 613 q 264 387 294 503 q 234 186 234 271 m 458 935 l 426 786 l 289 786 l 321 935 l 458 935 m 697 935 l 665 786 l 527 786 l 559 935 l 697 935 z "},"ō":{"ha":750,"x_min":52,"x_max":703,"o":"m 304 -11 q 173 16 229 -11 q 84 97 116 43 q 52 231 52 152 q 56 297 52 260 q 75 391 61 343 q 114 490 90 447 q 174 575 140 539 q 247 634 208 610 q 334 669 287 657 q 450 684 389 684 q 591 653 534 684 q 676 567 648 622 q 703 439 703 512 q 673 260 703 350 q 591 109 644 170 q 467 18 538 47 q 304 -11 395 -11 m 234 186 q 255 91 234 123 q 320 60 275 60 q 368 70 345 60 q 413 106 391 81 q 452 171 435 132 q 486 267 470 210 q 511 379 502 324 q 519 481 519 434 q 499 581 519 549 q 435 613 478 613 q 336 558 378 613 q 264 387 294 503 q 234 186 234 271 m 663 808 l 300 808 l 323 913 l 686 913 l 663 808 z "},"ŏ":{"ha":750,"x_min":52,"x_max":723,"o":"m 304 -11 q 173 16 229 -11 q 84 97 116 43 q 52 231 52 152 q 56 297 52 260 q 75 391 61 343 q 114 490 90 447 q 174 575 140 539 q 247 634 208 610 q 334 669 287 657 q 450 684 389 684 q 591 653 534 684 q 676 567 648 622 q 703 439 703 512 q 673 260 703 350 q 591 109 644 170 q 467 18 538 47 q 304 -11 395 -11 m 234 186 q 255 91 234 123 q 320 60 275 60 q 368 70 345 60 q 413 106 391 81 q 452 171 435 132 q 486 267 470 210 q 511 379 502 324 q 519 481 519 434 q 499 581 519 549 q 435 613 478 613 q 336 558 378 613 q 264 387 294 503 q 234 186 234 271 m 723 943 q 615 811 677 856 q 467 766 553 766 q 347 817 388 766 q 304 968 305 869 l 372 981 q 406 902 380 929 q 481 874 431 874 q 583 898 543 874 q 664 977 623 922 l 723 943 z "},"ő":{"ha":750,"x_min":52,"x_max":810,"o":"m 304 -11 q 173 16 229 -11 q 84 97 116 43 q 52 231 52 152 q 56 297 52 260 q 75 391 61 343 q 114 490 90 447 q 174 575 140 539 q 247 634 208 610 q 334 669 287 657 q 450 684 389 684 q 591 653 534 684 q 676 567 648 622 q 703 439 703 512 q 673 260 703 350 q 591 109 644 170 q 467 18 538 47 q 304 -11 395 -11 m 234 186 q 255 91 234 123 q 320 60 275 60 q 368 70 345 60 q 413 106 391 81 q 452 171 435 132 q 486 267 470 210 q 511 379 502 324 q 519 481 519 434 q 499 581 519 549 q 435 613 478 613 q 336 558 378 613 q 264 387 294 503 q 234 186 234 271 m 583 1000 l 574 956 l 323 737 l 275 786 l 466 1000 l 583 1000 m 810 1000 l 800 956 l 532 737 l 484 786 l 692 1000 l 810 1000 z "},"ø":{"ha":750,"x_min":-20,"x_max":775,"o":"m 106 64 q 52 231 52 127 q 56 297 52 260 q 75 391 61 343 q 114 490 90 447 q 174 575 140 539 q 247 634 208 610 q 334 669 287 657 q 450 684 389 684 q 587 655 531 684 l 676 764 l 775 764 l 648 608 q 703 439 703 545 q 673 260 703 350 q 591 109 644 170 q 467 18 538 47 q 304 -11 395 -11 q 168 18 227 -11 l 78 -92 l -20 -92 l 106 64 m 231 214 l 511 562 q 481 602 500 590 q 435 613 461 613 q 334 559 376 613 q 265 399 293 505 q 231 214 237 292 m 523 458 l 242 110 q 272 72 252 83 q 320 60 291 60 q 389 82 359 60 q 450 161 423 108 q 498 304 477 215 q 523 458 519 393 z "},"ǿ":{"ha":750,"x_min":-20,"x_max":775,"o":"m 106 64 q 52 231 52 127 q 56 297 52 260 q 75 391 61 343 q 114 490 90 447 q 174 575 140 539 q 247 634 208 610 q 334 669 287 657 q 450 684 389 684 q 587 655 531 684 l 676 764 l 775 764 l 648 608 q 703 439 703 545 q 673 260 703 350 q 591 109 644 170 q 467 18 538 47 q 304 -11 395 -11 q 168 18 227 -11 l 78 -92 l -20 -92 l 106 64 m 231 214 l 511 562 q 481 602 500 590 q 435 613 461 613 q 334 559 376 613 q 265 399 293 505 q 231 214 237 292 m 523 458 l 242 110 q 272 72 252 83 q 320 60 291 60 q 389 82 359 60 q 450 161 423 108 q 498 304 477 215 q 523 458 519 393 m 710 1000 l 701 956 l 422 737 l 374 786 l 555 1000 l 710 1000 z "},"œ":{"ha":1120,"x_min":52,"x_max":1107,"o":"m 1045 141 q 898 26 977 64 q 726 -11 819 -11 q 662 -4 690 -11 q 613 14 635 2 q 574 41 591 26 q 542 75 557 57 l 536 75 q 426 10 481 31 q 304 -11 370 -11 q 173 16 229 -11 q 84 97 116 43 q 52 231 52 152 q 57 307 52 262 q 78 403 62 351 q 120 501 94 455 q 178 580 145 547 q 252 636 211 613 q 340 672 293 660 q 441 684 388 684 q 558 659 507 684 q 644 591 609 635 l 651 591 q 775 662 715 640 q 901 684 835 684 q 1055 646 1002 684 q 1107 536 1107 608 q 1056 402 1107 454 q 907 326 1006 351 q 669 298 809 300 q 661 215 661 258 q 665 167 661 190 q 682 127 670 144 q 715 99 694 109 q 767 88 736 88 q 877 113 829 88 q 988 198 925 138 l 1045 141 m 234 186 q 255 91 234 123 q 320 60 275 60 q 421 116 379 60 q 492 288 463 173 q 520 484 520 404 q 500 581 520 549 q 435 613 479 613 q 334 556 376 613 q 263 384 292 498 q 234 186 234 269 m 686 369 q 877 417 810 372 q 943 543 943 461 q 927 595 943 577 q 882 613 911 613 q 769 551 819 613 q 686 369 718 488 z "},"ŕ":{"ha":633,"x_min":43,"x_max":680,"o":"m 640 488 l 519 488 q 509 551 519 534 q 475 569 499 569 q 453 565 465 569 q 426 549 441 560 q 389 513 410 538 q 353 464 368 488 q 330 414 339 440 q 312 348 320 388 l 237 0 l 43 0 l 149 479 q 164 576 164 546 q 148 615 164 604 q 98 628 132 625 l 109 673 l 295 680 l 372 680 l 321 523 l 329 520 q 449 642 386 601 q 585 684 512 684 q 680 671 630 684 l 640 488 m 652 1000 l 642 956 l 364 737 l 316 786 l 497 1000 l 652 1000 z "},"ř":{"ha":633,"x_min":43,"x_max":680,"o":"m 640 488 l 519 488 q 509 551 519 534 q 475 569 499 569 q 453 565 465 569 q 426 549 441 560 q 389 513 410 538 q 353 464 368 488 q 330 414 339 440 q 312 348 320 388 l 237 0 l 43 0 l 149 479 q 164 576 164 546 q 148 615 164 604 q 98 628 132 625 l 109 673 l 295 680 l 372 680 l 321 523 l 329 520 q 449 642 386 601 q 585 684 512 684 q 680 671 630 684 l 640 488 m 350 748 l 261 973 l 322 1006 l 421 858 l 428 858 l 610 1006 l 655 960 l 465 748 l 350 748 z "},"ŗ":{"ha":633,"x_min":-58,"x_max":680,"o":"m 640 488 l 519 488 q 509 551 519 534 q 475 569 499 569 q 453 565 465 569 q 426 549 441 560 q 389 513 410 538 q 353 464 368 488 q 330 414 339 440 q 312 348 320 388 l 237 0 l 43 0 l 149 479 q 164 576 164 546 q 148 615 164 604 q 98 628 132 625 l 109 673 l 295 680 l 372 680 l 321 523 l 329 520 q 449 642 386 601 q 585 684 512 684 q 680 671 630 684 l 640 488 m 207 -69 q 208 -90 208 -81 q 141 -233 208 -182 q -58 -292 73 -284 l -58 -227 q 16 -203 -12 -221 q 59 -155 45 -185 q 76 -69 73 -125 l 207 -69 z "},"ś":{"ha":614,"x_min":-3,"x_max":642,"o":"m 121 190 q 141 112 125 141 q 182 71 158 82 q 239 60 207 60 q 322 86 293 60 q 351 159 351 112 q 342 208 351 188 q 311 246 332 227 q 240 294 289 264 q 141 379 172 335 q 111 477 111 422 q 185 630 111 576 q 394 684 260 684 q 506 675 446 684 q 616 652 566 667 l 581 490 l 494 490 q 462 583 488 553 q 387 613 436 613 q 314 590 342 613 q 287 526 287 566 q 297 482 287 501 q 331 444 308 463 q 399 398 354 425 q 503 310 471 355 q 534 203 534 264 q 497 85 534 134 q 396 13 460 37 q 250 -11 332 -11 q 115 -2 177 -11 q -3 22 52 7 l 35 190 l 121 190 m 642 1000 l 633 956 l 355 737 l 307 786 l 488 1000 l 642 1000 z "},"ŝ":{"ha":614,"x_min":-3,"x_max":616,"o":"m 121 190 q 141 112 125 141 q 182 71 158 82 q 239 60 207 60 q 322 86 293 60 q 351 159 351 112 q 342 208 351 188 q 311 246 332 227 q 240 294 289 264 q 141 379 172 335 q 111 477 111 422 q 185 630 111 576 q 394 684 260 684 q 506 675 446 684 q 616 652 566 667 l 581 490 l 494 490 q 462 583 488 553 q 387 613 436 613 q 314 590 342 613 q 287 526 287 566 q 297 482 287 501 q 331 444 308 463 q 399 398 354 425 q 503 310 471 355 q 534 203 534 264 q 497 85 534 134 q 396 13 460 37 q 250 -11 332 -11 q 115 -2 177 -11 q -3 22 52 7 l 35 190 l 121 190 m 515 996 l 604 770 l 543 738 l 444 886 l 437 886 l 255 738 l 210 784 l 401 996 l 515 996 z "},"š":{"ha":614,"x_min":-3,"x_max":646,"o":"m 121 190 q 141 112 125 141 q 182 71 158 82 q 239 60 207 60 q 322 86 293 60 q 351 159 351 112 q 342 208 351 188 q 311 246 332 227 q 240 294 289 264 q 141 379 172 335 q 111 477 111 422 q 185 630 111 576 q 394 684 260 684 q 506 675 446 684 q 616 652 566 667 l 581 490 l 494 490 q 462 583 488 553 q 387 613 436 613 q 314 590 342 613 q 287 526 287 566 q 297 482 287 501 q 331 444 308 463 q 399 398 354 425 q 503 310 471 355 q 534 203 534 264 q 497 85 534 134 q 396 13 460 37 q 250 -11 332 -11 q 115 -2 177 -11 q -3 22 52 7 l 35 190 l 121 190 m 340 748 l 252 973 l 313 1006 l 412 858 l 418 858 l 601 1006 l 646 960 l 455 748 l 340 748 z "},"ş":{"ha":614,"x_min":-3,"x_max":616,"o":"m 121 190 q 141 112 125 141 q 182 71 158 82 q 239 60 207 60 q 322 86 293 60 q 351 159 351 112 q 342 208 351 188 q 311 246 332 227 q 240 294 289 264 q 141 379 172 335 q 111 477 111 422 q 185 630 111 576 q 394 684 260 684 q 506 675 446 684 q 616 652 566 667 l 581 490 l 494 490 q 462 583 488 553 q 387 613 436 613 q 314 590 342 613 q 287 526 287 566 q 297 482 287 501 q 331 444 308 463 q 399 398 354 425 q 503 310 471 355 q 534 203 534 264 q 491 77 534 129 q 368 3 448 26 l 290 -45 q 293 -92 293 -64 q 225 -234 293 -183 q 26 -292 157 -284 l 26 -227 q 119 -189 85 -220 q 155 -98 153 -157 l 162 -69 l 259 -11 l 250 -11 q 115 -2 177 -11 q -3 22 52 7 l 35 190 l 121 190 z "},"ș":{"ha":614,"x_min":-3,"x_max":616,"o":"m 121 190 q 141 112 125 141 q 182 71 158 82 q 239 60 207 60 q 322 86 293 60 q 351 159 351 112 q 342 208 351 188 q 311 246 332 227 q 240 294 289 264 q 141 379 172 335 q 111 477 111 422 q 185 630 111 576 q 394 684 260 684 q 506 675 446 684 q 616 652 566 667 l 581 490 l 494 490 q 462 583 488 553 q 387 613 436 613 q 314 590 342 613 q 287 526 287 566 q 297 482 287 501 q 331 444 308 463 q 399 398 354 425 q 503 310 471 355 q 534 203 534 264 q 497 85 534 134 q 396 13 460 37 q 250 -11 332 -11 q 115 -2 177 -11 q -3 22 52 7 l 35 190 l 121 190 m 303 -69 q 304 -90 304 -81 q 237 -233 304 -182 q 38 -292 170 -284 l 38 -227 q 113 -203 84 -221 q 155 -155 141 -185 q 172 -69 169 -125 l 303 -69 z "},"ß":{"ha":898,"x_min":-169,"x_max":846,"o":"m 241 21 q 171 -165 216 -94 q 59 -269 126 -235 q -104 -303 -9 -303 q -169 -294 -136 -303 l -151 -220 q -106 -226 -132 -226 q -56 -217 -75 -226 q -22 -189 -37 -209 q 7 -130 -7 -169 q 38 -15 20 -92 l 175 588 l 94 588 l 103 633 q 154 643 139 636 q 180 664 169 649 q 210 723 191 678 q 302 869 247 815 q 437 948 357 922 q 627 973 517 973 q 790 934 735 973 q 846 823 846 895 q 831 741 846 775 q 787 677 816 706 q 698 609 758 648 q 632 562 653 579 q 604 531 611 545 q 596 502 596 518 q 604 472 596 484 q 632 446 612 460 q 709 399 652 432 q 786 342 758 370 q 828 281 814 314 q 842 205 842 248 q 805 86 842 135 q 703 13 768 37 q 554 -11 637 -11 q 425 -3 488 -11 q 323 16 363 5 l 350 144 l 425 144 q 447 93 431 112 q 486 67 463 75 q 548 60 510 60 q 630 85 602 60 q 659 159 659 111 q 650 205 659 186 q 619 243 642 224 q 547 292 597 262 q 483 338 507 317 q 446 386 460 359 q 432 448 432 412 q 444 508 432 483 q 483 559 455 533 q 565 623 511 586 q 645 687 617 659 q 685 743 673 715 q 697 807 697 771 q 671 877 697 851 q 600 903 645 903 q 533 891 562 903 q 479 854 505 879 q 433 791 453 829 q 397 704 412 752 q 366 587 381 655 l 241 21 z "},"ſ":{"ha":428,"x_min":-169,"x_max":661,"o":"m 241 21 q 173 -163 217 -92 q 60 -269 128 -234 q -104 -303 -7 -303 q -169 -294 -136 -303 l -151 -220 q -106 -226 -132 -226 q -56 -217 -75 -226 q -21 -188 -37 -209 q 8 -127 -5 -168 q 38 -15 22 -87 l 174 588 l 92 588 l 102 633 q 143 640 130 635 q 168 651 157 644 q 186 677 178 659 q 205 732 195 694 q 248 839 222 797 q 315 913 274 882 q 412 959 357 945 q 534 974 467 974 q 591 972 560 974 q 661 962 622 970 l 631 826 l 543 826 q 530 886 541 868 q 496 903 519 903 q 468 897 480 903 q 444 876 456 891 q 422 830 433 860 q 400 747 412 801 l 241 21 z "},"ť":{"ha":662,"x_min":75,"x_max":757,"o":"m 755 970 q 757 942 757 958 l 757 932 q 746 851 757 885 q 712 789 734 817 q 655 735 689 761 q 576 680 621 709 l 541 727 q 606 820 585 765 q 627 970 627 874 l 755 970 m 496 123 q 410 43 448 71 q 331 2 372 16 q 235 -11 290 -11 q 144 9 180 -11 q 92 63 108 29 q 75 138 75 96 q 81 208 75 176 q 100 294 87 240 l 170 588 l 78 588 l 87 633 q 169 655 142 636 q 214 715 195 674 q 257 842 233 757 l 418 842 l 380 673 l 547 673 l 528 588 l 362 588 l 287 278 q 278 238 282 258 q 271 200 274 218 q 268 171 269 182 q 267 149 267 159 q 278 103 267 117 q 312 88 290 88 q 375 110 342 88 q 444 177 407 132 l 496 123 z "},"ţ":{"ha":505,"x_min":-7,"x_max":547,"o":"m 496 123 q 410 43 448 71 q 331 2 372 16 q 235 -11 290 -11 q 144 9 180 -11 q 92 63 108 29 q 75 138 75 96 q 80 199 75 170 q 100 294 85 228 l 170 588 l 78 588 l 87 633 q 153 647 130 635 q 194 680 177 658 q 225 739 210 701 q 258 842 240 777 l 421 842 l 382 673 l 547 673 l 528 588 l 362 588 l 287 278 q 278 238 282 258 q 271 200 274 218 q 268 171 269 182 q 267 149 267 159 q 278 103 267 117 q 312 88 290 88 q 375 110 342 88 q 444 177 407 132 l 496 123 m 258 -69 q 259 -90 259 -81 q 192 -233 259 -182 q -7 -292 124 -284 l -7 -227 q 67 -203 39 -221 q 110 -155 96 -185 q 127 -69 123 -125 l 258 -69 z "},"ŧ":{"ha":524,"x_min":30,"x_max":555,"o":"m 505 123 q 419 43 457 71 q 340 2 381 16 q 244 -11 298 -11 q 153 9 189 -11 q 100 63 117 29 q 84 138 84 96 q 88 194 84 165 q 109 294 92 223 l 116 326 l 30 326 l 46 401 l 134 401 l 178 588 l 87 588 l 96 633 q 177 655 151 636 q 223 715 204 674 q 266 842 242 757 l 427 842 l 389 673 l 555 673 l 537 588 l 371 588 l 326 401 l 470 401 l 454 326 l 307 326 l 296 278 q 287 238 291 258 q 280 200 283 218 q 276 171 277 182 q 275 149 275 159 q 287 103 275 117 q 321 88 298 88 q 384 110 351 88 q 453 177 416 132 l 505 123 z "},"ù":{"ha":812,"x_min":79,"x_max":775,"o":"m 100 673 l 381 673 l 296 304 q 274 195 278 225 q 270 149 270 165 q 282 102 270 117 q 319 88 295 88 q 349 95 333 88 q 380 114 364 101 q 418 149 395 126 q 457 196 440 171 q 485 251 474 222 q 506 325 496 280 l 581 673 l 775 673 l 669 194 q 660 148 665 178 q 654 97 654 117 q 670 58 654 68 q 720 45 686 47 l 709 0 l 454 0 l 490 139 l 482 142 q 360 26 419 63 q 227 -11 302 -11 q 119 28 159 -11 q 79 136 79 67 q 92 241 79 180 l 148 492 q 157 540 155 523 q 159 569 159 557 q 144 611 159 599 q 92 628 130 623 l 100 673 m 479 1000 l 571 770 l 513 738 l 347 956 l 356 1000 l 479 1000 z "},"ú":{"ha":812,"x_min":79,"x_max":775,"o":"m 100 673 l 381 673 l 296 304 q 274 195 278 225 q 270 149 270 165 q 282 102 270 117 q 319 88 295 88 q 349 95 333 88 q 380 114 364 101 q 418 149 395 126 q 457 196 440 171 q 485 251 474 222 q 506 325 496 280 l 581 673 l 775 673 l 669 194 q 660 148 665 178 q 654 97 654 117 q 670 58 654 68 q 720 45 686 47 l 709 0 l 454 0 l 490 139 l 482 142 q 360 26 419 63 q 227 -11 302 -11 q 119 28 159 -11 q 79 136 79 67 q 92 241 79 180 l 148 492 q 157 540 155 523 q 159 569 159 557 q 144 611 159 599 q 92 628 130 623 l 100 673 m 741 1000 l 732 956 l 454 737 l 406 786 l 587 1000 l 741 1000 z "},"û":{"ha":812,"x_min":79,"x_max":775,"o":"m 100 673 l 381 673 l 296 304 q 274 195 278 225 q 270 149 270 165 q 282 102 270 117 q 319 88 295 88 q 349 95 333 88 q 380 114 364 101 q 418 149 395 126 q 457 196 440 171 q 485 251 474 222 q 506 325 496 280 l 581 673 l 775 673 l 669 194 q 660 148 665 178 q 654 97 654 117 q 670 58 654 68 q 720 45 686 47 l 709 0 l 454 0 l 490 139 l 482 142 q 360 26 419 63 q 227 -11 302 -11 q 119 28 159 -11 q 79 136 79 67 q 92 241 79 180 l 148 492 q 157 540 155 523 q 159 569 159 557 q 144 611 159 599 q 92 628 130 623 l 100 673 m 614 996 l 703 770 l 642 738 l 543 886 l 536 886 l 353 738 l 309 784 l 499 996 l 614 996 z "},"ũ":{"ha":812,"x_min":79,"x_max":775,"o":"m 100 673 l 381 673 l 296 304 q 274 195 278 225 q 270 149 270 165 q 282 102 270 117 q 319 88 295 88 q 349 95 333 88 q 380 114 364 101 q 418 149 395 126 q 457 196 440 171 q 485 251 474 222 q 506 325 496 280 l 581 673 l 775 673 l 669 194 q 660 148 665 178 q 654 97 654 117 q 670 58 654 68 q 720 45 686 47 l 709 0 l 454 0 l 490 139 l 482 142 q 360 26 419 63 q 227 -11 302 -11 q 119 28 159 -11 q 79 136 79 67 q 92 241 79 180 l 148 492 q 157 540 155 523 q 159 569 159 557 q 144 611 159 599 q 92 628 130 623 l 100 673 m 711 952 l 766 909 q 701 822 729 853 q 648 779 672 791 q 596 766 625 766 q 555 774 572 766 q 506 807 537 782 l 486 823 q 470 833 477 829 q 453 840 462 838 q 434 842 445 842 q 402 836 416 842 q 373 813 389 829 q 336 765 357 797 l 281 808 q 348 896 322 868 q 397 938 373 924 q 452 951 421 951 q 480 947 467 951 q 505 937 492 944 q 538 913 517 930 q 570 888 560 895 q 589 879 580 882 q 615 876 599 876 q 662 892 640 876 q 711 952 683 909 z "},"ü":{"ha":812,"x_min":79,"x_max":775,"o":"m 100 673 l 381 673 l 296 304 q 274 195 278 225 q 270 149 270 165 q 282 102 270 117 q 319 88 295 88 q 349 95 333 88 q 380 114 364 101 q 418 149 395 126 q 457 196 440 171 q 485 251 474 222 q 506 325 496 280 l 581 673 l 775 673 l 669 194 q 660 148 665 178 q 654 97 654 117 q 670 58 654 68 q 720 45 686 47 l 709 0 l 454 0 l 490 139 l 482 142 q 360 26 419 63 q 227 -11 302 -11 q 119 28 159 -11 q 79 136 79 67 q 92 241 79 180 l 148 492 q 157 540 155 523 q 159 569 159 557 q 144 611 159 599 q 92 628 130 623 l 100 673 m 490 935 l 457 786 l 320 786 l 353 935 l 490 935 m 728 935 l 696 786 l 558 786 l 591 935 l 728 935 z "},"ū":{"ha":812,"x_min":79,"x_max":775,"o":"m 100 673 l 381 673 l 296 304 q 274 195 278 225 q 270 149 270 165 q 282 102 270 117 q 319 88 295 88 q 349 95 333 88 q 380 114 364 101 q 418 149 395 126 q 457 196 440 171 q 485 251 474 222 q 506 325 496 280 l 581 673 l 775 673 l 669 194 q 660 148 665 178 q 654 97 654 117 q 670 58 654 68 q 720 45 686 47 l 709 0 l 454 0 l 490 139 l 482 142 q 360 26 419 63 q 227 -11 302 -11 q 119 28 159 -11 q 79 136 79 67 q 92 241 79 180 l 148 492 q 157 540 155 523 q 159 569 159 557 q 144 611 159 599 q 92 628 130 623 l 100 673 m 694 808 l 331 808 l 354 913 l 717 913 l 694 808 z "},"ŭ":{"ha":812,"x_min":79,"x_max":775,"o":"m 100 673 l 381 673 l 296 304 q 274 195 278 225 q 270 149 270 165 q 282 102 270 117 q 319 88 295 88 q 349 95 333 88 q 380 114 364 101 q 418 149 395 126 q 457 196 440 171 q 485 251 474 222 q 506 325 496 280 l 581 673 l 775 673 l 669 194 q 660 148 665 178 q 654 97 654 117 q 670 58 654 68 q 720 45 686 47 l 709 0 l 454 0 l 490 139 l 482 142 q 360 26 419 63 q 227 -11 302 -11 q 119 28 159 -11 q 79 136 79 67 q 92 241 79 180 l 148 492 q 157 540 155 523 q 159 569 159 557 q 144 611 159 599 q 92 628 130 623 l 100 673 m 754 943 q 646 811 709 856 q 498 766 584 766 q 378 817 419 766 q 336 968 336 869 l 403 981 q 437 902 411 929 q 513 874 463 874 q 614 898 574 874 q 695 977 654 922 l 754 943 z "},"ů":{"ha":812,"x_min":79,"x_max":775,"o":"m 100 673 l 381 673 l 296 304 q 274 195 278 225 q 270 149 270 165 q 282 102 270 117 q 319 88 295 88 q 349 95 333 88 q 380 114 364 101 q 418 149 395 126 q 457 196 440 171 q 485 251 474 222 q 506 325 496 280 l 581 673 l 775 673 l 669 194 q 660 148 665 178 q 654 97 654 117 q 670 58 654 68 q 720 45 686 47 l 709 0 l 454 0 l 490 139 l 482 142 q 360 26 419 63 q 227 -11 302 -11 q 119 28 159 -11 q 79 136 79 67 q 92 241 79 180 l 148 492 q 157 540 155 523 q 159 569 159 557 q 144 611 159 599 q 92 628 130 623 l 100 673 m 496 735 q 402 763 435 735 q 369 840 369 790 q 382 910 369 876 q 420 969 395 944 q 482 1007 446 994 q 557 1021 517 1021 q 654 993 622 1021 q 686 915 686 966 q 663 823 686 865 q 596 758 640 781 q 496 735 553 735 m 448 848 q 462 804 448 820 q 506 787 476 787 q 562 807 538 787 q 597 855 586 826 q 608 909 608 884 q 593 953 608 938 q 550 968 578 968 q 498 952 522 968 q 461 907 475 936 q 448 848 448 878 z "},"ű":{"ha":812,"x_min":79,"x_max":841,"o":"m 100 673 l 381 673 l 296 304 q 274 195 278 225 q 270 149 270 165 q 282 102 270 117 q 319 88 295 88 q 349 95 333 88 q 380 114 364 101 q 418 149 395 126 q 457 196 440 171 q 485 251 474 222 q 506 325 496 280 l 581 673 l 775 673 l 669 194 q 660 148 665 178 q 654 97 654 117 q 670 58 654 68 q 720 45 686 47 l 709 0 l 454 0 l 490 139 l 482 142 q 360 26 419 63 q 227 -11 302 -11 q 119 28 159 -11 q 79 136 79 67 q 92 241 79 180 l 148 492 q 157 540 155 523 q 159 569 159 557 q 144 611 159 599 q 92 628 130 623 l 100 673 m 614 1000 l 605 956 l 354 737 l 306 786 l 497 1000 l 614 1000 m 841 1000 l 831 956 l 564 737 l 515 786 l 724 1000 l 841 1000 z "},"ų":{"ha":812,"x_min":79,"x_max":775,"o":"m 568 0 l 454 0 l 490 139 l 482 142 q 360 26 419 63 q 227 -11 302 -11 q 119 28 159 -11 q 79 136 79 67 q 92 241 79 180 l 148 492 q 157 540 155 523 q 159 569 159 557 q 144 611 159 599 q 92 628 130 623 l 100 673 l 381 673 l 296 304 q 274 195 278 225 q 270 149 270 165 q 282 102 270 117 q 319 88 295 88 q 349 95 333 88 q 380 114 364 101 q 418 149 395 126 q 457 196 440 171 q 485 251 474 222 q 506 325 496 280 l 581 673 l 775 673 l 669 194 q 660 148 665 178 q 654 97 654 117 q 670 58 654 68 q 720 45 686 47 l 709 0 l 655 0 q 555 -98 585 -58 q 524 -171 524 -138 q 536 -206 524 -193 q 571 -218 549 -218 q 639 -197 606 -218 l 653 -257 q 596 -284 629 -273 q 532 -296 562 -296 q 441 -268 473 -296 q 410 -186 410 -239 q 415 -155 410 -170 q 430 -122 419 -140 q 458 -84 440 -104 q 504 -44 477 -64 q 568 0 531 -23 z "},"ẁ":{"ha":1074,"x_min":58,"x_max":1095,"o":"m 1072 673 l 1095 628 q 956 361 1063 536 q 701 -10 848 186 l 586 -10 l 565 191 q 553 313 556 272 q 551 379 551 355 l 544 379 q 446 200 506 300 q 306 -10 385 100 l 182 -10 l 129 511 q 117 582 124 559 q 97 615 110 604 q 58 628 83 626 l 68 673 l 304 673 l 342 180 q 456 373 420 302 q 510 504 492 444 q 534 628 528 563 l 544 673 l 696 673 l 739 180 q 881 421 837 328 q 926 574 926 514 q 913 613 926 600 q 871 628 901 627 l 880 673 l 1072 673 m 633 1000 l 726 770 l 668 738 l 501 956 l 511 1000 l 633 1000 z "},"ẃ":{"ha":1074,"x_min":58,"x_max":1095,"o":"m 1072 673 l 1095 628 q 956 361 1063 536 q 701 -10 848 186 l 586 -10 l 565 191 q 553 313 556 272 q 551 379 551 355 l 544 379 q 446 200 506 300 q 306 -10 385 100 l 182 -10 l 129 511 q 117 582 124 559 q 97 615 110 604 q 58 628 83 626 l 68 673 l 304 673 l 342 180 q 456 373 420 302 q 510 504 492 444 q 534 628 528 563 l 544 673 l 696 673 l 739 180 q 881 421 837 328 q 926 574 926 514 q 913 613 926 600 q 871 628 901 627 l 880 673 l 1072 673 m 872 1000 l 863 956 l 585 737 l 536 786 l 718 1000 l 872 1000 z "},"ŵ":{"ha":1074,"x_min":58,"x_max":1095,"o":"m 1072 673 l 1095 628 q 956 361 1063 536 q 701 -10 848 186 l 586 -10 l 565 191 q 553 313 556 272 q 551 379 551 355 l 544 379 q 446 200 506 300 q 306 -10 385 100 l 182 -10 l 129 511 q 117 582 124 559 q 97 615 110 604 q 58 628 83 626 l 68 673 l 304 673 l 342 180 q 456 373 420 302 q 510 504 492 444 q 534 628 528 563 l 544 673 l 696 673 l 739 180 q 881 421 837 328 q 926 574 926 514 q 913 613 926 600 q 871 628 901 627 l 880 673 l 1072 673 m 745 996 l 833 770 l 772 738 l 673 886 l 667 886 l 484 738 l 439 784 l 630 996 l 745 996 z "},"ẅ":{"ha":1074,"x_min":58,"x_max":1095,"o":"m 1072 673 l 1095 628 q 956 361 1063 536 q 701 -10 848 186 l 586 -10 l 565 191 q 553 313 556 272 q 551 379 551 355 l 544 379 q 446 200 506 300 q 306 -10 385 100 l 182 -10 l 129 511 q 117 582 124 559 q 97 615 110 604 q 58 628 83 626 l 68 673 l 304 673 l 342 180 q 456 373 420 302 q 510 504 492 444 q 534 628 528 563 l 544 673 l 696 673 l 739 180 q 881 421 837 328 q 926 574 926 514 q 913 613 926 600 q 871 628 901 627 l 880 673 l 1072 673 m 621 935 l 588 786 l 451 786 l 484 935 l 621 935 m 859 935 l 827 786 l 689 786 l 722 935 l 859 935 z "},"ỳ":{"ha":694,"x_min":-147,"x_max":719,"o":"m 191 0 l 130 503 q 116 577 124 553 q 95 614 109 602 q 54 628 82 625 l 64 673 l 303 673 l 350 166 q 501 411 452 313 q 549 574 549 509 q 537 613 549 600 q 494 628 525 627 l 504 673 l 695 673 l 719 628 q 632 447 690 551 q 487 215 574 342 q 302 -39 399 87 q 166 -198 221 -144 q 87 -260 125 -239 q 24 -288 58 -279 q -52 -296 -9 -296 q -99 -292 -73 -296 q -147 -281 -126 -288 l -114 -128 l -42 -128 q -31 -170 -41 -157 q 1 -184 -20 -184 q 53 -174 30 -184 q 99 -145 75 -165 q 155 -89 123 -125 q 230 0 188 -53 l 191 0 m 431 1000 l 523 770 l 465 738 l 298 956 l 308 1000 l 431 1000 z "},"ý":{"ha":694,"x_min":-147,"x_max":719,"o":"m 191 0 l 130 503 q 116 577 124 553 q 95 614 109 602 q 54 628 82 625 l 64 673 l 303 673 l 350 166 q 501 411 452 313 q 549 574 549 509 q 537 613 549 600 q 494 628 525 627 l 504 673 l 695 673 l 719 628 q 632 447 690 551 q 487 215 574 342 q 302 -39 399 87 q 166 -198 221 -144 q 87 -260 125 -239 q 24 -288 58 -279 q -52 -296 -9 -296 q -99 -292 -73 -296 q -147 -281 -126 -288 l -114 -128 l -42 -128 q -31 -170 -41 -157 q 1 -184 -20 -184 q 53 -174 30 -184 q 99 -145 75 -165 q 155 -89 123 -125 q 230 0 188 -53 l 191 0 m 682 1000 l 673 956 l 395 737 l 347 786 l 528 1000 l 682 1000 z "},"ŷ":{"ha":694,"x_min":-147,"x_max":719,"o":"m 191 0 l 130 503 q 116 577 124 553 q 95 614 109 602 q 54 628 82 625 l 64 673 l 303 673 l 350 166 q 501 411 452 313 q 549 574 549 509 q 537 613 549 600 q 494 628 525 627 l 504 673 l 695 673 l 719 628 q 632 447 690 551 q 487 215 574 342 q 302 -39 399 87 q 166 -198 221 -144 q 87 -260 125 -239 q 24 -288 58 -279 q -52 -296 -9 -296 q -99 -292 -73 -296 q -147 -281 -126 -288 l -114 -128 l -42 -128 q -31 -170 -41 -157 q 1 -184 -20 -184 q 53 -174 30 -184 q 99 -145 75 -165 q 155 -89 123 -125 q 230 0 188 -53 l 191 0 m 555 996 l 644 770 l 583 738 l 484 886 l 477 886 l 295 738 l 250 784 l 441 996 l 555 996 z "},"ÿ":{"ha":694,"x_min":-147,"x_max":719,"o":"m 191 0 l 130 503 q 116 577 124 553 q 95 614 109 602 q 54 628 82 625 l 64 673 l 303 673 l 350 166 q 501 411 452 313 q 549 574 549 509 q 537 613 549 600 q 494 628 525 627 l 504 673 l 695 673 l 719 628 q 632 447 690 551 q 487 215 574 342 q 302 -39 399 87 q 166 -198 221 -144 q 87 -260 125 -239 q 24 -288 58 -279 q -52 -296 -9 -296 q -99 -292 -73 -296 q -147 -281 -126 -288 l -114 -128 l -42 -128 q -31 -170 -41 -157 q 1 -184 -20 -184 q 53 -174 30 -184 q 99 -145 75 -165 q 155 -89 123 -125 q 230 0 188 -53 l 191 0 m 431 935 l 398 786 l 261 786 l 294 935 l 431 935 m 669 935 l 637 786 l 499 786 l 532 935 l 669 935 z "},"ź":{"ha":656,"x_min":-10,"x_max":673,"o":"m 367 242 q 295 155 334 200 q 228 78 257 109 l 233 72 l 361 72 q 409 80 389 72 q 446 105 429 87 q 478 150 463 123 q 509 212 494 176 l 581 212 l 536 0 l 14 0 l -10 45 l 290 423 q 435 595 365 517 l 431 601 l 303 601 q 256 591 277 601 q 215 556 235 581 q 163 473 194 531 l 90 473 l 133 673 l 650 673 l 673 628 l 367 242 m 663 1000 l 654 956 l 376 737 l 328 786 l 509 1000 l 663 1000 z "},"ž":{"ha":656,"x_min":-10,"x_max":673,"o":"m 367 242 q 295 155 334 200 q 228 78 257 109 l 233 72 l 361 72 q 409 80 389 72 q 446 105 429 87 q 478 150 463 123 q 509 212 494 176 l 581 212 l 536 0 l 14 0 l -10 45 l 290 423 q 435 595 365 517 l 431 601 l 303 601 q 256 591 277 601 q 215 556 235 581 q 163 473 194 531 l 90 473 l 133 673 l 650 673 l 673 628 l 367 242 m 361 748 l 273 973 l 334 1006 l 433 858 l 439 858 l 622 1006 l 667 960 l 476 748 l 361 748 z "},"ż":{"ha":656,"x_min":-10,"x_max":673,"o":"m 367 242 q 295 155 334 200 q 228 78 257 109 l 233 72 l 361 72 q 409 80 389 72 q 446 105 429 87 q 478 150 463 123 q 509 212 494 176 l 581 212 l 536 0 l 14 0 l -10 45 l 290 423 q 435 595 365 517 l 431 601 l 303 601 q 256 591 277 601 q 215 556 235 581 q 163 473 194 531 l 90 473 l 133 673 l 650 673 l 673 628 l 367 242 m 551 943 l 516 777 l 340 777 l 378 943 l 551 943 z "},"ŋ":{"ha":804,"x_min":43,"x_max":740,"o":"m 651 88 q 583 -94 627 -24 q 470 -198 538 -164 q 307 -233 402 -233 q 242 -224 275 -233 l 260 -150 q 305 -155 279 -155 q 367 -140 344 -155 q 408 -88 391 -125 q 443 28 425 -51 l 522 369 q 543 469 538 435 q 549 524 549 503 q 536 570 549 555 q 498 585 523 585 q 451 568 477 585 q 393 517 425 552 q 342 444 361 483 q 312 348 323 406 l 237 0 l 43 0 l 149 479 q 158 525 153 495 q 164 576 164 555 q 148 615 164 604 q 98 628 132 625 l 109 673 l 295 680 l 366 680 l 328 534 l 336 531 q 422 622 382 589 q 502 669 463 654 q 590 684 542 684 q 700 645 660 684 q 740 537 740 606 q 726 432 740 493 l 651 88 z "},"ð":{"ha":757,"x_min":52,"x_max":723,"o":"m 277 779 l 438 850 q 358 906 408 878 l 392 973 q 538 896 476 941 l 690 965 l 723 901 l 596 845 q 682 704 654 785 q 711 527 711 624 q 683 301 711 408 q 601 125 654 194 q 473 22 548 56 q 302 -11 397 -11 q 170 16 227 -11 q 83 96 114 43 q 52 227 52 150 q 73 383 52 305 q 142 522 94 460 q 261 616 190 583 q 413 649 332 649 q 543 608 491 649 l 555 614 q 486 793 538 718 l 311 714 l 277 779 m 233 184 q 254 91 233 121 q 318 60 275 60 q 387 83 355 60 q 444 155 418 106 q 491 288 470 204 q 513 457 513 371 q 491 548 513 518 q 427 578 469 578 q 327 521 370 578 q 258 360 283 464 q 233 184 233 257 z "},"þ":{"ha":788,"x_min":-30,"x_max":744,"o":"m 206 766 q 220 863 220 830 q 217 887 220 878 q 208 901 214 895 q 192 909 202 906 q 153 916 182 912 l 163 960 l 363 971 l 442 971 l 338 556 l 347 553 q 426 631 390 603 q 499 671 462 659 q 582 684 536 684 q 665 662 629 684 q 723 591 701 640 q 744 467 744 542 q 730 336 744 408 q 690 209 715 264 q 628 113 664 154 q 548 44 592 71 q 452 3 503 17 q 341 -11 400 -11 q 229 10 284 -11 l 203 -111 q 194 -162 196 -146 q 192 -188 192 -177 q 207 -230 192 -217 q 260 -247 222 -243 l 252 -292 l -30 -292 l 206 766 m 278 251 q 267 153 267 201 q 284 81 267 103 q 340 60 300 60 q 386 68 365 60 q 428 95 408 76 q 470 149 449 113 q 516 251 496 194 q 548 371 536 308 q 559 486 559 433 q 545 560 559 536 q 500 584 530 584 q 409 540 455 584 q 334 439 362 496 q 283 276 307 381 l 278 251 z "},"ⁿ":{"ha":604,"x_min":144,"x_max":635,"o":"m 626 562 l 420 562 l 475 802 q 487 854 482 832 q 491 891 491 876 q 482 914 491 906 q 458 922 473 922 q 410 903 437 922 q 365 854 384 885 q 337 785 345 824 l 290 562 l 144 562 l 212 864 q 218 896 216 884 q 220 918 220 907 q 211 939 220 933 q 173 948 201 945 l 182 988 l 313 994 l 369 994 l 342 905 l 349 905 q 426 974 387 950 q 519 997 466 997 q 601 970 570 997 q 632 898 632 943 q 625 836 632 868 l 590 677 q 585 635 585 652 q 595 613 585 621 q 635 604 606 606 l 626 562 z "},"ﬀ":{"ha":890,"x_min":-169,"x_max":1106,"o":"m 364 588 l 241 21 q 175 -159 218 -88 q 63 -267 132 -231 q -104 -303 -5 -303 q -169 -294 -136 -303 l -151 -220 q -106 -226 -132 -226 q -56 -217 -75 -226 q -21 -188 -37 -209 q 8 -127 -5 -168 q 38 -15 22 -87 l 174 588 l 92 588 l 102 633 q 143 640 130 635 q 168 651 157 644 q 186 677 178 659 q 205 732 195 694 q 248 839 222 797 q 315 913 274 882 q 412 959 357 945 q 534 974 467 974 q 591 972 560 974 q 661 962 622 970 l 631 826 l 543 826 q 530 886 541 868 q 496 903 519 903 q 468 897 480 903 q 444 876 456 891 q 422 830 433 860 q 400 747 412 801 l 383 673 l 629 673 q 640 697 635 683 q 650 732 644 712 q 693 839 667 797 q 760 913 719 882 q 857 959 802 945 q 979 974 912 974 q 1036 972 1005 974 q 1106 962 1067 970 l 1076 826 l 988 826 q 975 886 985 868 q 941 903 964 903 q 913 897 925 903 q 889 876 901 891 q 867 830 878 860 q 845 747 857 801 l 828 673 l 957 673 l 939 588 l 809 588 l 686 21 q 620 -159 663 -88 q 508 -267 576 -231 q 340 -303 439 -303 q 276 -294 309 -303 l 294 -220 q 339 -226 313 -226 q 389 -217 370 -226 q 424 -188 408 -209 q 453 -127 439 -168 q 483 -15 467 -87 l 618 588 l 364 588 z "},"ﬁ":{"ha":865,"x_min":-169,"x_max":878,"o":"m 92 588 l 102 633 q 143 640 130 635 q 168 651 157 644 q 186 677 178 659 q 205 732 195 694 q 250 841 223 798 q 317 914 276 883 q 413 959 357 945 q 537 974 469 974 q 638 964 593 974 l 610 840 l 543 840 q 535 875 543 862 q 516 893 528 888 q 494 899 505 899 q 454 884 471 899 q 427 841 438 869 q 404 761 415 812 l 383 673 l 513 673 l 494 588 l 364 588 l 241 21 q 175 -159 218 -88 q 63 -267 132 -231 q -104 -303 -5 -303 q -169 -294 -136 -303 l -151 -220 q -106 -226 -132 -226 q -56 -217 -75 -226 q -21 -188 -37 -209 q 8 -127 -5 -168 q 38 -15 22 -87 l 174 588 l 92 588 m 878 943 l 842 777 l 667 777 l 704 943 l 878 943 m 721 181 q 711 131 713 147 q 709 104 709 115 q 725 62 709 75 q 777 45 740 49 l 770 0 l 488 0 l 593 473 q 606 537 602 514 q 609 575 609 559 q 596 613 609 602 q 544 628 584 624 l 554 673 l 753 680 l 830 680 l 721 181 z "},"ﬃ":{"ha":1310,"x_min":-169,"x_max":1322,"o":"m 92 588 l 102 633 q 143 640 130 635 q 168 651 157 644 q 186 677 178 659 q 205 732 195 694 q 248 839 222 797 q 315 913 274 882 q 412 959 357 945 q 534 974 467 974 q 591 972 560 974 q 661 962 622 970 l 631 826 l 543 826 q 530 886 541 868 q 496 903 519 903 q 468 897 480 903 q 444 876 456 891 q 422 830 433 860 q 400 747 412 801 l 383 673 l 629 673 q 640 697 635 683 q 650 732 644 712 q 694 841 668 798 q 762 914 721 883 q 858 959 802 945 q 982 974 913 974 q 1083 964 1038 974 l 1055 840 l 988 840 q 980 875 987 862 q 961 893 972 888 q 939 899 950 899 q 899 884 916 899 q 871 841 883 869 q 848 761 860 812 l 828 673 l 958 673 l 939 588 l 809 588 l 686 21 q 620 -159 663 -88 q 508 -267 576 -231 q 340 -303 439 -303 q 276 -294 309 -303 l 294 -220 q 339 -226 313 -226 q 389 -217 370 -226 q 424 -188 408 -209 q 453 -127 439 -168 q 483 -15 467 -87 l 618 588 l 364 588 l 241 21 q 175 -159 218 -88 q 63 -267 132 -231 q -104 -303 -5 -303 q -169 -294 -136 -303 l -151 -220 q -106 -226 -132 -226 q -56 -217 -75 -226 q -21 -188 -37 -209 q 8 -127 -5 -168 q 38 -15 22 -87 l 174 588 l 92 588 m 1322 943 l 1287 777 l 1112 777 l 1149 943 l 1322 943 m 1166 181 q 1156 131 1158 147 q 1154 104 1154 115 q 1170 62 1154 75 q 1222 45 1185 49 l 1215 0 l 932 0 l 1038 473 q 1050 537 1047 514 q 1054 575 1054 559 q 1041 613 1054 602 q 989 628 1029 624 l 999 673 l 1198 680 l 1275 680 l 1166 181 z "},"ﬂ":{"ha":857,"x_min":-169,"x_max":888,"o":"m 92 588 l 102 633 q 143 640 130 635 q 168 651 157 644 q 186 677 178 659 q 205 732 195 694 q 250 841 223 798 q 317 914 276 883 q 413 959 357 945 q 537 974 469 974 q 638 964 593 974 l 637 962 l 811 971 l 888 971 l 713 181 q 704 133 706 150 q 701 104 701 116 q 716 62 701 75 q 769 45 732 49 l 762 0 l 479 0 l 651 766 q 661 811 658 797 q 665 840 663 826 q 666 863 666 853 q 657 897 666 886 q 626 911 648 907 l 610 840 l 543 840 q 535 875 543 862 q 516 893 528 888 q 494 899 505 899 q 454 884 471 899 q 427 841 438 869 q 404 761 415 812 l 383 673 l 513 673 l 494 588 l 364 588 l 241 21 q 175 -159 218 -88 q 63 -267 132 -231 q -104 -303 -5 -303 q -169 -294 -136 -303 l -151 -220 q -106 -226 -132 -226 q -56 -217 -75 -226 q -21 -188 -37 -209 q 8 -127 -5 -168 q 38 -15 22 -87 l 174 588 l 92 588 z "},"ﬄ":{"ha":1302,"x_min":-169,"x_max":1333,"o":"m 92 588 l 102 633 q 143 640 130 635 q 168 651 157 644 q 186 677 178 659 q 205 732 195 694 q 248 839 222 797 q 315 913 274 882 q 412 959 357 945 q 534 974 467 974 q 591 972 560 974 q 661 962 622 970 l 631 826 l 543 826 q 530 886 541 868 q 496 903 519 903 q 468 897 480 903 q 444 876 456 891 q 422 830 433 860 q 400 747 412 801 l 383 673 l 629 673 q 640 697 635 683 q 650 732 644 712 q 694 841 668 798 q 762 914 721 883 q 858 959 802 945 q 982 974 913 974 q 1083 964 1038 974 l 1082 962 l 1256 971 l 1333 971 l 1158 181 q 1148 133 1151 150 q 1146 104 1146 116 q 1161 62 1146 75 q 1214 45 1177 49 l 1206 0 l 924 0 l 1096 766 q 1105 811 1103 797 q 1109 840 1108 826 q 1111 863 1111 853 q 1102 897 1111 886 q 1071 911 1093 907 l 1055 840 l 988 840 q 980 875 987 862 q 961 893 972 888 q 939 899 950 899 q 899 884 916 899 q 871 841 883 869 q 848 761 860 812 l 828 673 l 958 673 l 939 588 l 809 588 l 686 21 q 620 -159 663 -88 q 508 -267 576 -231 q 340 -303 439 -303 q 276 -294 309 -303 l 294 -220 q 339 -226 313 -226 q 389 -217 370 -226 q 424 -188 408 -209 q 453 -127 439 -168 q 483 -15 467 -87 l 618 588 l 364 588 l 241 21 q 175 -159 218 -88 q 63 -267 132 -231 q -104 -303 -5 -303 q -169 -294 -136 -303 l -151 -220 q -106 -226 -132 -226 q -56 -217 -75 -226 q -21 -188 -37 -209 q 8 -127 -5 -168 q 38 -15 22 -87 l 174 588 l 92 588 z "},"&":{"ha":989,"x_min":40,"x_max":958,"o":"m 567 79 q 492 37 522 52 q 430 12 463 22 q 358 -5 397 1 q 269 -11 319 -11 q 146 14 198 -11 q 67 83 94 39 q 40 185 40 127 q 107 350 40 274 q 325 498 174 425 q 295 574 307 535 q 283 661 283 614 q 324 805 283 742 q 439 902 364 867 q 613 937 515 937 q 688 930 652 937 q 751 906 724 923 q 796 863 779 890 q 812 797 812 836 q 803 731 812 760 q 773 675 793 701 q 723 624 754 649 q 655 578 691 600 q 536 510 619 556 q 602 392 562 458 q 680 269 642 325 q 751 358 730 318 q 772 434 772 397 q 761 465 772 454 q 724 477 750 475 l 733 522 l 920 522 l 940 483 q 725 199 884 332 q 764 146 747 165 q 797 119 781 127 q 835 111 812 111 q 918 150 871 111 l 958 87 q 842 12 896 35 q 730 -11 787 -11 q 638 10 673 -11 q 567 79 602 31 m 501 583 q 597 645 561 616 q 654 707 634 673 q 674 782 674 741 q 655 844 674 821 q 603 867 635 867 q 535 844 564 867 q 489 785 505 822 q 473 703 473 747 q 501 583 473 643 m 518 149 q 473 222 501 174 q 410 331 445 270 q 362 419 376 392 q 260 328 293 374 q 227 230 227 281 q 261 133 227 166 q 355 100 294 100 q 436 111 399 100 q 518 149 474 123 z "},"`":{"ha":376,"x_min":187,"x_max":412,"o":"m 319 1000 l 412 770 l 354 738 l 187 956 l 197 1000 l 319 1000 z "},"̀":{"ha":0,"x_min":-245,"x_max":-21,"o":"m -113 1000 l -21 770 l -79 738 l -245 956 l -236 1000 l -113 1000 z "},"´":{"ha":376,"x_min":159,"x_max":495,"o":"m 495 1000 l 486 956 l 208 737 l 159 786 l 340 1000 l 495 1000 z "},"́":{"ha":0,"x_min":-273,"x_max":62,"o":"m 62 1000 l 53 956 l -225 737 l -273 786 l -92 1000 l 62 1000 z "},"ˆ":{"ha":376,"x_min":90,"x_max":484,"o":"m 395 996 l 484 770 l 423 738 l 324 886 l 317 886 l 135 738 l 90 784 l 281 996 l 395 996 z "},"̂":{"ha":0,"x_min":-342,"x_max":52,"o":"m -37 996 l 52 770 l -9 738 l -109 886 l -115 886 l -298 738 l -342 784 l -152 996 l -37 996 z "},"ˇ":{"ha":376,"x_min":132,"x_max":526,"o":"m 221 748 l 132 973 l 193 1006 l 292 858 l 299 858 l 481 1006 l 526 960 l 336 748 l 221 748 z "},"̌":{"ha":0,"x_min":-300,"x_max":94,"o":"m -212 748 l -300 973 l -239 1006 l -140 858 l -134 858 l 49 1006 l 94 960 l -97 748 l -212 748 z "},"̕":{"ha":357,"x_min":157,"x_max":386,"o":"m 385 970 q 386 942 386 958 l 386 932 q 375 853 386 887 q 342 790 364 819 q 288 735 320 762 q 193 667 255 709 l 157 714 q 230 815 206 756 q 253 970 253 874 l 385 970 z "},"˜":{"ha":376,"x_min":63,"x_max":549,"o":"m 493 952 l 549 909 q 483 822 511 853 q 431 779 454 791 q 378 766 407 766 q 337 774 355 766 q 288 807 319 782 l 269 823 q 252 833 260 829 q 236 840 244 838 q 216 842 227 842 q 184 836 198 842 q 155 813 171 829 q 119 765 140 797 l 63 808 q 130 896 104 868 q 179 938 155 924 q 234 951 203 951 q 262 947 250 951 q 287 937 275 944 q 320 913 299 930 q 352 888 342 895 q 372 879 362 882 q 397 876 381 876 q 444 892 422 876 q 493 952 465 909 z "},"̃":{"ha":0,"x_min":-370,"x_max":116,"o":"m 60 952 l 116 909 q 50 822 79 853 q -2 779 22 791 q -54 766 -26 766 q -96 774 -78 766 q -144 807 -113 782 l -164 823 q -181 833 -173 829 q -197 840 -189 838 q -216 842 -205 842 q -248 836 -235 842 q -277 813 -262 829 q -314 765 -293 797 l -370 808 q -303 896 -328 868 q -253 938 -277 924 q -199 951 -229 951 q -171 947 -183 951 q -146 937 -158 944 q -113 913 -134 930 q -80 888 -90 895 q -61 879 -71 882 q -35 876 -52 876 q 11 892 -10 876 q 60 952 33 909 z "},"¨":{"ha":376,"x_min":102,"x_max":510,"o":"m 271 935 l 239 786 l 102 786 l 134 935 l 271 935 m 510 935 l 477 786 l 340 786 l 372 935 l 510 935 z "},"̈":{"ha":0,"x_min":-331,"x_max":77,"o":"m -161 935 l -194 786 l -331 786 l -298 935 l -161 935 m 77 935 l 45 786 l -93 786 l -60 935 l 77 935 z "},"¯":{"ha":376,"x_min":113,"x_max":498,"o":"m 475 808 l 113 808 l 136 913 l 498 913 l 475 808 z "},"̄":{"ha":0,"x_min":-320,"x_max":66,"o":"m 43 808 l -320 808 l -297 913 l 66 913 l 43 808 z "},"˘":{"ha":376,"x_min":117,"x_max":535,"o":"m 535 943 q 427 811 490 856 q 279 766 365 766 q 159 817 200 766 q 117 968 117 869 l 184 981 q 218 902 192 929 q 294 874 243 874 q 395 898 355 874 q 476 977 435 922 l 535 943 z "},"̆":{"ha":0,"x_min":-316,"x_max":102,"o":"m 102 943 q -7 810 56 854 q -153 766 -70 766 q -274 817 -233 766 q -316 968 -315 869 l -249 981 q -215 902 -241 929 q -139 874 -189 874 q -38 898 -78 874 q 43 977 3 922 l 102 943 z "},"˚":{"ha":376,"x_min":151,"x_max":469,"o":"m 279 735 q 184 763 217 735 q 151 840 151 790 q 164 910 151 876 q 203 969 177 944 q 264 1007 229 994 q 340 1021 300 1021 q 436 993 404 1021 q 469 915 469 966 q 445 823 469 865 q 378 758 422 781 q 279 735 335 735 m 230 848 q 244 804 230 820 q 288 787 258 787 q 344 807 320 787 q 379 855 368 826 q 390 909 390 884 q 375 953 390 938 q 332 968 360 968 q 280 952 304 968 q 243 907 257 936 q 230 848 230 878 z "},"̊":{"ha":0,"x_min":-281,"x_max":36,"o":"m -154 735 q -249 763 -216 735 q -281 840 -281 790 q -269 910 -281 876 q -230 969 -256 944 q -169 1007 -204 994 q -93 1021 -133 1021 q 4 993 -28 1021 q 36 915 36 966 q 13 823 36 865 q -54 758 -11 781 q -154 735 -98 735 m -203 848 q -189 804 -203 820 q -144 787 -174 787 q -89 807 -113 787 q -54 855 -64 826 q -43 909 -43 884 q -58 953 -43 938 q -100 968 -73 968 q -152 952 -129 968 q -189 907 -176 936 q -203 848 -203 878 z "},"˝":{"ha":376,"x_min":68,"x_max":603,"o":"m 376 1000 l 367 956 l 116 737 l 68 786 l 259 1000 l 376 1000 m 603 1000 l 593 956 l 326 737 l 277 786 l 486 1000 l 603 1000 z "},"̋":{"ha":0,"x_min":-365,"x_max":170,"o":"m -56 1000 l -66 956 l -317 737 l -365 786 l -174 1000 l -56 1000 m 170 1000 l 161 956 l -107 737 l -155 786 l 53 1000 l 170 1000 z "},"˙":{"ha":376,"x_min":196,"x_max":407,"o":"m 407 943 l 372 777 l 196 777 l 233 943 l 407 943 z "},"̇":{"ha":0,"x_min":-237,"x_max":-26,"o":"m -26 943 l -61 777 l -237 777 l -199 943 l -26 943 z "},"¸":{"ha":376,"x_min":-91,"x_max":275,"o":"m 172 -45 q 176 -92 176 -64 q 108 -234 176 -183 q -91 -292 40 -284 l -91 -227 q 2 -189 -33 -220 q 38 -98 36 -157 l 45 -69 l 248 52 l 275 19 l 172 -45 z "},"̧":{"ha":0,"x_min":-524,"x_max":-158,"o":"m -260 -45 q -257 -92 -257 -64 q -325 -234 -257 -183 q -524 -292 -393 -284 l -524 -227 q -431 -189 -465 -220 q -395 -98 -397 -157 l -388 -69 l -185 52 l -158 19 l -260 -45 z "},"˛":{"ha":376,"x_min":-14,"x_max":235,"o":"m 151 3 l 235 3 q 180 -44 208 -19 q 134 -94 153 -69 q 107 -136 115 -118 q 100 -171 100 -155 q 113 -206 100 -193 q 147 -218 125 -218 q 215 -197 182 -218 l 229 -257 q 172 -284 205 -273 q 108 -296 138 -296 q 18 -268 49 -296 q -14 -186 -14 -239 q -8 -151 -14 -168 q 12 -113 -2 -134 q 47 -72 26 -93 q 97 -32 68 -52 q 151 3 125 -12 z "},"̨":{"ha":0,"x_min":-446,"x_max":-197,"o":"m -282 3 l -197 3 q -252 -44 -224 -19 q -299 -94 -280 -69 q -325 -136 -318 -118 q -332 -171 -332 -155 q -320 -206 -332 -193 q -286 -218 -308 -218 q -218 -197 -250 -218 l -203 -257 q -261 -284 -227 -273 q -325 -296 -294 -296 q -415 -268 -384 -296 q -446 -186 -446 -239 q -440 -151 -446 -168 q -421 -113 -435 -134 q -386 -72 -407 -93 q -336 -32 -364 -52 q -282 3 -308 -12 z "},"̦":{"ha":0,"x_min":-463,"x_max":-197,"o":"m -198 -69 q -197 -90 -197 -81 q -264 -233 -197 -182 q -463 -292 -332 -284 l -463 -227 q -389 -203 -417 -221 q -346 -155 -360 -185 q -329 -69 -332 -125 l -198 -69 z "},",":{"ha":313,"x_min":-80,"x_max":222,"o":"m 222 205 q 217 125 221 161 q 204 56 213 90 q 180 -6 195 22 q 133 -67 165 -33 q 61 -132 101 -100 q -34 -199 21 -164 l -80 -135 q -2 -57 -31 -98 q 43 52 27 -15 q 66 205 60 119 l 222 205 z "},";":{"ha":376,"x_min":-66,"x_max":345,"o":"m 345 632 l 299 427 l 126 427 l 172 632 l 345 632 m 236 205 q 231 125 235 161 q 217 56 227 90 q 193 -6 208 22 q 146 -67 178 -33 q 75 -132 115 -100 q -20 -199 35 -164 l -66 -135 q 12 -57 -17 -98 q 57 52 41 -15 q 79 205 73 119 l 236 205 m 264 673 z "},":":{"ha":376,"x_min":31,"x_max":345,"o":"m 345 632 l 299 427 l 126 427 l 172 632 l 345 632 m 250 205 l 204 0 l 31 0 l 77 205 l 250 205 m 251 673 z "},".":{"ha":313,"x_min":-3,"x_max":216,"o":"m 216 205 l 170 0 l -3 0 l 43 205 l 216 205 z "},"…":{"ha":1031,"x_min":85,"x_max":935,"o":"m 304 205 l 258 0 l 85 0 l 130 205 l 304 205 m 619 205 l 573 0 l 400 0 l 446 205 l 619 205 m 935 205 l 888 0 l 715 0 l 761 205 l 935 205 z "},"-":{"ha":452,"x_min":68,"x_max":405,"o":"m 374 303 l 68 303 l 100 446 l 405 446 l 374 303 z "},"!":{"ha":456,"x_min":66,"x_max":467,"o":"m 467 926 l 275 302 l 159 302 l 245 926 l 467 926 m 285 205 l 239 0 l 66 0 l 111 205 l 285 205 z "},"¡":{"ha":456,"x_min":-13,"x_max":389,"o":"m 170 468 l 216 673 l 389 673 l 343 468 l 170 468 m -13 -253 l 180 370 l 295 370 l 210 -253 l -13 -253 z "},"?":{"ha":609,"x_min":118,"x_max":660,"o":"m 208 302 l 214 328 q 220 346 217 336 q 229 366 224 355 q 242 391 234 377 q 263 422 250 404 q 293 459 276 439 q 331 502 309 478 q 412 599 383 558 q 458 684 441 640 q 475 774 475 727 q 457 842 475 819 q 404 866 440 866 q 331 833 363 866 q 281 743 298 801 l 160 743 l 189 873 q 294 912 255 901 q 371 930 333 924 q 449 937 409 937 q 569 916 521 937 q 638 860 616 895 q 660 783 660 825 q 649 712 660 745 q 616 647 639 680 q 557 578 593 614 q 453 481 521 542 q 387 414 410 441 q 350 363 363 387 q 331 309 338 339 l 330 302 l 208 302 m 337 205 l 291 0 l 118 0 l 163 205 l 337 205 z "},"¿":{"ha":609,"x_min":-45,"x_max":496,"o":"m 277 468 l 323 673 l 496 673 l 451 468 l 277 468 m 406 370 l 401 347 l 394 327 q 380 296 389 312 q 360 263 372 280 q 329 222 349 246 q 283 171 309 198 q 202 74 231 115 q 156 -11 173 33 q 140 -101 140 -54 q 157 -170 140 -146 q 210 -193 174 -193 q 282 -162 250 -193 q 334 -70 315 -130 l 454 -70 l 426 -201 q 320 -240 359 -228 q 243 -258 281 -252 q 165 -264 205 -264 q 46 -243 94 -264 q -24 -187 -2 -222 q -45 -110 -45 -153 q -35 -40 -45 -73 q -2 26 -24 -7 q 57 95 21 59 q 161 192 94 131 q 228 258 203 230 q 264 310 252 286 q 283 364 277 334 l 285 370 l 406 370 z "},"‘":{"ha":317,"x_min":134,"x_max":406,"o":"m 134 636 q 144 739 134 696 q 178 820 154 783 q 244 897 201 858 q 359 985 286 936 l 406 921 q 359 870 374 890 q 332 826 344 850 q 310 766 320 801 q 296 698 300 730 q 290 636 292 666 l 134 636 z "},"’":{"ha":317,"x_min":121,"x_max":393,"o":"m 393 971 q 387 887 393 923 q 367 819 381 851 q 327 755 353 787 q 261 691 300 723 q 168 623 222 659 l 121 686 q 166 733 151 714 q 192 775 181 752 q 215 833 203 798 q 231 905 226 869 q 237 971 236 941 l 393 971 z "},"“":{"ha":554,"x_min":134,"x_max":639,"o":"m 384 644 q 387 713 384 682 q 399 771 391 744 q 420 821 408 799 q 453 867 433 843 q 504 918 473 891 q 592 985 534 945 l 639 922 q 594 872 608 892 q 569 829 579 852 q 549 772 559 806 q 535 705 540 739 q 530 644 530 672 l 384 644 m 134 644 q 138 713 134 682 q 150 771 141 744 q 171 821 158 799 q 203 867 183 843 q 254 918 223 891 q 342 985 285 945 l 389 922 q 344 872 359 892 q 319 829 330 852 q 300 772 309 806 q 286 705 290 739 q 280 644 281 672 l 134 644 z "},"”":{"ha":554,"x_min":126,"x_max":631,"o":"m 381 971 q 370 857 381 901 q 334 777 358 812 q 275 709 311 742 q 173 629 239 675 l 126 693 q 171 743 157 722 q 196 786 186 763 q 216 843 206 809 q 230 909 225 876 q 235 971 235 943 l 381 971 m 631 971 q 619 857 631 901 q 584 777 608 812 q 525 709 560 742 q 422 629 489 675 l 376 693 q 421 743 406 722 q 446 786 435 763 q 465 843 456 809 q 479 909 475 876 q 485 971 484 943 l 631 971 z "},"‚":{"ha":313,"x_min":-56,"x_max":216,"o":"m 216 185 q 210 101 216 137 q 190 33 204 65 q 150 -31 176 1 q 84 -95 123 -63 q -9 -163 45 -127 l -56 -100 q -11 -53 -26 -72 q 15 -11 4 -34 q 38 47 26 12 q 54 119 49 83 q 60 185 59 155 l 216 185 z "},"„":{"ha":553,"x_min":-48,"x_max":456,"o":"m 207 185 q 195 71 207 115 q 160 -9 184 26 q 101 -77 136 -44 q -1 -157 65 -111 l -48 -93 q -3 -43 -18 -64 q 22 0 12 -23 q 41 57 32 23 q 56 123 51 90 q 61 185 60 157 l 207 185 m 456 185 q 445 71 456 115 q 410 -9 433 26 q 350 -77 386 -44 q 248 -157 315 -111 l 201 -93 q 247 -43 232 -64 q 271 0 261 -23 q 291 57 281 23 q 305 123 300 90 q 311 185 310 157 l 456 185 z "},"‹":{"ha":429,"x_min":61,"x_max":433,"o":"m 318 76 l 250 43 l 61 320 l 76 391 l 374 654 l 433 597 l 228 340 l 318 76 z "},"›":{"ha":429,"x_min":4,"x_max":376,"o":"m 119 614 l 188 647 l 376 370 l 361 299 l 63 36 l 4 93 l 210 350 l 119 614 z "},"«":{"ha":711,"x_min":61,"x_max":716,"o":"m 308 76 l 239 43 l 61 320 l 76 391 l 364 654 l 423 597 l 218 340 l 308 76 m 601 76 l 532 43 l 354 320 l 369 391 l 657 654 l 716 597 l 511 340 l 601 76 z "},"»":{"ha":711,"x_min":4,"x_max":659,"o":"m 412 614 l 481 647 l 659 370 l 644 299 l 356 36 l 297 93 l 503 350 l 412 614 m 119 614 l 188 647 l 366 370 l 351 299 l 63 36 l 4 93 l 210 350 l 119 614 z "},"/":{"ha":667,"x_min":-96,"x_max":770,"o":"m 770 970 l 41 -292 l -96 -292 l 634 970 l 770 970 z "},"|":{"ha":429,"x_min":15,"x_max":420,"o":"m 142 -292 l 15 -292 l 293 970 l 420 970 l 142 -292 z "},"–":{"ha":694,"x_min":57,"x_max":656,"o":"m 629 307 l 57 307 l 84 430 l 656 430 l 629 307 z "},"—":{"ha":1389,"x_min":57,"x_max":1351,"o":"m 1324 307 l 57 307 l 84 430 l 1351 430 l 1324 307 z "},"―":{"ha":1042,"x_min":57,"x_max":1004,"o":"m 977 307 l 57 307 l 84 430 l 1004 430 l 977 307 z "},"•":{"ha":616,"x_min":118,"x_max":531,"o":"m 322 190 q 215 217 262 190 q 143 291 169 243 q 118 398 118 339 q 145 500 118 454 q 220 575 172 547 q 328 603 269 603 q 434 577 388 603 q 506 504 481 551 q 531 397 531 457 q 504 291 531 338 q 430 217 477 243 q 322 190 382 190 z "},"·":{"ha":374,"x_min":98,"x_max":335,"o":"m 335 568 l 288 353 l 98 353 l 144 568 l 335 568 z "},"(":{"ha":551,"x_min":83,"x_max":665,"o":"m 385 -295 q 220 -256 289 -295 q 117 -145 152 -217 q 83 23 83 -73 q 123 361 83 172 q 222 682 165 557 q 336 855 271 791 q 469 942 393 913 q 665 973 551 973 l 648 897 q 552 875 593 897 q 473 806 510 854 q 384 618 425 741 q 296 271 338 483 q 258 -27 258 81 q 273 -146 258 -104 q 318 -205 288 -188 q 401 -222 349 -222 l 385 -295 z "},")":{"ha":551,"x_min":-108,"x_max":475,"o":"m 172 973 q 337 934 269 973 q 440 823 406 895 q 475 655 475 751 q 426 283 475 493 q 312 -52 378 73 q 148 -236 247 -176 q -108 -295 49 -295 l -91 -218 q 1 -200 -39 -218 q 76 -138 41 -181 q 158 15 121 -82 q 227 245 194 111 q 269 445 251 349 q 299 713 299 606 q 285 823 299 783 q 240 882 271 863 q 156 901 209 901 l 172 973 z "},"[":{"ha":493,"x_min":-5,"x_max":604,"o":"m 328 -292 l -5 -292 l 271 970 l 604 970 l 588 897 l 438 897 l 194 -218 l 344 -218 l 328 -292 z "},"]":{"ha":493,"x_min":-105,"x_max":505,"o":"m 172 970 l 505 970 l 228 -292 l -105 -292 l -89 -218 l 61 -218 l 305 897 l 155 897 l 172 970 z "}}}
